<?xml version="1.0" encoding="utf-8"?>
<!-- Generator: Adobe Illustrator 24.0.2, SVG Export Plug-In . SVG Version: 6.00 Build 0)  -->
<svg version="1.1" id="Capa_1" xmlns="http://www.w3.org/2000/svg" xmlns:xlink="http://www.w3.org/1999/xlink" x="0px" y="0px"
	 viewBox="0 0 460 314" style="enable-background:new 0 0 460 314;" xml:space="preserve">
<style type="text/css">
	.st0{opacity:0.6;}
	.st1{fill:#F2F2F2;}
	.st2{opacity:0.2;}
	.st3{fill:#FFFFFF;}
	.st4{clip-path:url(#SVGID_2_);fill:#1B3275;}
	.st5{clip-path:url(#SVGID_2_);fill:#1B3276;}
	.st6{clip-path:url(#SVGID_2_);fill:#1B3277;}
	.st7{clip-path:url(#SVGID_2_);fill:#1B3278;}
	.st8{clip-path:url(#SVGID_2_);fill:#1C3379;}
	.st9{clip-path:url(#SVGID_2_);fill:#1C337A;}
	.st10{clip-path:url(#SVGID_2_);fill:#1C337B;}
	.st11{clip-path:url(#SVGID_2_);fill:#1C337C;}
	.st12{clip-path:url(#SVGID_2_);fill:#1C337D;}
	.st13{clip-path:url(#SVGID_2_);fill:#1C337E;}
	.st14{clip-path:url(#SVGID_2_);fill:#1C337F;}
	.st15{clip-path:url(#SVGID_2_);fill:#1C3380;}
	.st16{clip-path:url(#SVGID_2_);fill:#1D3481;}
	.st17{clip-path:url(#SVGID_2_);fill:#1D3482;}
	.st18{clip-path:url(#SVGID_2_);fill:#1D3483;}
	.st19{clip-path:url(#SVGID_2_);fill:#1D3484;}
	.st20{clip-path:url(#SVGID_2_);fill:#1D3485;}
	.st21{clip-path:url(#SVGID_2_);fill:#1D3486;}
	.st22{clip-path:url(#SVGID_2_);fill:#1D3487;}
	.st23{clip-path:url(#SVGID_2_);fill:#1E3588;}
	.st24{clip-path:url(#SVGID_2_);fill:#1E3589;}
	.st25{clip-path:url(#SVGID_2_);fill:#1E358A;}
	.st26{clip-path:url(#SVGID_2_);fill:#1E358B;}
	.st27{clip-path:url(#SVGID_2_);fill:#1E358C;}
	.st28{clip-path:url(#SVGID_2_);fill:#1E358D;}
	.st29{clip-path:url(#SVGID_2_);fill:#1E358E;}
	.st30{clip-path:url(#SVGID_2_);fill:#1F368F;}
	.st31{clip-path:url(#SVGID_2_);fill:#1F3690;}
	.st32{clip-path:url(#SVGID_2_);fill:#1F3691;}
	.st33{clip-path:url(#SVGID_2_);fill:#1F3692;}
	.st34{clip-path:url(#SVGID_2_);fill:#1F3693;}
	.st35{clip-path:url(#SVGID_2_);fill:#1F3694;}
	.st36{clip-path:url(#SVGID_2_);fill:#1F3695;}
	.st37{clip-path:url(#SVGID_2_);fill:#1F3696;}
	.st38{clip-path:url(#SVGID_2_);fill:#203797;}
	.st39{clip-path:url(#SVGID_2_);fill:#203798;}
	.st40{clip-path:url(#SVGID_2_);fill:#203799;}
	.st41{clip-path:url(#SVGID_2_);fill:#20379B;}
	.st42{clip-path:url(#SVGID_2_);fill:#20379C;}
	.st43{clip-path:url(#SVGID_2_);fill:#20379D;}
	.st44{clip-path:url(#SVGID_2_);fill:#20379E;}
	.st45{clip-path:url(#SVGID_2_);fill:#21389F;}
	.st46{clip-path:url(#SVGID_2_);fill:#2138A0;}
	.st47{clip-path:url(#SVGID_2_);fill:#2138A1;}
	.st48{clip-path:url(#SVGID_2_);fill:#2138A2;}
	.st49{clip-path:url(#SVGID_2_);fill:#2138A3;}
	.st50{clip-path:url(#SVGID_2_);fill:#2138A4;}
	.st51{clip-path:url(#SVGID_2_);fill:#2138A5;}
	.st52{clip-path:url(#SVGID_2_);fill:#2138A6;}
	.st53{clip-path:url(#SVGID_2_);fill:#2239A7;}
	.st54{clip-path:url(#SVGID_2_);fill:#2239A8;}
	.st55{clip-path:url(#SVGID_2_);fill:#2239A9;}
	.st56{clip-path:url(#SVGID_2_);fill:#2239AA;}
	.st57{clip-path:url(#SVGID_2_);fill:#2239AB;}
	.st58{clip-path:url(#SVGID_2_);fill:#2239AC;}
	.st59{clip-path:url(#SVGID_2_);fill:#2239AD;}
	.st60{clip-path:url(#SVGID_2_);fill:#233AAE;}
	.st61{clip-path:url(#SVGID_2_);fill:#233AAF;}
	.st62{clip-path:url(#SVGID_2_);fill:#233AB0;}
	.st63{clip-path:url(#SVGID_2_);fill:#233AB1;}
	.st64{clip-path:url(#SVGID_2_);fill:#233AB2;}
	.st65{clip-path:url(#SVGID_2_);fill:#233AB3;}
	.st66{clip-path:url(#SVGID_2_);fill:#233AB4;}
	.st67{clip-path:url(#SVGID_2_);fill:#243BB5;}
	.st68{clip-path:url(#SVGID_2_);fill:#243BB6;}
	.st69{clip-path:url(#SVGID_2_);fill:#243BB7;}
	.st70{clip-path:url(#SVGID_2_);fill:#243BB8;}
	.st71{clip-path:url(#SVGID_2_);fill:#243BB9;}
	.st72{clip-path:url(#SVGID_2_);fill:#243BBA;}
	.st73{clip-path:url(#SVGID_2_);fill:#243BBB;}
	.st74{clip-path:url(#SVGID_2_);fill:#243BBC;}
	.st75{clip-path:url(#SVGID_2_);fill:#253CBD;}
	.st76{clip-path:url(#SVGID_2_);fill:#253CBE;}
	.st77{clip-path:url(#SVGID_2_);fill:#253CBF;}
	.st78{clip-path:url(#SVGID_2_);fill:#253CC0;}
	.st79{clip-path:url(#SVGID_4_);fill:#1B3275;}
	.st80{clip-path:url(#SVGID_4_);fill:#1B3276;}
	.st81{clip-path:url(#SVGID_4_);fill:#1B3277;}
	.st82{clip-path:url(#SVGID_4_);fill:#1B3278;}
	.st83{clip-path:url(#SVGID_4_);fill:#1C3379;}
	.st84{clip-path:url(#SVGID_4_);fill:#1C337A;}
	.st85{clip-path:url(#SVGID_4_);fill:#1C337B;}
	.st86{clip-path:url(#SVGID_4_);fill:#1C337C;}
	.st87{clip-path:url(#SVGID_4_);fill:#1C337D;}
	.st88{clip-path:url(#SVGID_4_);fill:#1C337E;}
	.st89{clip-path:url(#SVGID_4_);fill:#1C337F;}
	.st90{clip-path:url(#SVGID_4_);fill:#1C3380;}
	.st91{clip-path:url(#SVGID_4_);fill:#1D3481;}
	.st92{clip-path:url(#SVGID_4_);fill:#1D3482;}
	.st93{clip-path:url(#SVGID_4_);fill:#1D3483;}
	.st94{clip-path:url(#SVGID_4_);fill:#1D3484;}
	.st95{clip-path:url(#SVGID_4_);fill:#1D3485;}
	.st96{clip-path:url(#SVGID_4_);fill:#1D3486;}
	.st97{clip-path:url(#SVGID_4_);fill:#1D3487;}
	.st98{clip-path:url(#SVGID_4_);fill:#1E3588;}
	.st99{clip-path:url(#SVGID_4_);fill:#1E3589;}
	.st100{clip-path:url(#SVGID_4_);fill:#1E358A;}
	.st101{clip-path:url(#SVGID_4_);fill:#1E358B;}
	.st102{clip-path:url(#SVGID_4_);fill:#1E358C;}
	.st103{clip-path:url(#SVGID_4_);fill:#1E358D;}
	.st104{clip-path:url(#SVGID_4_);fill:#1E358E;}
	.st105{clip-path:url(#SVGID_4_);fill:#1F368F;}
	.st106{clip-path:url(#SVGID_4_);fill:#1F3690;}
	.st107{clip-path:url(#SVGID_4_);fill:#1F3691;}
	.st108{clip-path:url(#SVGID_4_);fill:#1F3692;}
	.st109{clip-path:url(#SVGID_4_);fill:#1F3693;}
	.st110{clip-path:url(#SVGID_4_);fill:#1F3694;}
	.st111{clip-path:url(#SVGID_4_);fill:#1F3695;}
	.st112{clip-path:url(#SVGID_4_);fill:#1F3696;}
	.st113{clip-path:url(#SVGID_4_);fill:#203797;}
	.st114{clip-path:url(#SVGID_4_);fill:#203798;}
	.st115{clip-path:url(#SVGID_4_);fill:#203799;}
	.st116{clip-path:url(#SVGID_4_);fill:#20379B;}
	.st117{clip-path:url(#SVGID_4_);fill:#20379C;}
	.st118{clip-path:url(#SVGID_4_);fill:#20379D;}
	.st119{clip-path:url(#SVGID_4_);fill:#20379E;}
	.st120{clip-path:url(#SVGID_4_);fill:#21389F;}
	.st121{clip-path:url(#SVGID_4_);fill:#2138A0;}
	.st122{clip-path:url(#SVGID_4_);fill:#2138A1;}
	.st123{clip-path:url(#SVGID_4_);fill:#2138A2;}
	.st124{clip-path:url(#SVGID_4_);fill:#2138A3;}
	.st125{clip-path:url(#SVGID_4_);fill:#2138A4;}
	.st126{clip-path:url(#SVGID_4_);fill:#2138A5;}
	.st127{clip-path:url(#SVGID_4_);fill:#2138A6;}
	.st128{clip-path:url(#SVGID_4_);fill:#2239A7;}
	.st129{clip-path:url(#SVGID_4_);fill:#2239A8;}
	.st130{clip-path:url(#SVGID_4_);fill:#2239A9;}
	.st131{clip-path:url(#SVGID_4_);fill:#2239AA;}
	.st132{clip-path:url(#SVGID_4_);fill:#2239AB;}
	.st133{clip-path:url(#SVGID_4_);fill:#2239AC;}
	.st134{clip-path:url(#SVGID_4_);fill:#2239AD;}
	.st135{clip-path:url(#SVGID_4_);fill:#233AAE;}
	.st136{clip-path:url(#SVGID_4_);fill:#233AAF;}
	.st137{clip-path:url(#SVGID_4_);fill:#233AB0;}
	.st138{clip-path:url(#SVGID_4_);fill:#233AB1;}
	.st139{clip-path:url(#SVGID_4_);fill:#233AB2;}
	.st140{clip-path:url(#SVGID_4_);fill:#233AB3;}
	.st141{clip-path:url(#SVGID_4_);fill:#233AB4;}
	.st142{clip-path:url(#SVGID_4_);fill:#243BB5;}
	.st143{clip-path:url(#SVGID_4_);fill:#243BB6;}
	.st144{clip-path:url(#SVGID_4_);fill:#243BB7;}
	.st145{clip-path:url(#SVGID_4_);fill:#243BB8;}
	.st146{clip-path:url(#SVGID_4_);fill:#243BB9;}
	.st147{clip-path:url(#SVGID_4_);fill:#243BBA;}
	.st148{clip-path:url(#SVGID_4_);fill:#243BBB;}
	.st149{clip-path:url(#SVGID_4_);fill:#243BBC;}
	.st150{clip-path:url(#SVGID_4_);fill:#253CBD;}
	.st151{clip-path:url(#SVGID_4_);fill:#253CBE;}
	.st152{clip-path:url(#SVGID_4_);fill:#253CBF;}
	.st153{clip-path:url(#SVGID_4_);fill:#253CC0;}
</style>
<g>
	<g class="st0">
		<path class="st1" d="M102.5,223c-1.1,0-2.2-0.2-3.3-0.6c-3.1-1.3-5-4.2-5-7.7v-6.7c0-1.7,1.3-3,3-3s3,1.3,3,3v6.7
			c0,1.1,0.4,1.8,1.3,2.2c1,0.4,2.6,0.3,4.2-1.3l12.9-13.1c1.2-1.2,2.6-2.2,4.3-2.8c0.7-0.3,1.5-0.5,2.2-0.6l122-21.8
			c1.6-0.3,3.2,0.8,3.5,2.4c0.3,1.6-0.8,3.2-2.4,3.5l-122,21.8c-0.4,0.1-0.8,0.2-1.1,0.3c-0.8,0.3-1.5,0.8-2.1,1.4l-12.9,13.1
			C107.8,221.9,105.1,223,102.5,223z"/>
	</g>
	<g class="st2">
		<path class="st3" d="M127.8,206.9c-1.4,0-2.7-1-2.9-2.5c-0.3-1.6,0.8-3.2,2.4-3.5L250.1,179c1.6-0.3,3.2,0.8,3.5,2.4
			c0.3,1.6-0.8,3.2-2.4,3.5l-122.8,21.9C128.2,206.9,128,206.9,127.8,206.9z"/>
	</g>
	<g>
		<g>
			<defs>
				<line id="SVGID_1_" x1="126.5" y1="203.1" x2="249.4" y2="181.2"/>
			</defs>
			<clipPath id="SVGID_2_">
				<use xlink:href="#SVGID_1_"  style="overflow:visible;"/>
			</clipPath>
			<rect x="126.5" y="181.2" class="st4" width="122.8" height="21.9"/>
			<path class="st4" d="M230.7,192.1c0,5.9-1.2,11.5-3.4,16.6v-4.7h-78.8v4.7c-2.2-5.1-3.4-10.7-3.4-16.6c0-5.9,1.2-11.5,3.4-16.6
				v4.7h78.8v-4.7C229.5,180.6,230.7,186.2,230.7,192.1z"/>
			<path class="st5" d="M230.3,192.1c0,5.8-1.2,11.4-3.3,16.5v-4.5h-78v4.5c-2.1-5.1-3.3-10.6-3.3-16.5c0-5.8,1.2-11.4,3.3-16.5v4.5
				h78v-4.5C229.1,180.7,230.3,186.3,230.3,192.1z"/>
			<path class="st6" d="M229.9,192.1c0,5.8-1.2,11.3-3.3,16.3v-4.4h-77.3v4.4c-2.1-5-3.3-10.5-3.3-16.3s1.2-11.3,3.3-16.3v4.4h77.3
				v-4.4C228.7,180.8,229.9,186.4,229.9,192.1z"/>
			<path class="st7" d="M229.5,192.1c0,5.7-1.2,11.2-3.3,16.2v-4.2h-76.6v4.2c-2.1-5-3.3-10.4-3.3-16.2c0-5.7,1.2-11.2,3.3-16.2v4.2
				h76.6V176C228.3,180.9,229.5,186.4,229.5,192.1z"/>
			<path class="st8" d="M229.1,192.1c0,5.7-1.2,11.1-3.2,16v-4.1H150v4.1c-2.1-4.9-3.2-10.3-3.2-16c0-5.7,1.2-11.1,3.2-16v4.1h75.9
				v-4.1C228,181,229.1,186.5,229.1,192.1z"/>
			<path class="st9" d="M228.7,192.1c0,5.6-1.1,11-3.2,15.9v-3.9h-75.1v3.9c-2.1-4.9-3.2-10.2-3.2-15.9c0-5.6,1.1-11,3.2-15.9v3.9
				h75.1v-3.9C227.6,181.2,228.7,186.5,228.7,192.1z"/>
			<path class="st10" d="M228.3,192.1c0,5.6-1.1,10.9-3.2,15.7v-3.7h-74.4v3.7c-2-4.8-3.2-10.1-3.2-15.7s1.1-10.9,3.2-15.7v3.7h74.4
				v-3.7C227.2,181.3,228.3,186.6,228.3,192.1z"/>
			<path class="st11" d="M227.9,192.1c0,5.5-1.1,10.8-3.1,15.6v-3.6h-73.7v3.6c-2-4.8-3.1-10-3.1-15.6c0-5.5,1.1-10.8,3.1-15.6v3.6
				h73.7v-3.6C226.8,181.4,227.9,186.6,227.9,192.1z"/>
			<path class="st12" d="M227.5,192.1c0,5.5-1.1,10.7-3.1,15.4v-3.4h-73v3.4c-2-4.7-3.1-9.9-3.1-15.4c0-5.5,1.1-10.7,3.1-15.4v3.4
				h73v-3.4C226.4,181.5,227.5,186.7,227.5,192.1z"/>
			<path class="st13" d="M227.1,192.1c0,5.4-1.1,10.6-3.1,15.3v-3.3h-72.3v3.3c-2-4.7-3.1-9.8-3.1-15.3c0-5.4,1.1-10.6,3.1-15.3v3.3
				h72.3v-3.3C226,181.6,227.1,186.7,227.1,192.1z"/>
			<path class="st14" d="M226.8,192.1c0,5.4-1.1,10.5-3.1,15.1v-3.1h-71.5v3.1c-2-4.6-3.1-9.7-3.1-15.1s1.1-10.5,3.1-15.1v3.1h71.5
				V177C225.7,181.7,226.8,186.8,226.8,192.1z"/>
			<path class="st15" d="M226.4,192.1c0,5.3-1.1,10.4-3,15v-3h-70.8v3c-1.9-4.6-3-9.7-3-15c0-5.3,1.1-10.4,3-15v3h70.8v-3
				C225.3,181.8,226.4,186.8,226.4,192.1z"/>
			<path class="st16" d="M226,192.1c0,5.3-1.1,10.3-3,14.8v-2.8h-70.1v2.8c-1.9-4.5-3-9.6-3-14.8c0-5.3,1.1-10.3,3-14.8v2.8H223
				v-2.8C224.9,181.9,226,186.9,226,192.1z"/>
			<path class="st17" d="M225.6,192.1c0,5.2-1.1,10.1-3,14.7v-2.7h-69.4v2.7c-1.9-4.5-3-9.5-3-14.7c0-5.2,1.1-10.1,3-14.7v2.7h69.4
				v-2.7C224.5,182,225.6,187,225.6,192.1z"/>
			<path class="st18" d="M225.2,192.1c0,5.1-1,10-2.9,14.5v-2.5h-68.6v2.5c-1.9-4.5-2.9-9.4-2.9-14.5c0-5.1,1-10,2.9-14.5v2.5h68.6
				v-2.5C224.1,182.1,225.2,187,225.2,192.1z"/>
			<path class="st19" d="M224.8,192.1c0,5.1-1,9.9-2.9,14.3v-2.4H154v2.4c-1.9-4.4-2.9-9.3-2.9-14.3c0-5.1,1-9.9,2.9-14.3v2.4h67.9
				v-2.4C223.8,182.2,224.8,187.1,224.8,192.1z"/>
			<path class="st20" d="M224.4,192.1c0,5-1,9.8-2.9,14.2v-2.2h-67.2v2.2c-1.8-4.4-2.9-9.2-2.9-14.2c0-5,1-9.8,2.9-14.2v2.2h67.2
				V178C223.4,182.3,224.4,187.1,224.4,192.1z"/>
			<path class="st21" d="M224,192.1c0,5-1,9.7-2.8,14v-2.1h-66.5v2.1c-1.8-4.3-2.8-9.1-2.8-14c0-5,1-9.7,2.8-14v2.1h66.5v-2.1
				C223,182.4,224,187.2,224,192.1z"/>
			<path class="st22" d="M223.6,192.1c0,4.9-1,9.6-2.8,13.9v-1.9h-65.7v1.9c-1.8-4.3-2.8-9-2.8-13.9c0-4.9,1-9.6,2.8-13.9v1.9h65.7
				v-1.9C222.6,182.5,223.6,187.2,223.6,192.1z"/>
			<path class="st23" d="M223.2,192.1c0,4.9-1,9.5-2.8,13.7v-1.8h-65v1.8c-1.8-4.2-2.8-8.9-2.8-13.7c0-4.9,1-9.5,2.8-13.7v1.8h65
				v-1.8C222.2,182.6,223.2,187.3,223.2,192.1z"/>
			<path class="st24" d="M222.8,192.1c0,4.8-1,9.4-2.7,13.6v-1.6h-64.3v1.6c-1.8-4.2-2.7-8.8-2.7-13.6c0-4.8,1-9.4,2.7-13.6v1.6
				h64.3v-1.6C221.9,182.7,222.8,187.3,222.8,192.1z"/>
			<path class="st25" d="M222.4,192.1c0,4.8-1,9.3-2.7,13.4v-1.5h-63.6v1.5c-1.7-4.1-2.7-8.7-2.7-13.4c0-4.8,1-9.3,2.7-13.4v1.5
				h63.6v-1.5C221.5,182.8,222.4,187.4,222.4,192.1z"/>
			<path class="st26" d="M222,192.1c0,4.7-1,9.2-2.7,13.3v-1.3h-62.9v1.3c-1.7-4.1-2.7-8.6-2.7-13.3c0-4.7,1-9.2,2.7-13.3v1.3h62.9
				v-1.3C221.1,183,222,187.4,222,192.1z"/>
			<path class="st27" d="M221.7,192.1c0,4.7-0.9,9.1-2.6,13.1v-1.2h-62.1v1.2c-1.7-4-2.6-8.5-2.6-13.1c0-4.7,0.9-9.1,2.6-13.1v1.2
				H219V179C220.7,183.1,221.7,187.5,221.7,192.1z"/>
			<path class="st28" d="M221.3,192.1c0,4.6-0.9,9-2.6,13v-1h-61.4v1c-1.7-4-2.6-8.4-2.6-13c0-4.6,0.9-9,2.6-13v1h61.4v-1
				C220.3,183.2,221.3,187.5,221.3,192.1z"/>
			<path class="st29" d="M220.9,192.1c0,4.5-0.9,8.9-2.6,12.8v-0.8h-60.7v0.8c-1.7-3.9-2.6-8.3-2.6-12.8c0-4.5,0.9-8.9,2.6-12.8v0.8
				h60.7v-0.8C219.9,183.3,220.9,187.6,220.9,192.1z"/>
			<path class="st30" d="M220.5,192.1c0,4.5-0.9,8.8-2.6,12.7v-0.7h-60v0.7c-1.6-3.9-2.6-8.2-2.6-12.7c0-4.5,0.9-8.8,2.6-12.7v0.7
				h60v-0.7C219.6,183.4,220.5,187.7,220.5,192.1z"/>
			<path class="st31" d="M220.1,192.1c0,4.4-0.9,8.7-2.5,12.5v-0.5h-59.2v0.5c-1.6-3.8-2.5-8.1-2.5-12.5c0-4.4,0.9-8.7,2.5-12.5v0.5
				h59.2v-0.5C219.2,183.5,220.1,187.7,220.1,192.1z"/>
			<path class="st32" d="M219.7,192.1c0,4.4-0.9,8.6-2.5,12.4v-0.4h-58.5v0.4c-1.6-3.8-2.5-8-2.5-12.4c0-4.4,0.9-8.6,2.5-12.4v0.4
				h58.5v-0.4C218.8,183.6,219.7,187.8,219.7,192.1z"/>
			<path class="st33" d="M219.3,192.1c0,4.3-0.9,8.5-2.5,12.2v-0.2H159v0.2c-1.6-3.8-2.5-7.9-2.5-12.2c0-4.3,0.9-8.5,2.5-12.2v0.2
				h57.8v-0.2C218.4,183.7,219.3,187.8,219.3,192.1z"/>
			<path class="st34" d="M218.9,192.1c0,4.3-0.9,8.4-2.4,12.1v-0.1h-57.1v0.1c-1.6-3.7-2.4-7.8-2.4-12.1c0-4.3,0.9-8.4,2.4-12.1v0.1
				h57.1v-0.1C218,183.8,218.9,187.9,218.9,192.1z"/>
			<path class="st35" d="M218.5,192.1c0,4.2-0.9,8.2-2.4,11.9c-0.8,1.8-1.7,3.6-2.8,5.2v-5.1h-50.7v5.1c-1.1-1.6-2-3.4-2.8-5.2
				c-1.5-3.7-2.4-7.7-2.4-11.9c0-4.2,0.9-8.2,2.4-11.9c0.8-1.8,1.7-3.6,2.8-5.2v5.1h50.7v-5.1c1.1,1.6,2,3.4,2.8,5.2
				C217.7,183.9,218.5,187.9,218.5,192.1z"/>
			<path class="st36" d="M218.1,192.1c0,4.2-0.8,8.1-2.4,11.8c-0.8,1.8-1.7,3.5-2.8,5.1v-4.9h-50.1v4.9c-1.1-1.6-2-3.3-2.8-5.1
				c-1.5-3.6-2.4-7.6-2.4-11.8c0-4.2,0.8-8.1,2.4-11.8c0.8-1.8,1.7-3.5,2.8-5.1v4.9H213v-4.9c1.1,1.6,2,3.3,2.8,5.1
				C217.3,184,218.1,188,218.1,192.1z"/>
			<path class="st37" d="M217.7,192.1c0,4.1-0.8,8-2.3,11.6c-0.8,1.8-1.7,3.5-2.7,5.1v-4.7h-49.4v4.7c-1.1-1.6-2-3.3-2.7-5.1
				c-1.5-3.6-2.3-7.5-2.3-11.6s0.8-8,2.3-11.6c0.8-1.8,1.7-3.5,2.7-5.1v4.7h49.4v-4.7c1.1,1.6,2,3.3,2.7,5.1
				C216.9,184.1,217.7,188,217.7,192.1z"/>
			<path class="st38" d="M217.3,192.1c0,4.1-0.8,7.9-2.3,11.4c-0.7,1.8-1.7,3.4-2.7,5v-4.5h-48.8v4.5c-1.1-1.6-2-3.2-2.7-5
				c-1.5-3.5-2.3-7.4-2.3-11.4c0-4.1,0.8-7.9,2.3-11.4c0.7-1.8,1.7-3.4,2.7-5v4.5h48.8v-4.5c1.1,1.6,2,3.2,2.7,5
				C216.5,184.2,217.3,188.1,217.3,192.1z"/>
			<path class="st39" d="M216.9,192.1c0,4-0.8,7.8-2.3,11.3c-0.7,1.7-1.6,3.4-2.7,4.9v-4.2h-48.1v4.2c-1-1.5-1.9-3.2-2.7-4.9
				c-1.5-3.5-2.3-7.3-2.3-11.3c0-4,0.8-7.8,2.3-11.3c0.7-1.7,1.6-3.4,2.7-4.9v4.2H212v-4.2c1,1.5,1.9,3.2,2.7,4.9
				C216.1,184.3,216.9,188.1,216.9,192.1z"/>
			<path class="st40" d="M216.6,192.1c0,4-0.8,7.7-2.2,11.1c-0.7,1.7-1.6,3.3-2.6,4.9v-4h-47.5v4c-1-1.5-1.9-3.1-2.6-4.9
				c-1.4-3.4-2.2-7.2-2.2-11.1c0-4,0.8-7.7,2.2-11.1c0.7-1.7,1.6-3.3,2.6-4.9v4h47.5v-4c1,1.5,1.9,3.1,2.6,4.9
				C215.8,184.4,216.6,188.2,216.6,192.1z"/>
			<path class="st41" d="M216.2,192.1c0,3.9-0.8,7.6-2.2,11c-0.7,1.7-1.6,3.3-2.6,4.8v-3.8h-46.8v3.8c-1-1.5-1.9-3.1-2.6-4.8
				c-1.4-3.4-2.2-7.1-2.2-11s0.8-7.6,2.2-11c0.7-1.7,1.6-3.3,2.6-4.8v3.8h46.8v-3.8c1,1.5,1.9,3.1,2.6,4.8
				C215.4,184.5,216.2,188.3,216.2,192.1z"/>
			<path class="st42" d="M215.8,192.1c0,3.8-0.8,7.5-2.2,10.8c-0.7,1.7-1.6,3.2-2.6,4.7v-3.6h-46.2v3.6c-1-1.5-1.9-3.1-2.6-4.7
				c-1.4-3.3-2.2-7-2.2-10.8c0-3.8,0.8-7.5,2.2-10.8c0.7-1.7,1.6-3.2,2.6-4.7v3.6H211v-3.6c1,1.5,1.9,3.1,2.6,4.7
				C215,184.6,215.8,188.3,215.8,192.1z"/>
			<path class="st43" d="M215.4,192.1c0,3.8-0.8,7.4-2.2,10.7c-0.7,1.6-1.5,3.2-2.5,4.7v-3.4h-45.5v3.4c-1-1.5-1.8-3-2.5-4.7
				c-1.4-3.3-2.2-6.9-2.2-10.7c0-3.8,0.8-7.4,2.2-10.7c0.7-1.6,1.5-3.2,2.5-4.7v3.4h45.5v-3.4c1,1.5,1.8,3,2.5,4.7
				C214.6,184.8,215.4,188.4,215.4,192.1z"/>
			<path class="st44" d="M215,192.1c0,3.7-0.8,7.3-2.1,10.5c-0.7,1.6-1.5,3.2-2.5,4.6v-3.2h-44.9v3.2c-1-1.4-1.8-3-2.5-4.6
				c-1.4-3.2-2.1-6.8-2.1-10.5c0-3.7,0.8-7.3,2.1-10.5c0.7-1.6,1.5-3.2,2.5-4.6v3.2h44.9V177c1,1.4,1.8,3,2.5,4.6
				C214.2,184.9,215,188.4,215,192.1z"/>
			<path class="st45" d="M214.6,192.1c0,7.4-3,14-7.8,18.9v-6.9h-37.7v6.9c-4.8-4.8-7.8-11.5-7.8-18.9c0-7.4,3-14,7.8-18.9v6.9h37.7
				v-6.9C211.6,178.1,214.6,184.8,214.6,192.1z"/>
			<path class="st46" d="M214.2,192.1c0,7.3-2.9,13.8-7.7,18.6v-6.6h-37.1v6.6c-4.8-4.8-7.7-11.3-7.7-18.6c0-7.3,2.9-13.8,7.7-18.6
				v6.6h37.1v-6.6C211.3,178.3,214.2,184.9,214.2,192.1z"/>
			<path class="st47" d="M213.8,192.1c0,7.1-2.9,13.6-7.6,18.3v-6.3h-36.6v6.3c-4.7-4.7-7.6-11.2-7.6-18.3c0-7.1,2.9-13.6,7.6-18.3
				v6.3h36.6v-6.3C210.9,178.5,213.8,185,213.8,192.1z"/>
			<path class="st48" d="M213.4,192.1c0,7-2.9,13.4-7.5,18v-6h-36v6c-4.6-4.6-7.5-11-7.5-18c0-7,2.9-13.4,7.5-18v6h36v-6
				C210.6,178.7,213.4,185.1,213.4,192.1z"/>
			<path class="st49" d="M213,192.1c0,6.9-2.8,13.2-7.3,17.7v-5.8h-35.5v5.8c-4.5-4.5-7.3-10.8-7.3-17.7c0-6.9,2.8-13.2,7.3-17.7
				v5.8h35.5v-5.8C210.2,178.9,213,185.2,213,192.1z"/>
			<path class="st50" d="M212.6,192.1c0,6.8-2.8,13-7.2,17.5v-5.5h-34.9v5.5c-4.5-4.5-7.2-10.6-7.2-17.5c0-6.8,2.8-13,7.2-17.5v5.5
				h34.9v-5.5C209.9,179.2,212.6,185.3,212.6,192.1z"/>
			<path class="st51" d="M212.2,192.1c0,6.7-2.7,12.8-7.1,17.2v-5.2h-34.4v5.2c-4.4-4.4-7.1-10.5-7.1-17.2c0-6.7,2.7-12.8,7.1-17.2
				v5.2h34.4V175C209.5,179.4,212.2,185.4,212.2,192.1z"/>
			<path class="st52" d="M211.8,192.1c0,6.6-2.7,12.6-7,16.9v-4.9H171v4.9c-4.3-4.3-7-10.3-7-16.9c0-6.6,2.7-12.6,7-16.9v4.9h33.8
				v-4.9C209.2,179.6,211.8,185.5,211.8,192.1z"/>
			<path class="st53" d="M211.5,192.1c0,6.5-2.6,12.4-6.9,16.6v-4.7h-33.3v4.7c-4.3-4.3-6.9-10.1-6.9-16.6c0-6.5,2.6-12.4,6.9-16.6
				v4.7h33.3v-4.7C208.8,179.8,211.5,185.7,211.5,192.1z"/>
			<path class="st54" d="M211.1,192.1c0,6.4-2.6,12.2-6.8,16.4v-4.4h-32.7v4.4c-4.2-4.2-6.8-10-6.8-16.4c0-6.4,2.6-12.2,6.8-16.4
				v4.4h32.7v-4.4C208.5,180,211.1,185.8,211.1,192.1z"/>
			<path class="st55" d="M210.7,192.1c0,6.3-2.5,12-6.7,16.1v-4.1h-32.2v4.1c-4.1-4.1-6.7-9.8-6.7-16.1c0-6.3,2.5-12,6.7-16.1v4.1
				H204v-4.1C208.1,180.2,210.7,185.9,210.7,192.1z"/>
			<path class="st56" d="M210.3,192.1c0,6.2-2.5,11.8-6.5,15.8v-3.8h-31.6v3.8c-4-4-6.5-9.6-6.5-15.8c0-6.2,2.5-11.8,6.5-15.8v3.8
				h31.6v-3.8C207.8,180.4,210.3,186,210.3,192.1z"/>
			<path class="st57" d="M209.9,192.1c0,6.1-2.5,11.6-6.4,15.5v-3.6h-31v3.6c-4-4-6.4-9.5-6.4-15.5c0-6.1,2.5-11.6,6.4-15.5v3.6h31
				v-3.6C207.4,180.6,209.9,186.1,209.9,192.1z"/>
			<path class="st58" d="M209.5,192.1c0,6-2.4,11.3-6.3,15.2v-3.3h-30.5v3.3c-3.9-3.9-6.3-9.3-6.3-15.2c0-6,2.4-11.3,6.3-15.2v3.3
				h30.5v-3.3C207.1,180.8,209.5,186.2,209.5,192.1z"/>
			<path class="st59" d="M209.1,192.1c0,5.8-2.4,11.1-6.2,15v-3H173v3c-3.8-3.8-6.2-9.1-6.2-15c0-5.8,2.4-11.1,6.2-15v3h29.9v-3
				C206.7,181,209.1,186.3,209.1,192.1z"/>
			<path class="st60" d="M208.7,192.1c0,5.7-2.3,10.9-6.1,14.7v-2.7h-29.4v2.7c-3.8-3.8-6.1-9-6.1-14.7c0-5.7,2.3-10.9,6.1-14.7v2.7
				h29.4v-2.7C206.4,181.2,208.7,186.4,208.7,192.1z"/>
			<path class="st61" d="M208.3,192.1c0,5.6-2.3,10.7-6,14.4v-2.4h-28.8v2.4c-3.7-3.7-6-8.8-6-14.4c0-5.6,2.3-10.7,6-14.4v2.4h28.8
				v-2.4C206,181.4,208.3,186.5,208.3,192.1z"/>
			<path class="st62" d="M207.9,192.1c0,5.5-2.2,10.5-5.9,14.1v-2.2h-28.3v2.2c-3.6-3.6-5.9-8.6-5.9-14.1c0-5.5,2.2-10.5,5.9-14.1
				v2.2h28.3V178C205.7,181.6,207.9,186.6,207.9,192.1z"/>
			<path class="st63" d="M207.5,192.1c0,5.4-2.2,10.3-5.7,13.9v-1.9h-27.7v1.9c-3.5-3.5-5.7-8.4-5.7-13.9c0-5.4,2.2-10.3,5.7-13.9
				v1.9h27.7v-1.9C205.3,181.8,207.5,186.7,207.5,192.1z"/>
			<path class="st64" d="M207.1,192.1c0,5.3-2.1,10.1-5.6,13.6v-1.6h-27.2v1.6c-3.5-3.5-5.6-8.3-5.6-13.6c0-5.3,2.1-10.1,5.6-13.6
				v1.6h27.2v-1.6C205,182,207.1,186.8,207.1,192.1z"/>
			<circle class="st65" cx="187.9" cy="192.1" r="18.8"/>
			<circle class="st66" cx="187.9" cy="192.1" r="18.4"/>
			<circle class="st67" cx="187.9" cy="192.1" r="18"/>
			<circle class="st68" cx="187.9" cy="192.1" r="17.6"/>
			<circle class="st69" cx="187.9" cy="192.1" r="17.2"/>
			<circle class="st70" cx="187.9" cy="192.1" r="16.9"/>
			<circle class="st71" cx="187.9" cy="192.1" r="16.5"/>
			<circle class="st72" cx="187.9" cy="192.1" r="16.1"/>
			<circle class="st73" cx="187.9" cy="192.1" r="15.7"/>
			<circle class="st74" cx="187.9" cy="192.1" r="15.3"/>
			<circle class="st75" cx="187.9" cy="192.1" r="14.9"/>
			<circle class="st76" cx="187.9" cy="192.1" r="14.5"/>
			<circle class="st77" cx="187.9" cy="192.1" r="14.1"/>
			<circle class="st78" cx="187.9" cy="192.1" r="13.7"/>
		</g>
	</g>
	<g>
		<path class="st3" d="M102.5,221.5c-0.9,0-1.9-0.2-2.7-0.5c-2.5-1-4.1-3.4-4.1-6.3v-6.7c0-0.8,0.7-1.5,1.5-1.5s1.5,0.7,1.5,1.5v6.7
			c0,1.7,0.8,3,2.2,3.6c1.8,0.7,4.1,0.1,5.8-1.6l12.9-13.1c1.1-1.1,2.4-2,3.9-2.5c0.6-0.2,1.2-0.4,1.9-0.5l122-21.8
			c0.8-0.1,1.6,0.4,1.7,1.2c0.1,0.8-0.4,1.6-1.2,1.7l-122,21.8c-0.5,0.1-0.9,0.2-1.3,0.4c-1,0.4-2,1-2.8,1.8l-12.9,13.1
			C107,220.5,104.7,221.5,102.5,221.5z"/>
	</g>
	<g class="st0">
		<path class="st1" d="M332.7,158.9c-1.4,0-2.7-1-3-2.5c-0.3-1.6,0.8-3.2,2.5-3.5l30.9-5.2c6-0.8,10.9-6.3,10.9-12.3v-44
			c0-4.6-3.1-8.3-7.6-8.8c-1.6-0.2-2.8-1.7-2.6-3.3c0.2-1.6,1.7-2.8,3.3-2.6c7.4,0.9,12.8,7.1,12.8,14.8v44c0,8.9-7.2,17-16.1,18.2
			l-30.7,5.1C333,158.9,332.9,158.9,332.7,158.9z"/>
	</g>
	<g class="st2">
		<path class="st3" d="M335.7,161.3c-1.4,0-2.7-1-3-2.5c-0.3-1.6,0.8-3.2,2.5-3.5l30.9-5.2c6-0.8,10.9-6.3,10.9-12.3v-44
			c0-4.6-3.1-8.3-7.6-8.8c-1.6-0.2-2.8-1.7-2.6-3.3s1.7-2.8,3.3-2.6c7.6,0.9,12.8,7,12.8,14.8v44c0,8.9-7.2,17-16.1,18.2l-30.7,5.1
			C336,161.3,335.8,161.3,335.7,161.3z"/>
	</g>
	<g class="st0">
		<path class="st1" d="M95.3,160.6c-1.7,0-3-1.3-3-3v-22.3c0-6.2,3.4-12.3,8.9-16.1c1.4-0.9,3.2-0.6,4.2,0.8
			c0.9,1.4,0.6,3.2-0.8,4.2c-3.8,2.6-6.3,6.9-6.3,11.1v22.3C98.3,159.2,97,160.6,95.3,160.6z"/>
	</g>
	<g class="st2">
		<path class="st3" d="M104.3,230.6c-1.1,0-2.2-0.2-3.3-0.6c-3.1-1.3-5-4.2-5-7.7v-6.7c0-1.7,1.3-3,3-3s3,1.3,3,3v6.7
			c0,1.1,0.4,1.8,1.3,2.2c1,0.4,2.6,0.3,4.2-1.3l14.3-14.5c1.2-1.2,3.1-1.2,4.2,0c1.2,1.2,1.2,3.1,0,4.2l-14.3,14.5
			C109.6,229.5,106.9,230.6,104.3,230.6z"/>
	</g>
	<g class="st2">
		<path class="st3" d="M97.2,162.2c-1.7,0-3-1.3-3-3v-22.3c0-6.2,3.4-12.3,8.9-16.1c1.4-0.9,3.2-0.6,4.2,0.8
			c0.9,1.4,0.6,3.2-0.8,4.2c-3.8,2.6-6.3,6.9-6.3,11.1v22.3C100.2,160.8,98.8,162.2,97.2,162.2z"/>
	</g>
	<g>
		<path class="st3" d="M332.7,157.4c-0.7,0-1.4-0.5-1.5-1.3c-0.1-0.8,0.4-1.6,1.2-1.7l30.8-5.1c6.8-0.9,12.3-7,12.3-13.8v-44
			c0-5.4-3.7-9.7-8.9-10.3c-0.8-0.1-1.4-0.9-1.3-1.7c0.1-0.8,0.9-1.4,1.7-1.3c6.8,0.8,11.5,6.3,11.5,13.3v44
			c0,8.2-6.7,15.7-14.8,16.7l-30.7,5.1C332.9,157.4,332.8,157.4,332.7,157.4z"/>
	</g>
	<g>
		<path class="st3" d="M95.3,159.1c-0.8,0-1.5-0.7-1.5-1.5v-22.3c0-5.7,3.2-11.4,8.3-14.8c0.7-0.5,1.6-0.3,2.1,0.4
			c0.5,0.7,0.3,1.6-0.4,2.1c-4.2,2.8-6.9,7.7-6.9,12.3v22.3C96.8,158.4,96.1,159.1,95.3,159.1z"/>
	</g>
	<g class="st0">
		<path class="st1" d="M112.3,106.8c-1.4,0-2.7-1-3-2.5c-0.3-1.6,0.8-3.2,2.4-3.5l227-40.3c1.6-0.3,3.2,0.8,3.5,2.4
			c0.3,1.6-0.8,3.2-2.4,3.5l-227,40.3C112.6,106.8,112.5,106.8,112.3,106.8z"/>
	</g>
	<g class="st2">
		<path class="st3" d="M115.4,108.6c-1.4,0-2.7-1-3-2.5c-0.3-1.6,0.8-3.2,2.4-3.5l227-40.3c1.6-0.3,3.2,0.8,3.5,2.4
			c0.3,1.6-0.8,3.2-2.4,3.5l-227,40.3C115.8,108.6,115.6,108.6,115.4,108.6z"/>
	</g>
	<g>
		<g>
			<defs>
				<line id="SVGID_3_" x1="114.1" y1="104.8" x2="341.1" y2="64.6"/>
			</defs>
			<clipPath id="SVGID_4_">
				<use xlink:href="#SVGID_3_"  style="overflow:visible;"/>
			</clipPath>
			<rect x="114.1" y="64.6" class="st79" width="227" height="40.3"/>
			<path class="st79" d="M306.6,84.7c0,5.5-0.6,10.8-1.6,15.9c-0.5,2.6-1.2,5.1-1.9,7.6v-2.3H152.2v2.3c-0.8-2.5-1.4-5-1.9-7.6
				c-1.1-5.1-1.6-10.5-1.6-15.9c0-5.5,0.6-10.8,1.6-15.9c0.5-2.6,1.2-5.1,1.9-7.6v2.3h150.9v-2.3c0.8,2.5,1.4,5,1.9,7.6
				C306.1,73.9,306.6,79.3,306.6,84.7z"/>
			<path class="st80" d="M305.9,84.7c0,5.4-0.5,10.7-1.6,15.8c-0.5,2.5-1.2,5-1.9,7.5v-2.1H152.9v2.1c-0.8-2.5-1.4-5-1.9-7.5
				c-1-5.1-1.6-10.4-1.6-15.8c0-5.4,0.5-10.7,1.6-15.8c0.5-2.5,1.2-5,1.9-7.5v2.1h149.5v-2.1c0.8,2.5,1.4,5,1.9,7.5
				C305.3,74,305.9,79.3,305.9,84.7z"/>
			<path class="st81" d="M305.2,84.7c0,5.4-0.5,10.6-1.6,15.6c-0.5,2.5-1.2,5-1.9,7.4v-1.9H153.6v1.9c-0.8-2.4-1.4-4.9-1.9-7.4
				c-1-5-1.6-10.3-1.6-15.6c0-5.4,0.5-10.6,1.6-15.6c0.5-2.5,1.2-5,1.9-7.4v1.9h148.1v-1.9c0.8,2.4,1.4,4.9,1.9,7.4
				C304.6,74.1,305.2,79.4,305.2,84.7z"/>
			<path class="st82" d="M304.4,84.7c0,5.3-0.5,10.5-1.6,15.5c-0.5,2.5-1.1,5-1.9,7.4v-1.7H154.3v1.7c-0.7-2.4-1.4-4.9-1.9-7.4
				c-1-5-1.6-10.2-1.6-15.5c0-5.3,0.5-10.5,1.6-15.5c0.5-2.5,1.1-5,1.9-7.4v1.7H301v-1.7c0.7,2.4,1.4,4.9,1.9,7.4
				C303.9,74.2,304.4,79.4,304.4,84.7z"/>
			<path class="st83" d="M303.7,84.7c0,5.3-0.5,10.4-1.5,15.3c-0.5,2.5-1.1,4.9-1.9,7.3v-1.5H155v1.5c-0.7-2.4-1.4-4.8-1.9-7.3
				c-1-5-1.5-10.1-1.5-15.3c0-5.3,0.5-10.4,1.5-15.3c0.5-2.5,1.1-4.9,1.9-7.3v1.5h145.3v-1.5c0.7,2.4,1.4,4.8,1.9,7.3
				C303.2,74.3,303.7,79.5,303.7,84.7z"/>
			<path class="st84" d="M303,84.7c0,5.2-0.5,10.3-1.5,15.2c-0.5,2.5-1.1,4.9-1.9,7.2v-1.3H155.7v1.3c-0.7-2.4-1.4-4.8-1.9-7.2
				c-1-4.9-1.5-10-1.5-15.2c0-5.2,0.5-10.3,1.5-15.2c0.5-2.5,1.1-4.9,1.9-7.2v1.3h143.9v-1.3c0.7,2.4,1.4,4.8,1.9,7.2
				C302.5,74.4,303,79.5,303,84.7z"/>
			<path class="st85" d="M302.3,84.7c0,5.2-0.5,10.2-1.5,15c-0.5,2.4-1.1,4.8-1.8,7.2v-1.1H156.4v1.1c-0.7-2.3-1.3-4.7-1.8-7.2
				c-1-4.9-1.5-9.9-1.5-15c0-5.2,0.5-10.2,1.5-15c0.5-2.4,1.1-4.8,1.8-7.2v1.1h142.5v-1.1c0.7,2.3,1.3,4.7,1.8,7.2
				C301.7,74.5,302.3,79.6,302.3,84.7z"/>
			<path class="st86" d="M301.5,84.7c0,5.1-0.5,10.1-1.5,14.9c-0.5,2.4-1.1,4.8-1.8,7.1v-0.8H157v0.8c-0.7-2.3-1.3-4.7-1.8-7.1
				c-1-4.8-1.5-9.8-1.5-14.9c0-5.1,0.5-10.1,1.5-14.9c0.5-2.4,1.1-4.8,1.8-7.1v0.8h141.2v-0.8c0.7,2.3,1.3,4.7,1.8,7.1
				C301,74.6,301.5,79.6,301.5,84.7z"/>
			<path class="st87" d="M300.8,84.7c0,5.1-0.5,10-1.5,14.7c-0.5,2.4-1.1,4.7-1.8,7v-0.6H157.7v0.6c-0.7-2.3-1.3-4.6-1.8-7
				c-1-4.8-1.5-9.7-1.5-14.7c0-5.1,0.5-10,1.5-14.7c0.5-2.4,1.1-4.7,1.8-7v0.6h139.8v-0.6c0.7,2.3,1.3,4.6,1.8,7
				C300.3,74.7,300.8,79.7,300.8,84.7z"/>
			<path class="st88" d="M300.1,84.7c0,5-0.5,9.9-1.5,14.6c-0.5,2.4-1.1,4.7-1.8,6.9v-0.4H158.4v0.4c-0.7-2.3-1.3-4.6-1.8-6.9
				c-1-4.7-1.5-9.6-1.5-14.6c0-5,0.5-9.9,1.5-14.6c0.5-2.4,1.1-4.7,1.8-6.9v0.4h138.4v-0.4c0.7,2.3,1.3,4.6,1.8,6.9
				C299.6,74.8,300.1,79.7,300.1,84.7z"/>
			<path class="st89" d="M299.4,84.7c0,9.9-2,19.3-5.6,27.9v-6.8H161.5v6.8c-3.6-8.6-5.6-18-5.6-27.9s2-19.3,5.6-27.9v6.8h132.2
				v-6.8C297.4,65.4,299.4,74.8,299.4,84.7z"/>
			<path class="st90" d="M298.6,84.7c0,9.8-2,19.1-5.6,27.6v-6.5H162.2v6.5c-3.6-8.5-5.6-17.8-5.6-27.6s2-19.1,5.6-27.6v6.5h130.8
				v-6.5C296.6,65.6,298.6,74.9,298.6,84.7z"/>
			<path class="st91" d="M297.9,84.7c0,9.7-2,18.9-5.5,27.4v-6.2H162.9v6.2c-3.6-8.4-5.5-17.7-5.5-27.4s2-18.9,5.5-27.4v6.2h129.5
				v-6.2C295.9,65.8,297.9,75,297.9,84.7z"/>
			<path class="st92" d="M297.2,84.7c0,9.6-1.9,18.8-5.5,27.1v-5.9H163.5v5.9c-3.5-8.3-5.5-17.5-5.5-27.1s1.9-18.8,5.5-27.1v5.9
				h128.2v-5.9C295.2,66,297.2,75.1,297.2,84.7z"/>
			<path class="st93" d="M296.5,84.7c0,9.5-1.9,18.6-5.4,26.8v-5.7H164.2v5.7c-3.5-8.2-5.4-17.3-5.4-26.8s1.9-18.6,5.4-26.8v5.7
				h126.8v-5.7C294.5,66.2,296.5,75.2,296.5,84.7z"/>
			<path class="st94" d="M295.7,84.7c0,9.4-1.9,18.4-5.4,26.5v-5.4H164.9v5.4c-3.4-8.1-5.4-17.1-5.4-26.5s1.9-18.4,5.4-26.5v5.4
				h125.5v-5.4C293.8,66.3,295.7,75.3,295.7,84.7z"/>
			<path class="st95" d="M295,84.7c0,9.3-1.9,18.2-5.3,26.2v-5.1H165.5v5.1c-3.4-8.1-5.3-16.9-5.3-26.2s1.9-18.2,5.3-26.2v5.1h124.2
				v-5.1C293.1,66.5,295,75.4,295,84.7z"/>
			<path class="st96" d="M294.3,84.7c0,9.2-1.9,18-5.2,25.9v-4.8H166.2v4.8c-3.4-8-5.2-16.7-5.2-25.9s1.9-18,5.2-25.9v4.8H289v-4.8
				C292.4,66.7,294.3,75.5,294.3,84.7z"/>
			<path class="st97" d="M293.6,84.7c0,9.1-1.8,17.8-5.2,25.7v-4.5H166.9v4.5c-3.3-7.9-5.2-16.6-5.2-25.7s1.8-17.8,5.2-25.7v4.5
				h121.5V59C291.7,66.9,293.6,75.6,293.6,84.7z"/>
			<path class="st98" d="M292.8,84.7c0,9-1.8,17.6-5.1,25.4v-4.2H167.5v4.2c-3.3-7.8-5.1-16.4-5.1-25.4s1.8-17.6,5.1-25.4v4.2h120.2
				v-4.2C291,67.1,292.8,75.7,292.8,84.7z"/>
			<path class="st99" d="M292.1,84.7c0,8.9-1.8,17.4-5.1,25.1v-4H168.2v4c-3.3-7.7-5.1-16.2-5.1-25.1s1.8-17.4,5.1-25.1v4H287v-4
				C290.3,67.3,292.1,75.8,292.1,84.7z"/>
			<path class="st100" d="M291.4,84.7c0,8.8-1.8,17.2-5,24.8v-3.7H168.9v3.7c-3.2-7.6-5-16-5-24.8s1.8-17.2,5-24.8v3.7h117.5v-3.7
				C289.6,67.5,291.4,75.9,291.4,84.7z"/>
			<path class="st101" d="M290.7,84.7c0,8.7-1.8,17-5,24.5v-3.4H169.5v3.4c-3.2-7.5-5-15.8-5-24.5s1.8-17,5-24.5v3.4h116.2v-3.4
				C288.9,67.7,290.7,76,290.7,84.7z"/>
			<path class="st102" d="M289.9,84.7c0,8.6-1.7,16.8-4.9,24.3v-3.1H170.2v3.1c-3.2-7.5-4.9-15.7-4.9-24.3s1.7-16.8,4.9-24.3v3.1
				H285v-3.1C288.2,67.9,289.9,76.1,289.9,84.7z"/>
			<path class="st103" d="M289.2,84.7c0,8.5-1.7,16.6-4.8,24v-2.8H170.9v2.8c-3.1-7.4-4.8-15.5-4.8-24s1.7-16.6,4.8-24v2.8h113.5
				v-2.8C287.5,68.1,289.2,76.2,289.2,84.7z"/>
			<path class="st104" d="M288.5,84.7c0,8.4-1.7,16.4-4.8,23.7v-2.5H171.6v2.5c-3.1-7.3-4.8-15.3-4.8-23.7s1.7-16.4,4.8-23.7v2.5
				h112.2V61C286.8,68.3,288.5,76.3,288.5,84.7z"/>
			<path class="st105" d="M287.8,84.7c0,8.3-1.7,16.2-4.7,23.4v-2.3H172.2v2.3c-3-7.2-4.7-15.1-4.7-23.4s1.7-16.2,4.7-23.4v2.3H283
				v-2.3C286.1,68.5,287.8,76.4,287.8,84.7z"/>
			<path class="st106" d="M287,84.7c0,8.2-1.7,16-4.7,23.1v-2H172.9v2c-3-7.1-4.7-14.9-4.7-23.1s1.7-16,4.7-23.1v2h109.5v-2
				C285.4,68.7,287,76.5,287,84.7z"/>
			<path class="st107" d="M286.3,84.7c0,8.1-1.6,15.8-4.6,22.8v-1.7H173.6v1.7c-3-7-4.6-14.7-4.6-22.8s1.6-15.8,4.6-22.8v1.7h108.1
				v-1.7C284.7,68.9,286.3,76.6,286.3,84.7z"/>
			<path class="st108" d="M285.6,84.7c0,8-1.6,15.6-4.6,22.6v-1.4H174.2v1.4c-2.9-6.9-4.6-14.6-4.6-22.6s1.6-15.6,4.6-22.6v1.4H281
				v-1.4C284,69.1,285.6,76.7,285.6,84.7z"/>
			<path class="st109" d="M284.9,84.7c0,7.9-1.6,15.4-4.5,22.3v-1.1H174.9v1.1c-2.9-6.8-4.5-14.4-4.5-22.3s1.6-15.4,4.5-22.3v1.1
				h105.5v-1.1C283.3,69.3,284.9,76.8,284.9,84.7z"/>
			<path class="st110" d="M284.1,84.7c0,7.8-1.6,15.2-4.4,22v-0.9H175.6v0.9c-2.9-6.8-4.4-14.2-4.4-22s1.6-15.2,4.4-22v0.9h104.1
				v-0.9C282.6,69.5,284.1,76.9,284.1,84.7z"/>
			<path class="st111" d="M283.4,84.7c0,7.7-1.6,15-4.4,21.7v-0.6H176.2v0.6c-2.8-6.7-4.4-14-4.4-21.7s1.6-15,4.4-21.7v0.6H279V63
				C281.9,69.7,283.4,77,283.4,84.7z"/>
			<path class="st112" d="M282.7,84.7c0,7.6-1.5,14.8-4.3,21.4v-0.3H176.9v0.3c-2.8-6.6-4.3-13.8-4.3-21.4c0-7.6,1.5-14.8,4.3-21.4
				v0.3h101.5v-0.3C281.2,69.9,282.7,77.1,282.7,84.7z"/>
			<path class="st113" d="M282,84.7c0,7.5-1.5,14.6-4.3,21.2v0H177.6v0c-2.7-6.5-4.3-13.6-4.3-21.2c0-7.5,1.5-14.6,4.3-21.2v0h100.1
				v0C280.4,70.1,282,77.2,282,84.7z"/>
			<path class="st114" d="M281.2,84.7c0,7.4-1.5,14.5-4.2,20.9c-0.7,1.6-1.4,3.2-2.3,4.7v-4.4h-94.3v4.4c-0.8-1.5-1.6-3.1-2.3-4.7
				c-2.7-6.4-4.2-13.5-4.2-20.9c0-7.4,1.5-14.5,4.2-20.9c0.7-1.6,1.4-3.2,2.3-4.7v4.4h94.3v-4.4c0.8,1.5,1.6,3.1,2.3,4.7
				C279.7,70.3,281.2,77.3,281.2,84.7z"/>
			<path class="st115" d="M280.5,84.7c0,7.3-1.5,14.3-4.2,20.6c-0.7,1.6-1.4,3.1-2.2,4.6v-4.1h-93v4.1c-0.8-1.5-1.6-3-2.2-4.6
				c-2.7-6.3-4.2-13.3-4.2-20.6c0-7.3,1.5-14.3,4.2-20.6c0.7-1.6,1.4-3.1,2.2-4.6v4.1h93v-4.1c0.8,1.5,1.6,3,2.2,4.6
				C279,70.4,280.5,77.4,280.5,84.7z"/>
			<path class="st116" d="M279.8,84.7c0,7.2-1.5,14.1-4.1,20.3c-0.7,1.6-1.4,3.1-2.2,4.6v-3.7h-91.7v3.7c-0.8-1.5-1.5-3-2.2-4.6
				c-2.6-6.2-4.1-13.1-4.1-20.3c0-7.2,1.5-14.1,4.1-20.3c0.7-1.6,1.4-3.1,2.2-4.6v3.7h91.7v-3.7c0.8,1.5,1.5,3,2.2,4.6
				C278.3,70.6,279.8,77.5,279.8,84.7z"/>
			<path class="st117" d="M279.1,84.7c0,7.1-1.4,13.9-4,20c-0.7,1.5-1.4,3-2.2,4.5v-3.4h-90.5v3.4c-0.8-1.5-1.5-3-2.2-4.5
				c-2.6-6.2-4-12.9-4-20c0-7.1,1.4-13.9,4-20c0.7-1.5,1.4-3,2.2-4.5v3.4h90.5v-3.4c0.8,1.5,1.5,3,2.2,4.5
				C277.6,70.8,279.1,77.6,279.1,84.7z"/>
			<path class="st118" d="M278.3,84.7c0,7-1.4,13.7-4,19.7c-0.6,1.5-1.4,3-2.1,4.4v-3H183v3c-0.8-1.4-1.5-2.9-2.1-4.4
				c-2.6-6.1-4-12.7-4-19.7c0-7,1.4-13.7,4-19.7c0.6-1.5,1.4-3,2.1-4.4v3h89.2v-3c0.8,1.4,1.5,2.9,2.1,4.4
				C276.9,71,278.3,77.7,278.3,84.7z"/>
			<path class="st119" d="M277.6,84.7c0,6.9-1.4,13.5-3.9,19.5c-1.3,3-2.8,5.8-4.6,8.5v-6.8h-82.9v6.8c-1.8-2.7-3.3-5.5-4.6-8.5
				c-2.5-6-3.9-12.6-3.9-19.5c0-6.9,1.4-13.5,3.9-19.5c1.3-3,2.8-5.8,4.6-8.5v6.8h82.9v-6.8c1.8,2.7,3.3,5.5,4.6,8.5
				C276.2,71.2,277.6,77.8,277.6,84.7z"/>
			<path class="st120" d="M276.9,84.7c0,6.8-1.4,13.3-3.9,19.2c-1.2,2.9-2.8,5.7-4.5,8.4v-6.4h-81.7v6.4c-1.8-2.6-3.3-5.4-4.5-8.4
				c-2.5-5.9-3.9-12.4-3.9-19.2c0-6.8,1.4-13.3,3.9-19.2c1.2-2.9,2.8-5.7,4.5-8.4v6.4h81.7v-6.4c1.8,2.6,3.3,5.4,4.5,8.4
				C275.5,71.4,276.9,77.9,276.9,84.7z"/>
			<path class="st121" d="M276.2,84.7c0,6.7-1.4,13.1-3.8,18.9c-1.2,2.9-2.7,5.7-4.5,8.2v-6h-80.5v6c-1.7-2.6-3.2-5.3-4.5-8.2
				c-2.5-5.8-3.8-12.2-3.8-18.9c0-6.7,1.4-13.1,3.8-18.9c1.2-2.9,2.7-5.7,4.5-8.2v6h80.5v-6c1.7,2.6,3.2,5.3,4.5,8.2
				C274.8,71.6,276.2,78,276.2,84.7z"/>
			<path class="st122" d="M275.4,84.7c0,6.6-1.3,12.9-3.8,18.6c-1.2,2.9-2.7,5.6-4.4,8.1v-5.6H188v5.6c-1.7-2.5-3.2-5.3-4.4-8.1
				c-2.4-5.7-3.8-12-3.8-18.6s1.3-12.9,3.8-18.6c1.2-2.9,2.7-5.6,4.4-8.1v5.6h79.3V58c1.7,2.5,3.2,5.3,4.4,8.1
				C274.1,71.8,275.4,78.1,275.4,84.7z"/>
			<path class="st123" d="M274.7,84.7c0,6.5-1.3,12.7-3.7,18.3c-1.2,2.8-2.6,5.5-4.3,8v-5.2h-78.1v5.2c-1.7-2.5-3.2-5.2-4.3-8
				c-2.4-5.6-3.7-11.8-3.7-18.3c0-6.5,1.3-12.7,3.7-18.3c1.2-2.8,2.6-5.5,4.3-8v5.2h78.1v-5.2c1.7,2.5,3.2,5.2,4.3,8
				C273.4,72,274.7,78.2,274.7,84.7z"/>
			<path class="st124" d="M274,84.7c0,6.4-1.3,12.5-3.6,18c-1.2,2.8-2.6,5.4-4.3,7.9v-4.8h-76.9v4.8c-1.7-2.5-3.1-5.1-4.3-7.9
				c-2.3-5.5-3.6-11.6-3.6-18c0-6.4,1.3-12.5,3.6-18c1.2-2.8,2.6-5.4,4.3-7.9v4.8h76.9v-4.8c1.7,2.5,3.1,5.1,4.3,7.9
				C272.7,72.2,274,78.3,274,84.7z"/>
			<path class="st125" d="M273.3,84.7c0,6.3-1.3,12.3-3.6,17.8c-1.2,2.7-2.6,5.3-4.2,7.8v-4.4h-75.7v4.4c-1.6-2.4-3.1-5-4.2-7.8
				C183.3,97,182,91,182,84.7c0-6.3,1.3-12.3,3.6-17.8c1.2-2.7,2.6-5.3,4.2-7.8v4.4h75.7v-4.4c1.6,2.4,3.1,5,4.2,7.8
				C272,72.4,273.3,78.4,273.3,84.7z"/>
			<path class="st126" d="M272.5,84.7c0,6.2-1.3,12.1-3.5,17.5c-1.1,2.7-2.5,5.2-4.1,7.6v-4h-74.5v4c-1.6-2.4-3-4.9-4.1-7.6
				c-2.3-5.4-3.5-11.3-3.5-17.5c0-6.2,1.3-12.1,3.5-17.5c1.1-2.7,2.5-5.2,4.1-7.6v4h74.5v-4c1.6,2.4,3,4.9,4.1,7.6
				C271.3,72.6,272.5,78.5,272.5,84.7z"/>
			<path class="st127" d="M271.8,84.7c0,6.1-1.2,11.9-3.5,17.2c-1.1,2.6-2.5,5.2-4.1,7.5v-3.6H191v3.6c-1.6-2.4-3-4.9-4.1-7.5
				c-2.2-5.3-3.5-11.1-3.5-17.2c0-6.1,1.2-11.9,3.5-17.2c1.1-2.6,2.5-5.2,4.1-7.5v3.6h73.3V60c1.6,2.4,3,4.9,4.1,7.5
				C270.6,72.8,271.8,78.6,271.8,84.7z"/>
			<path class="st128" d="M271.1,84.7c0,6-1.2,11.7-3.4,16.9c-1.1,2.6-2.4,5.1-4,7.4v-3.2h-72.1v3.2c-1.6-2.3-2.9-4.8-4-7.4
				c-2.2-5.2-3.4-10.9-3.4-16.9c0-6,1.2-11.7,3.4-16.9c1.1-2.6,2.4-5.1,4-7.4v3.2h72.1v-3.2c1.6,2.3,2.9,4.8,4,7.4
				C269.9,73,271.1,78.7,271.1,84.7z"/>
			<path class="st129" d="M270.4,84.7c0,5.9-1.2,11.5-3.4,16.6c-1.1,2.6-2.4,5-3.9,7.3v-2.8h-70.9v2.8c-1.5-2.3-2.9-4.7-3.9-7.3
				c-2.2-5.1-3.4-10.7-3.4-16.6c0-5.9,1.2-11.5,3.4-16.6c1.1-2.6,2.4-5,3.9-7.3v2.8h70.9v-2.8c1.5,2.3,2.9,4.7,3.9,7.3
				C269.2,73.2,270.4,78.8,270.4,84.7z"/>
			<path class="st130" d="M269.6,84.7c0,5.8-1.2,11.3-3.3,16.4c-1.1,2.5-2.4,4.9-3.9,7.1v-2.4h-69.7v2.4c-1.5-2.2-2.8-4.6-3.9-7.1
				c-2.1-5-3.3-10.6-3.3-16.4c0-5.8,1.2-11.3,3.3-16.4c1.1-2.5,2.4-4.9,3.9-7.1v2.4h69.7v-2.4c1.5,2.2,2.8,4.6,3.9,7.1
				C268.5,73.4,269.6,78.9,269.6,84.7z"/>
			<path class="st131" d="M268.9,84.7c0,5.7-1.2,11.1-3.2,16.1c-1,2.5-2.3,4.8-3.8,7v-1.9h-68.5v1.9c-1.5-2.2-2.8-4.5-3.8-7
				c-2.1-4.9-3.2-10.4-3.2-16.1s1.2-11.1,3.2-16.1c1-2.5,2.3-4.8,3.8-7v1.9h68.5v-1.9c1.5,2.2,2.8,4.5,3.8,7
				C267.8,73.6,268.9,79,268.9,84.7z"/>
			<path class="st132" d="M268.2,84.7c0,5.6-1.1,10.9-3.2,15.8c-1,2.4-2.3,4.7-3.7,6.9v-1.5H194v1.5c-1.5-2.2-2.7-4.5-3.7-6.9
				c-2.1-4.9-3.2-10.2-3.2-15.8c0-5.6,1.1-10.9,3.2-15.8c1-2.4,2.3-4.7,3.7-6.9v1.5h67.3V62c1.5,2.2,2.7,4.5,3.7,6.9
				C267.1,73.8,268.2,79.1,268.2,84.7z"/>
			<path class="st133" d="M267.5,84.7c0,5.5-1.1,10.7-3.1,15.5c-1,2.4-2.2,4.6-3.7,6.8v-1.1h-66.1v1.1c-1.4-2.1-2.7-4.4-3.7-6.8
				c-2-4.8-3.1-10-3.1-15.5c0-5.5,1.1-10.7,3.1-15.5c1-2.4,2.2-4.6,3.7-6.8v1.1h66.1v-1.1c1.4,2.1,2.7,4.4,3.7,6.8
				C266.4,74,267.5,79.2,267.5,84.7z"/>
			<path class="st134" d="M266.7,84.7c0,10.8-4.4,20.6-11.5,27.7v-6.5H200v6.5c-7.1-7.1-11.5-16.9-11.5-27.7S192.9,64.1,200,57v6.5
				h55.3V57C262.4,64.1,266.7,73.9,266.7,84.7z"/>
			<path class="st135" d="M266,84.7c0,10.6-4.3,20.2-11.2,27.1v-6h-54.3v6c-6.9-6.9-11.2-16.5-11.2-27.1s4.3-20.2,11.2-27.1v6h54.3
				v-6C261.7,64.5,266,74.1,266,84.7z"/>
			<path class="st136" d="M265.3,84.7c0,10.4-4.2,19.8-11,26.6v-5.5H201v5.5c-6.8-6.8-11-16.2-11-26.6s4.2-19.8,11-26.6v5.5h53.3
				v-5.5C261.1,64.9,265.3,74.3,265.3,84.7z"/>
			<path class="st137" d="M264.6,84.7c0,10.2-4.1,19.4-10.8,26.1v-5h-52.2v5c-6.7-6.7-10.8-15.9-10.8-26.1s4.1-19.4,10.8-26.1v5
				h52.2v-5C260.4,65.3,264.6,74.5,264.6,84.7z"/>
			<path class="st138" d="M263.9,84.7c0,10-4.1,19.1-10.6,25.6v-4.5H202v4.5c-6.6-6.6-10.6-15.6-10.6-25.6s4.1-19.1,10.6-25.6v4.5
				h51.2v-4.5C259.8,65.7,263.9,74.7,263.9,84.7z"/>
			<path class="st139" d="M263.1,84.7c0,9.8-4,18.7-10.4,25.1v-4h-50.2v4c-6.4-6.4-10.4-15.3-10.4-25.1s4-18.7,10.4-25.1v4h50.2v-4
				C259.2,66,263.1,74.9,263.1,84.7z"/>
			<path class="st140" d="M262.4,84.7c0,9.6-3.9,18.3-10.2,24.6v-3.4H203v3.4c-6.3-6.3-10.2-15-10.2-24.6s3.9-18.3,10.2-24.6v3.4
				h49.2v-3.4C258.5,66.4,262.4,75.1,262.4,84.7z"/>
			<path class="st141" d="M261.7,84.7c0,9.4-3.8,17.9-10,24.1v-2.9h-48.2v2.9c-6.2-6.2-10-14.7-10-24.1s3.8-17.9,10-24.1v2.9h48.2
				v-2.9C257.9,66.8,261.7,75.3,261.7,84.7z"/>
			<path class="st142" d="M261,84.7c0,9.2-3.7,17.5-9.8,23.6v-2.4h-47.1v2.4c-6-6-9.8-14.4-9.8-23.6s3.7-17.5,9.8-23.6v2.4h47.1
				v-2.4C257.2,67.2,261,75.5,261,84.7z"/>
			<path class="st143" d="M260.2,84.7c0,9-3.6,17.2-9.5,23.1v-1.9h-46.1v1.9c-5.9-5.9-9.5-14-9.5-23.1s3.6-17.2,9.5-23.1v1.9h46.1
				v-1.9C256.6,67.6,260.2,75.7,260.2,84.7z"/>
			<path class="st144" d="M259.5,84.7c0,8.8-3.6,16.8-9.3,22.5v-1.4h-45.1v1.4c-5.8-5.8-9.3-13.7-9.3-22.5s3.6-16.8,9.3-22.5v1.4
				h45.1v-1.4C255.9,67.9,259.5,75.9,259.5,84.7z"/>
			<path class="st145" d="M258.8,84.7c0,8.6-3.5,16.4-9.1,22v-0.9h-44.1v0.9c-5.6-5.6-9.1-13.4-9.1-22s3.5-16.4,9.1-22v0.9h44.1
				v-0.9C255.3,68.3,258.8,76.1,258.8,84.7z"/>
			<path class="st146" d="M258.1,84.7c0,8.4-3.4,16-8.9,21.5v-0.4h-43v0.4c-5.5-5.5-8.9-13.1-8.9-21.5s3.4-16,8.9-21.5v0.4h43v-0.4
				C254.6,68.7,258.1,76.3,258.1,84.7z"/>
			<path class="st147" d="M257.3,84.7c0,8.2-3.3,15.6-8.7,21c-2.7,2.7-5.9,4.9-9.4,6.4v-6.2h-23.1v6.2c-3.6-1.5-6.8-3.7-9.4-6.4
				c-5.4-5.4-8.7-12.8-8.7-21s3.3-15.6,8.7-21c2.7-2.7,5.9-4.9,9.4-6.4v6.2h23.1v-6.2c3.6,1.5,6.8,3.7,9.4,6.4
				C254,69.1,257.3,76.5,257.3,84.7z"/>
			<path class="st148" d="M256.6,84.7c0,8-3.2,15.2-8.5,20.5c-2.6,2.6-5.7,4.7-9.2,6.2v-5.6h-22.6v5.6c-3.5-1.5-6.6-3.6-9.2-6.2
				c-5.2-5.2-8.5-12.5-8.5-20.5s3.2-15.2,8.5-20.5c2.6-2.6,5.7-4.7,9.2-6.2v5.6h22.6V58c3.5,1.5,6.6,3.6,9.2,6.2
				C253.4,69.5,256.6,76.7,256.6,84.7z"/>
			<path class="st149" d="M255.9,84.7c0,7.8-3.2,14.9-8.3,20c-2.6,2.6-5.6,4.6-9,6.1v-4.9h-22v4.9c-3.4-1.4-6.4-3.5-9-6.1
				c-5.1-5.1-8.3-12.2-8.3-20s3.2-14.9,8.3-20c2.6-2.6,5.6-4.6,9-6.1v4.9h22v-4.9c3.4,1.4,6.4,3.5,9,6.1
				C252.7,69.8,255.9,76.9,255.9,84.7z"/>
			<circle class="st150" cx="227.6" cy="84.7" r="27.5"/>
			<circle class="st151" cx="227.6" cy="84.7" r="26.8"/>
			<circle class="st152" cx="227.6" cy="84.7" r="26.1"/>
			<circle class="st153" cx="227.6" cy="84.7" r="25.4"/>
		</g>
	</g>
	<g>
		<path class="st3" d="M112.3,105.3c-0.7,0-1.3-0.5-1.5-1.2c-0.1-0.8,0.4-1.6,1.2-1.7l227-40.3c0.8-0.1,1.6,0.4,1.7,1.2
			c0.1,0.8-0.4,1.6-1.2,1.7l-227,40.3C112.5,105.3,112.4,105.3,112.3,105.3z"/>
	</g>
	<g>
		<path class="st1" d="M149,111.4c3,1.3,5.3,3.5,6.9,6.6c1.6,3.1,2.5,6.8,2.5,11.2c0,4.3-0.8,8.3-2.4,11.8c-1.6,3.5-3.9,6.4-6.8,8.7
			c-2.9,2.3-6.3,3.7-10.2,4.4c-2.5,0.4-4.8,0.3-6.8-0.2c-2-0.6-3.8-1.6-5.2-3.2v20.1l-15.8,2.7v-57.8L127,113v4.9
			c1.4-2,3.1-3.7,5.1-4.9c2-1.3,4.2-2.1,6.6-2.5C142.6,109.8,146,110.1,149,111.4z M140.3,138.7c1.4-2,2.1-4.4,2.1-7.2
			c0-2.8-0.7-5-2.1-6.5c-1.4-1.5-3.3-2.1-5.6-1.7c-2.3,0.4-4.1,1.6-5.6,3.6c-1.4,2-2.1,4.4-2.1,7.2c0,2.8,0.7,5,2.1,6.5
			c1.4,1.5,3.3,2.1,5.6,1.7C137,141.9,138.9,140.7,140.3,138.7z"/>
		<path class="st1" d="M198.7,104.2c3.4,2.2,5,5.7,5,10.6v27.6l-15.5,2.6v-4.7c-1.3,1.9-3,3.6-5.1,4.9c-2.1,1.3-4.6,2.2-7.3,2.7
			c-4.5,0.8-8,0.2-10.6-1.8c-2.6-2-3.8-5-3.8-9.1c0-4.1,1.4-7.5,4.2-10.2c2.8-2.7,6.9-4.5,12.2-5.5l10.4-1.8v-0.2
			c0-1.8-0.6-3-1.9-3.8c-1.3-0.8-3.1-1-5.5-0.6c-1.7,0.3-3.7,0.9-6,1.8s-4.6,2.1-6.8,3.4l-3.9-9.8c7.2-4.2,14-6.8,20.5-7.9
			C190.7,101.5,195.4,102.1,198.7,104.2z M185.5,134.8c1.3-1,2.2-2.2,2.8-3.7v-3.8l-7.2,1.2c-3.2,0.5-4.8,2.1-4.8,4.8
			c0,1.4,0.4,2.3,1.3,2.9c0.8,0.6,2,0.8,3.5,0.5C182.7,136.4,184.2,135.8,185.5,134.8z"/>
		<path class="st1" d="M253.8,91.4v38.9c0,3.9-1,7.5-2.9,10.8s-4.7,6.1-8.2,8.3s-7.6,3.7-12.2,4.5c-3.8,0.6-7.4,0.7-10.8,0.3
			c-3.4-0.5-6.4-1.3-8.8-2.5l5.2-11.5c1.9,0.9,4,1.5,6.3,1.8c2.3,0.3,4.6,0.2,6.8-0.1c2.8-0.5,5-1.5,6.7-3c1.6-1.5,2.4-3.3,2.4-5.4
			v-4.3c-2.8,3.9-6.6,6.2-11.4,7c-3.4,0.6-6.5,0.3-9.2-1c-2.7-1.2-4.8-3.3-6.3-6.2c-1.5-2.9-2.3-6.3-2.3-10.4c0-4,0.7-7.6,2.2-10.9
			c1.5-3.3,3.6-6,6.2-8.1c2.7-2.1,5.7-3.5,9.1-4.1c5-0.8,8.9,0.2,11.7,3.2V94L253.8,91.4z M236.1,120.8c1.3-1.8,2-4.1,2-6.7
			c0-2.7-0.7-4.8-2-6.2c-1.3-1.4-3.1-1.9-5.3-1.5c-2.1,0.4-3.9,1.5-5.2,3.4c-1.3,1.9-2,4.1-2,6.8c0,2.6,0.7,4.6,2,6
			c1.3,1.4,3.1,1.9,5.2,1.5C233.1,123.7,234.8,122.6,236.1,120.8z"/>
		<path class="st1" d="M296,86.3c3.5,1.2,6.3,3.3,8.3,6.2c2,3,2.9,6.6,2.9,11c0,4.3-1,8.3-2.9,12c-2,3.6-4.7,6.7-8.3,9.1
			c-3.5,2.4-7.7,4-12.4,4.8c-4.7,0.8-8.9,0.6-12.5-0.6c-3.6-1.2-6.3-3.3-8.3-6.3c-2-3-2.9-6.6-2.9-11c0-4.4,1-8.4,2.9-12
			c2-3.6,4.7-6.6,8.3-9c3.6-2.4,7.7-4,12.5-4.8C288.3,84.9,292.4,85.1,296,86.3z M277.9,101.8c-1.4,2-2.1,4.4-2.1,7.2
			c0,2.9,0.7,5,2.1,6.5c1.4,1.5,3.3,2,5.6,1.6c2.3-0.4,4.1-1.6,5.6-3.5c1.4-2,2.1-4.4,2.1-7.2c0-2.8-0.7-5-2.1-6.5
			c-1.4-1.5-3.3-2.1-5.6-1.7C281.2,98.7,279.3,99.9,277.9,101.8z"/>
		<path class="st1" d="M329.5,88.4c-1,0.2-1.8,0.5-2.3,0.9c-0.6,0.4-0.9,1-0.9,1.7c0,0.8,0.5,1.3,1.6,1.6c1.1,0.3,2.8,0.6,5.1,0.8
			c3.1,0.4,5.7,0.8,7.8,1.3c2.1,0.5,3.9,1.6,5.4,3.1c1.5,1.5,2.3,3.7,2.3,6.5c0,4.3-1.7,8.1-5.1,11.2c-3.4,3.1-7.9,5.2-13.6,6.1
			c-3.8,0.6-7.3,0.7-10.8,0.3c-3.4-0.4-6.5-1.4-9.3-2.9l4.9-10.8c2.7,1.3,5.3,2.1,7.9,2.6c2.6,0.4,5.1,0.5,7.5,0.1
			c1.1-0.2,2-0.5,2.6-0.9c0.6-0.4,0.9-1,0.9-1.6c0-0.8-0.5-1.3-1.5-1.7c-1-0.3-2.7-0.6-5-0.8c-3-0.3-5.6-0.7-7.6-1.3
			c-2-0.5-3.8-1.6-5.3-3.1c-1.5-1.5-2.3-3.7-2.3-6.5c0-4.4,1.7-8.1,5-11.3c3.3-3.1,7.7-5.2,13.1-6.1c6.5-1.1,12.8-0.5,18.7,2
			l-5.2,10.8C337.6,88.5,333,87.8,329.5,88.4z"/>
	</g>
	<g>
		<path class="st3" d="M108.1,162l7.8-1.5l0.5,30.5l-7.8,1.5L108.1,162z"/>
		<path class="st3" d="M119.8,179.1c-0.1-6.7,5.1-12.5,12.3-13.8c7.3-1.4,12.6,2.4,12.7,9.1c0.1,6.7-5,12.5-12.3,13.9
			C125.3,189.7,119.9,185.9,119.8,179.1z M137,175.9c-0.1-3.4-2.1-4.9-4.8-4.4c-2.6,0.5-4.6,2.8-4.6,6.1c0.1,3.4,2.1,5,4.8,4.5
			C135.1,181.6,137.1,179.3,137,175.9z"/>
		<path class="st3" d="M147.1,174c-0.1-6.7,5.1-12.5,12.5-13.9c5-0.9,8.9,0.6,10.5,4.2l-6,4.2c-1.1-1.9-2.7-2.5-4.5-2.2
			c-2.7,0.5-4.8,2.8-4.7,6.2c0.1,3.5,2.2,4.9,4.9,4.4c1.8-0.3,3.3-1.5,4.4-3.8l6.1,1.9c-1.4,4.1-5.3,7.1-10.3,8.1
			C152.6,184.6,147.2,180.8,147.1,174z"/>
		<path class="st3" d="M194,164l0.2,12.4l-7.3,1.4l0-2.9c-1.1,2.3-3.3,3.9-6.5,4.5c-5.3,1-8.3-1.4-8.4-5.3c-0.1-4.1,2.9-7.2,9.8-8.5
			l4.4-0.8c-0.2-2.2-1.7-3.2-4.8-2.6c-2.1,0.4-4.5,1.6-6,3.1l-2.7-4.8c2.5-2.2,6.3-3.8,9.8-4.4C189.7,154.5,193.9,156.9,194,164z
			 M186.3,170.7l0-1.9l-3.4,0.6c-2.5,0.5-3.4,1.5-3.4,2.9c0,1.3,1.1,2.1,2.9,1.7C184.2,173.6,185.7,172.5,186.3,170.7z"/>
		<path class="st3" d="M198.6,144.9l7.8-1.5l0.5,30.5l-7.8,1.5L198.6,144.9z"/>
		<path class="st3" d="M234.4,159.6l-16.1,3c0.7,2.1,2.6,3.1,5.5,2.5c2.2-0.4,3.6-1.3,5.1-2.9l4.2,3.5c-2.1,2.8-5.2,4.6-9.4,5.4
			c-7.9,1.5-13.1-2.4-13.2-9.1c-0.1-6.7,5-12.4,12-13.8c6.6-1.2,12,2,12.1,9.3C234.5,158.2,234.4,159,234.4,159.6z M218.1,158.5
			l9.1-1.7c-0.5-2.3-2.2-3.4-4.6-3S218.5,156.1,218.1,158.5z"/>
		<path class="st3" d="M236.5,166.4l2.2-5.8c2.1,0.9,5.1,1.1,7.8,0.6c2.6-0.5,3.5-1.2,3.5-2.2c-0.1-3-13.1,2.9-13.3-6
			c-0.1-4.2,3.7-8.1,10.7-9.4c3.1-0.6,6.6-0.6,8.8,0.2l-2.2,5.7c-2.2-0.8-4.5-0.8-6.4-0.4c-2.6,0.5-3.6,1.4-3.5,2.2
			c0.1,3.1,13.1-2.7,13.2,6.1c0.1,4.1-3.6,8-10.9,9.4C242.6,167.6,238.7,167.4,236.5,166.4z"/>
		<path class="st3" d="M259.2,159.8c0-2.8,2-5,4.6-5.5c2.7-0.5,4.7,0.9,4.8,3.7c0,2.7-1.9,5-4.6,5.5
			C261.4,164.1,259.3,162.5,259.2,159.8z"/>
		<path class="st3" d="M270.6,150.7c-0.1-6.7,5.1-12.5,12.5-13.9c5-1,8.9,0.6,10.5,4.2l-6,4.2c-1.1-1.9-2.7-2.5-4.5-2.2
			c-2.7,0.5-4.8,2.8-4.7,6.2c0.1,3.5,2.2,4.9,4.9,4.4c1.8-0.3,3.3-1.5,4.4-3.8l6.1,1.9c-1.5,4.1-5.3,7.1-10.3,8.1
			C276.1,161.3,270.7,157.5,270.6,150.7z"/>
		<path class="st3" d="M295,146.1c-0.1-6.7,5.1-12.5,12.3-13.8c7.3-1.4,12.6,2.4,12.7,9.1c0.1,6.7-5,12.5-12.3,13.9
			C300.5,156.7,295.2,152.9,295,146.1z M312.3,142.9c-0.1-3.4-2.1-4.9-4.8-4.4c-2.6,0.5-4.6,2.8-4.6,6.1c0.1,3.4,2.1,5,4.8,4.5
			C310.3,148.6,312.3,146.3,312.3,142.9z"/>
		<path class="st3" d="M361.6,132l0.2,12.7l-7.8,1.5l-0.2-11.5c-0.1-3.2-1.4-4.3-3.4-3.9c-2.3,0.4-3.9,2.3-3.8,5.7l0.2,11.1
			l-7.8,1.5l-0.2-11.5c-0.1-3.2-1.3-4.3-3.4-3.9c-2.3,0.4-3.9,2.3-3.8,5.7l0.2,11.1l-7.8,1.5l-0.4-22.3l7.4-1.4l0,2.3
			c1.6-2.1,4-3.5,6.6-4c3-0.6,5.6,0.1,7.2,2.1c1.7-2.6,4.4-4.3,7.6-4.9C357.6,122.8,361.5,125.1,361.6,132z"/>
	</g>
	<g>
		<path class="st3" d="M385.7,180.3c-2.3-6.1-9.1-9.2-15.2-6.9c-2.9,1.1-5.3,3.3-6.6,6.1s-1.4,6.1-0.3,9l4.6,12.3
			c1.8,4.7,6.3,7.6,11,7.6c1.4,0,2.8-0.2,4.1-0.7c0,0,0,0,0,0c1.3,3.2,5.2,14.8,1.1,24.8c-2.4,5.9-7.3,10.2-14.5,12.9
			c-13.4,5-20-3.6-27.6-13.6c-7.2-9.5-15.4-20.2-31-20.9c-16.4-0.8-26,5.3-34.4,10.6c-7.7,4.8-14.3,9-24.5,6.7
			c-22.5-5.2-23.9-36.9-23.9-37.2c0-0.6-0.5-1-1-1c-0.6,0-1,0.5-1,1c0,0.3,1.4,33.6,25.5,39.1c11,2.5,18.3-2.1,26-6.9
			c8.2-5.2,17.5-11,33.3-10.3c14.6,0.7,22.2,10.6,29.5,20.1c6.2,8.1,12.1,15.9,21.8,15.9c2.4,0,5.1-0.5,8.1-1.6
			c7.7-2.9,13-7.6,15.7-14.1c4.5-10.9,0.2-23.1-1.1-26.4c2.1-1.2,3.7-3,4.8-5.3c1.3-2.9,1.4-6.1,0.3-9L385.7,180.3z M378.7,175.6
			c2.4,1.1,4.2,3,5.1,5.5l0.7,1.9l-8.2,3.1l-4.1-11c0.8-0.2,1.6-0.3,2.5-0.3C376.1,174.7,377.5,175,378.7,175.6z M365.8,180.4
			c0.9-2.1,2.5-3.7,4.6-4.7l4.1,11l-8.2,3.1l-0.7-1.9C364.6,185.4,364.7,182.8,365.8,180.4z M388.2,200.8c-1.1,2.4-3,4.2-5.5,5.1
			c-5,1.9-10.7-0.7-12.6-5.7l-3.2-8.5l18.3-6.9l3.2,8.5C389.4,195.8,389.3,198.5,388.2,200.8z"/>
		<path class="st3" d="M373.3,169.5c0.1,0,0.1,0,0.2,0c0.5-0.1,0.9-0.6,0.8-1.2l-1.9-10.4c-0.1-0.5-0.6-0.9-1.2-0.8
			c-0.5,0.1-0.9,0.6-0.8,1.2l1.9,10.4C372.4,169.2,372.9,169.5,373.3,169.5z"/>
		<path class="st3" d="M378.2,169.5c0.1,0,0.1,0,0.2,0c0.5,0,0.9-0.4,1-0.8l1.6-10.5c0.1-0.5-0.3-1.1-0.8-1.1
			c-0.5-0.1-1.1,0.3-1.1,0.8l-1.6,10.5C377.3,168.9,377.6,169.4,378.2,169.5z"/>
		<path class="st3" d="M391.5,162.8c-0.3-0.4-1-0.5-1.4-0.2l-8.6,6.2c-0.4,0.3-0.5,1-0.2,1.4c0.2,0.3,0.5,0.4,0.8,0.4
			c0.2,0,0.4-0.1,0.6-0.2l8.6-6.2C391.7,163.9,391.8,163.3,391.5,162.8z"/>
	</g>
	<g>
		<path class="st3" d="M308.3,182c-0.2,0.1-0.2,0.3-0.2,0.6c0,0.2,0.1,0.4,0.3,0.5c0.2,0.1,0.4,0.1,0.7,0.1c0.4-0.1,0.7-0.2,1-0.4
			c0.3-0.2,0.4-0.5,0.5-0.8v-0.5l-1.4,0.2C308.7,181.8,308.5,181.9,308.3,182z"/>
		<path class="st3" d="M283.2,184.4c-0.5,0.1-0.8,0.3-1.1,0.7c-0.3,0.4-0.4,0.8-0.4,1.3s0.1,0.9,0.4,1.1c0.3,0.3,0.7,0.3,1.1,0.3
			c0.5-0.1,0.8-0.3,1.1-0.7s0.4-0.8,0.4-1.3c0-0.5-0.1-0.9-0.4-1.1S283.7,184.3,283.2,184.4z"/>
		<path class="st3" d="M297.7,181.8c-0.5,0.1-0.8,0.3-1.1,0.7s-0.4,0.8-0.4,1.3s0.1,0.9,0.4,1.1s0.7,0.3,1.1,0.3
			c0.4-0.1,0.8-0.3,1.1-0.7c0.3-0.4,0.4-0.8,0.4-1.3s-0.1-0.9-0.4-1.1C298.5,181.8,298.1,181.7,297.7,181.8z"/>
		<path class="st3" d="M276.5,185.6c-0.4,0.1-0.8,0.3-1,0.6c-0.3,0.3-0.4,0.7-0.4,1.2c0,0.5,0.1,0.8,0.4,1.1c0.3,0.2,0.6,0.3,1,0.2
			c0.4-0.1,0.8-0.3,1-0.6c0.3-0.3,0.4-0.7,0.4-1.2c0-0.5-0.1-0.8-0.4-1.1C277.3,185.6,276.9,185.5,276.5,185.6z"/>
		<path class="st3" d="M264.2,187.8c-0.5,0.1-0.8,0.3-1.1,0.7c-0.3,0.4-0.4,0.8-0.4,1.3c0,0.5,0.1,0.9,0.4,1.1
			c0.3,0.3,0.7,0.3,1.1,0.3c0.5-0.1,0.8-0.3,1.1-0.7c0.3-0.4,0.4-0.8,0.4-1.3c0-0.5-0.1-0.9-0.4-1.1
			C265,187.8,264.6,187.8,264.2,187.8z"/>
		<path class="st3" d="M318.7,177.9c-0.4,0.1-0.7,0.2-1,0.5c-0.3,0.3-0.4,0.6-0.5,1.1l2.9-0.5c0-0.4-0.1-0.7-0.4-0.9
			C319.4,177.9,319.1,177.9,318.7,177.9z"/>
		<path class="st3" d="M269.3,189.1c-0.2,0.1-0.3,0.3-0.3,0.6c0,0.2,0.1,0.4,0.3,0.5c0.2,0.1,0.4,0.1,0.7,0.1c0.4-0.1,0.7-0.2,1-0.4
			c0.3-0.2,0.4-0.5,0.5-0.8v-0.5l-1.4,0.2C269.7,188.8,269.5,188.9,269.3,189.1z"/>
		<path class="st3" d="M337.6,174.6c-0.5,0.1-0.8,0.3-1.1,0.7c-0.3,0.4-0.4,0.8-0.4,1.3s0.1,0.9,0.4,1.1c0.3,0.3,0.7,0.3,1.1,0.3
			c0.5-0.1,0.8-0.3,1.1-0.7s0.4-0.8,0.4-1.3c0-0.5-0.1-0.9-0.4-1.1S338.1,174.5,337.6,174.6z"/>
		<path class="st3" d="M354.4,155.3l-93.3,16.8c-3.6,0.6-6.5,4.1-6.5,7.7v21.2c0,3.6,2.9,6,6.5,5.3l80.7-14.6c1.5-0.3,3,0,4.1,0.7
			l9.8,6.3c2,1.3,5.1-0.7,5.1-3.3v-7.2v-27.7C360.9,157,357.9,154.6,354.4,155.3z M266.8,190.5c-0.2,0.5-0.5,0.8-0.9,1.1
			c-0.4,0.3-0.8,0.5-1.4,0.6c-0.4,0.1-0.8,0.1-1.1,0c-0.3-0.1-0.6-0.3-0.8-0.6v2.9l-1.3,0.2v-7.5l1.3-0.2v0.9
			c0.2-0.3,0.5-0.6,0.8-0.8s0.7-0.4,1.1-0.4c0.5-0.1,1-0.1,1.4,0.1c0.4,0.2,0.7,0.4,0.9,0.8c0.2,0.4,0.3,0.9,0.3,1.4
			C267.1,189.6,267,190.1,266.8,190.5z M271.5,190.9v-0.7c-0.2,0.3-0.4,0.5-0.7,0.7c-0.3,0.2-0.6,0.3-1,0.4c-0.4,0.1-0.7,0.1-1,0
			c-0.3-0.1-0.5-0.3-0.7-0.5c-0.2-0.2-0.2-0.5-0.2-0.8c0-0.5,0.2-0.9,0.5-1.3c0.4-0.4,0.9-0.6,1.5-0.7l1.6-0.3v-0.1
			c0-0.3-0.1-0.6-0.3-0.7c-0.2-0.1-0.5-0.2-0.9-0.1c-0.5,0.1-1.1,0.4-1.6,0.8l-0.5-0.8c0.4-0.3,0.8-0.6,1.2-0.7
			c0.4-0.2,0.8-0.3,1.2-0.4c0.7-0.1,1.3-0.1,1.7,0.2c0.4,0.3,0.6,0.7,0.6,1.3l0,3.6L271.5,190.9z M279.3,189c0,0.5-0.1,1-0.4,1.4
			s-0.6,0.8-1,1.1c-0.4,0.3-0.9,0.5-1.5,0.6c-0.8,0.1-1.6,0-2.3-0.3l0.5-1.1c0.5,0.3,1.1,0.4,1.7,0.3c0.5-0.1,0.9-0.3,1.2-0.6
			c0.3-0.3,0.4-0.7,0.4-1.1v-0.6c-0.2,0.3-0.4,0.6-0.7,0.8c-0.3,0.2-0.6,0.3-1,0.4c-0.5,0.1-0.9,0.1-1.3-0.1
			c-0.4-0.2-0.7-0.4-0.9-0.8c-0.2-0.4-0.3-0.8-0.3-1.3c0-0.5,0.1-1,0.3-1.4s0.5-0.8,0.9-1.1c0.4-0.3,0.8-0.5,1.3-0.6
			c0.4-0.1,0.7-0.1,1,0c0.3,0.1,0.5,0.3,0.7,0.5v-0.8l1.3-0.2V189z M285.7,187.1c-0.2,0.5-0.6,0.9-1,1.2c-0.4,0.3-0.9,0.5-1.5,0.6
			c-0.6,0.1-1.1,0.1-1.5-0.1c-0.4-0.2-0.8-0.4-1-0.8c-0.2-0.4-0.4-0.8-0.4-1.4c0-0.5,0.1-1,0.4-1.5c0.2-0.5,0.6-0.8,1-1.2
			c0.4-0.3,0.9-0.5,1.5-0.6c0.6-0.1,1.1-0.1,1.5,0.1s0.8,0.4,1,0.8c0.2,0.4,0.4,0.8,0.4,1.4C286.1,186.1,286,186.6,285.7,187.1z
			 M290.4,187.1c-0.4,0.4-0.9,0.6-1.5,0.7c-0.4,0.1-0.8,0.1-1.2,0c-0.4-0.1-0.7-0.2-1-0.4l0.5-1c0.2,0.2,0.5,0.3,0.9,0.3
			s0.7,0.1,1,0c0.2,0,0.4-0.1,0.6-0.2c0.1-0.1,0.2-0.3,0.2-0.4c0-0.2-0.1-0.3-0.3-0.4c-0.2-0.1-0.4-0.1-0.8-0.2
			c-0.4,0-0.7-0.1-0.9-0.2c-0.2-0.1-0.4-0.2-0.6-0.4c-0.2-0.2-0.3-0.5-0.3-0.8c0-0.5,0.2-1,0.6-1.3c0.4-0.4,0.9-0.6,1.5-0.7
			c0.4-0.1,0.7-0.1,1.1,0s0.7,0.1,0.9,0.3l-0.5,1c-0.3-0.1-0.5-0.2-0.8-0.2c-0.3,0-0.5,0-0.8,0c-0.2,0-0.4,0.1-0.5,0.2
			c-0.1,0.1-0.2,0.2-0.2,0.4c0,0.2,0.1,0.3,0.3,0.3c0.2,0.1,0.4,0.1,0.8,0.1c0.4,0,0.7,0.1,0.9,0.2s0.5,0.2,0.6,0.4
			c0.2,0.2,0.3,0.5,0.3,0.8C291,186.3,290.8,186.8,290.4,187.1z M293.6,186.9l-1.3,0.2v-7.6l1.3-0.2V186.9z M300.2,184.5
			c-0.2,0.5-0.6,0.9-1,1.2c-0.4,0.3-0.9,0.5-1.5,0.6c-0.6,0.1-1.1,0.1-1.5-0.1c-0.4-0.2-0.8-0.4-1-0.8s-0.4-0.8-0.4-1.4
			c0-0.5,0.1-1,0.4-1.5c0.2-0.5,0.6-0.9,1-1.2c0.4-0.3,0.9-0.5,1.5-0.6c0.6-0.1,1.1-0.1,1.5,0.1c0.4,0.2,0.8,0.4,1,0.8
			c0.2,0.4,0.4,0.8,0.4,1.4C300.5,183.5,300.4,184,300.2,184.5z M305.3,184.6c-0.4,0.3-0.9,0.4-1.4,0.5c-0.5,0.1-1,0.1-1.4-0.1
			c-0.4-0.2-0.7-0.4-1-0.8c-0.2-0.4-0.3-0.8-0.3-1.4c0-0.6,0.1-1.1,0.4-1.5c0.2-0.5,0.6-0.9,1-1.2c0.4-0.3,0.9-0.5,1.4-0.6
			c0.5-0.1,0.9-0.1,1.3,0c0.4,0.1,0.7,0.3,1,0.6l-0.8,0.9c-0.4-0.3-0.8-0.5-1.4-0.3c-0.4,0.1-0.8,0.3-1.1,0.6
			c-0.3,0.3-0.4,0.8-0.4,1.2c0,0.5,0.1,0.9,0.4,1.1c0.3,0.2,0.6,0.3,1.1,0.3c0.7-0.1,1.1-0.4,1.5-0.9l0.8,0.5
			C306.1,184,305.7,184.3,305.3,184.6z M310.5,183.9v-0.7c-0.2,0.3-0.4,0.5-0.7,0.7c-0.3,0.2-0.6,0.3-1,0.4c-0.4,0.1-0.7,0.1-1,0
			c-0.3-0.1-0.5-0.3-0.7-0.5c-0.2-0.2-0.2-0.5-0.2-0.8c0-0.5,0.2-0.9,0.5-1.3c0.4-0.4,0.9-0.6,1.5-0.7l1.6-0.3v-0.1
			c0-0.3-0.1-0.6-0.3-0.7c-0.2-0.1-0.5-0.2-0.9-0.1c-0.5,0.1-1.1,0.4-1.6,0.8l-0.5-0.8c0.4-0.3,0.8-0.6,1.2-0.7
			c0.4-0.2,0.8-0.3,1.2-0.4c0.7-0.1,1.3-0.1,1.7,0.2c0.4,0.3,0.6,0.7,0.6,1.3l0,3.6L310.5,183.9z M314.7,183.1l-1.3,0.2v-7.6
			l1.3-0.2V183.1z M321.3,179.7l-4,0.7c0.1,0.4,0.3,0.6,0.5,0.8c0.3,0.2,0.6,0.2,1,0.1c0.3-0.1,0.5-0.2,0.8-0.3
			c0.3-0.2,0.5-0.3,0.7-0.6l0.7,0.6c-0.3,0.3-0.6,0.6-1,0.9s-0.8,0.4-1.3,0.5c-0.6,0.1-1.1,0.1-1.5-0.1c-0.4-0.2-0.8-0.4-1-0.8
			c-0.2-0.4-0.3-0.8-0.3-1.4c0-0.5,0.1-1.1,0.4-1.5c0.2-0.5,0.6-0.9,1-1.2c0.4-0.3,0.9-0.5,1.4-0.6c0.9-0.2,1.5,0,2,0.4
			c0.4,0.4,0.7,1.1,0.7,2C321.3,179.4,321.3,179.6,321.3,179.7z M325.6,180.8c-0.4,0.4-0.9,0.6-1.5,0.7c-0.4,0.1-0.8,0.1-1.2,0
			c-0.4-0.1-0.7-0.2-1-0.4l0.5-1c0.2,0.2,0.5,0.3,0.9,0.3c0.3,0.1,0.7,0.1,1,0c0.2,0,0.4-0.1,0.6-0.2c0.1-0.1,0.2-0.3,0.2-0.4
			c0-0.2-0.1-0.3-0.3-0.4c-0.2-0.1-0.4-0.1-0.8-0.2c-0.4,0-0.7-0.1-0.9-0.2c-0.2-0.1-0.4-0.2-0.6-0.4c-0.2-0.2-0.3-0.5-0.3-0.8
			c0-0.5,0.2-1,0.6-1.3c0.4-0.4,0.9-0.6,1.5-0.7c0.4-0.1,0.7-0.1,1.1,0c0.4,0,0.7,0.1,0.9,0.3l-0.5,1c-0.3-0.1-0.5-0.2-0.8-0.2
			c-0.3,0-0.5,0-0.8,0c-0.2,0-0.4,0.1-0.5,0.2c-0.1,0.1-0.2,0.2-0.2,0.4c0,0.2,0.1,0.3,0.3,0.3c0.2,0.1,0.4,0.1,0.8,0.1
			c0.4,0,0.7,0.1,0.9,0.2c0.2,0.1,0.5,0.2,0.6,0.4c0.2,0.2,0.3,0.5,0.3,0.8C326.2,180,326,180.4,325.6,180.8z M328.2,180.6
			c-0.1,0.2-0.3,0.3-0.5,0.3c-0.2,0-0.4,0-0.5-0.1c-0.1-0.1-0.2-0.3-0.2-0.5s0.1-0.4,0.2-0.6c0.1-0.2,0.3-0.3,0.5-0.3
			c0.2,0,0.4,0,0.5,0.1s0.2,0.3,0.2,0.5C328.4,180.2,328.3,180.4,328.2,180.6z M333.3,179.5c-0.4,0.3-0.9,0.4-1.4,0.5
			c-0.5,0.1-1,0.1-1.4-0.1c-0.4-0.2-0.7-0.4-1-0.8c-0.2-0.4-0.3-0.8-0.3-1.4c0-0.6,0.1-1.1,0.4-1.5c0.2-0.5,0.6-0.9,1-1.2
			s0.9-0.5,1.4-0.6c0.5-0.1,0.9-0.1,1.3,0c0.4,0.1,0.7,0.3,1,0.6l-0.8,0.9c-0.4-0.3-0.8-0.5-1.4-0.3c-0.4,0.1-0.8,0.3-1.1,0.6
			c-0.3,0.3-0.4,0.8-0.4,1.2c0,0.5,0.1,0.9,0.4,1.1c0.3,0.2,0.6,0.3,1.1,0.3c0.7-0.1,1.1-0.4,1.5-0.9l0.8,0.5
			C334,178.9,333.7,179.3,333.3,179.5z M340.1,177.3c-0.2,0.5-0.6,0.9-1,1.2c-0.4,0.3-0.9,0.5-1.5,0.6c-0.6,0.1-1.1,0.1-1.5-0.1
			c-0.4-0.2-0.8-0.4-1-0.8c-0.2-0.4-0.4-0.8-0.4-1.4c0-0.5,0.1-1,0.4-1.5s0.6-0.8,1-1.2c0.4-0.3,0.9-0.5,1.5-0.6
			c0.6-0.1,1.1-0.1,1.5,0.1s0.8,0.4,1,0.8c0.2,0.4,0.4,0.8,0.4,1.4C340.5,176.3,340.4,176.8,340.1,177.3z M350.8,176.6l-1.3,0.2v-3
			c0-0.4-0.1-0.7-0.3-0.9c-0.2-0.2-0.5-0.2-0.9-0.2c-0.4,0.1-0.8,0.3-1,0.6s-0.4,0.7-0.4,1.2v2.7l-1.3,0.2v-3c0-0.4-0.1-0.7-0.3-0.9
			c-0.2-0.2-0.5-0.2-0.9-0.2c-0.4,0.1-0.8,0.3-1,0.6c-0.2,0.3-0.4,0.7-0.4,1.2v2.7l-1.3,0.2v-5.5l1.3-0.2v1c0.4-0.8,1-1.2,1.9-1.4
			c0.5-0.1,0.9,0,1.2,0.1s0.6,0.5,0.7,0.8c0.3-0.9,1-1.5,2-1.7c0.6-0.1,1.1,0,1.5,0.3s0.5,0.8,0.5,1.4V176.6z"/>
	</g>
</g>
</svg>
