<?xml version="1.0" encoding="utf-8"?>
<!-- Generator: Adobe Illustrator 24.0.2, SVG Export Plug-In . SVG Version: 6.00 Build 0)  -->
<svg version="1.1" id="Capa_1" xmlns="http://www.w3.org/2000/svg" xmlns:xlink="http://www.w3.org/1999/xlink" x="0px" y="0px"
	 viewBox="0 0 349.9 217.1" style="enable-background:new 0 0 349.9 217.1;" xml:space="preserve">
<style type="text/css">
	.st0{opacity:0.6;}
	.st1{fill:#FF3ED7;}
	.st2{opacity:0.2;}
	.st3{clip-path:url(#SVGID_2_);fill:#002E78;}
	.st4{clip-path:url(#SVGID_2_);fill:#002E79;}
	.st5{clip-path:url(#SVGID_2_);fill:#002E7A;}
	.st6{clip-path:url(#SVGID_2_);fill:#002E7B;}
	.st7{clip-path:url(#SVGID_2_);fill:#012F7C;}
	.st8{clip-path:url(#SVGID_2_);fill:#012F7D;}
	.st9{clip-path:url(#SVGID_2_);fill:#012F7E;}
	.st10{clip-path:url(#SVGID_2_);fill:#012F7F;}
	.st11{clip-path:url(#SVGID_2_);fill:#012F80;}
	.st12{clip-path:url(#SVGID_2_);fill:#012F81;}
	.st13{clip-path:url(#SVGID_2_);fill:#012F82;}
	.st14{clip-path:url(#SVGID_2_);fill:#023083;}
	.st15{clip-path:url(#SVGID_2_);fill:#023084;}
	.st16{clip-path:url(#SVGID_2_);fill:#023085;}
	.st17{clip-path:url(#SVGID_2_);fill:#023086;}
	.st18{clip-path:url(#SVGID_2_);fill:#023087;}
	.st19{clip-path:url(#SVGID_2_);fill:#023088;}
	.st20{clip-path:url(#SVGID_2_);fill:#023089;}
	.st21{clip-path:url(#SVGID_2_);fill:#03318A;}
	.st22{clip-path:url(#SVGID_2_);fill:#03318B;}
	.st23{clip-path:url(#SVGID_2_);fill:#03318C;}
	.st24{clip-path:url(#SVGID_2_);fill:#03318D;}
	.st25{clip-path:url(#SVGID_2_);fill:#03318E;}
	.st26{clip-path:url(#SVGID_2_);fill:#03318F;}
	.st27{clip-path:url(#SVGID_2_);fill:#033190;}
	.st28{clip-path:url(#SVGID_2_);fill:#043291;}
	.st29{clip-path:url(#SVGID_2_);fill:#043292;}
	.st30{clip-path:url(#SVGID_2_);fill:#043293;}
	.st31{clip-path:url(#SVGID_2_);fill:#043294;}
	.st32{clip-path:url(#SVGID_2_);fill:#043295;}
	.st33{clip-path:url(#SVGID_2_);fill:#043296;}
	.st34{clip-path:url(#SVGID_2_);fill:#043297;}
	.st35{clip-path:url(#SVGID_2_);fill:#053398;}
	.st36{clip-path:url(#SVGID_2_);fill:#053399;}
	.st37{clip-path:url(#SVGID_2_);fill:#05339A;}
	.st38{clip-path:url(#SVGID_2_);fill:#05339B;}
	.st39{clip-path:url(#SVGID_2_);fill:#05339C;}
	.st40{clip-path:url(#SVGID_2_);fill:#05339D;}
	.st41{clip-path:url(#SVGID_2_);fill:#06349F;}
	.st42{clip-path:url(#SVGID_2_);fill:#0634A0;}
	.st43{clip-path:url(#SVGID_2_);fill:#0634A1;}
	.st44{clip-path:url(#SVGID_2_);fill:#0634A2;}
	.st45{clip-path:url(#SVGID_2_);fill:#0634A3;}
	.st46{clip-path:url(#SVGID_2_);fill:#0634A4;}
	.st47{clip-path:url(#SVGID_2_);fill:#0634A5;}
	.st48{clip-path:url(#SVGID_2_);fill:#0735A6;}
	.st49{clip-path:url(#SVGID_2_);fill:#0735A7;}
	.st50{clip-path:url(#SVGID_2_);fill:#0735A8;}
	.st51{clip-path:url(#SVGID_2_);fill:#0735A9;}
	.st52{clip-path:url(#SVGID_2_);fill:#0735AA;}
	.st53{clip-path:url(#SVGID_2_);fill:#0735AB;}
	.st54{clip-path:url(#SVGID_2_);fill:#0735AC;}
	.st55{clip-path:url(#SVGID_2_);fill:#0836AD;}
	.st56{clip-path:url(#SVGID_2_);fill:#0836AE;}
	.st57{clip-path:url(#SVGID_2_);fill:#0836AF;}
	.st58{clip-path:url(#SVGID_2_);fill:#0836B0;}
	.st59{clip-path:url(#SVGID_2_);fill:#0836B1;}
	.st60{clip-path:url(#SVGID_2_);fill:#0836B2;}
	.st61{clip-path:url(#SVGID_2_);fill:#0836B3;}
	.st62{clip-path:url(#SVGID_2_);fill:#0937B4;}
	.st63{clip-path:url(#SVGID_2_);fill:#0937B5;}
	.st64{clip-path:url(#SVGID_2_);fill:#0937B6;}
	.st65{clip-path:url(#SVGID_2_);fill:#0937B7;}
	.st66{clip-path:url(#SVGID_2_);fill:#0937B8;}
	.st67{clip-path:url(#SVGID_2_);fill:#0937B9;}
	.st68{clip-path:url(#SVGID_2_);fill:#0937BA;}
	.st69{clip-path:url(#SVGID_2_);fill:#0A38BB;}
	.st70{clip-path:url(#SVGID_2_);fill:#0A38BC;}
	.st71{clip-path:url(#SVGID_2_);fill:#0A38BD;}
	.st72{clip-path:url(#SVGID_2_);fill:#0A38BE;}
	.st73{clip-path:url(#SVGID_2_);fill:#0A38BF;}
	.st74{clip-path:url(#SVGID_2_);fill:#0A38C0;}
	.st75{clip-path:url(#SVGID_2_);fill:#0A38C1;}
	.st76{clip-path:url(#SVGID_2_);fill:#0B39C2;}
	.st77{clip-path:url(#SVGID_2_);fill:#0B39C3;}
	.st78{clip-path:url(#SVGID_2_);fill:#0B39C4;}
	.st79{clip-path:url(#SVGID_2_);fill:#0B39C5;}
	.st80{fill:#FF98FF;}
	.st81{clip-path:url(#SVGID_4_);fill:#002E78;}
	.st82{clip-path:url(#SVGID_4_);fill:#002E79;}
	.st83{clip-path:url(#SVGID_4_);fill:#002E7A;}
	.st84{clip-path:url(#SVGID_4_);fill:#002E7B;}
	.st85{clip-path:url(#SVGID_4_);fill:#012F7C;}
	.st86{clip-path:url(#SVGID_4_);fill:#012F7D;}
	.st87{clip-path:url(#SVGID_4_);fill:#012F7E;}
	.st88{clip-path:url(#SVGID_4_);fill:#012F7F;}
	.st89{clip-path:url(#SVGID_4_);fill:#012F80;}
	.st90{clip-path:url(#SVGID_4_);fill:#012F81;}
	.st91{clip-path:url(#SVGID_4_);fill:#012F82;}
	.st92{clip-path:url(#SVGID_4_);fill:#023083;}
	.st93{clip-path:url(#SVGID_4_);fill:#023084;}
	.st94{clip-path:url(#SVGID_4_);fill:#023085;}
	.st95{clip-path:url(#SVGID_4_);fill:#023086;}
	.st96{clip-path:url(#SVGID_4_);fill:#023087;}
	.st97{clip-path:url(#SVGID_4_);fill:#023088;}
	.st98{clip-path:url(#SVGID_4_);fill:#023089;}
	.st99{clip-path:url(#SVGID_4_);fill:#03318A;}
	.st100{clip-path:url(#SVGID_4_);fill:#03318B;}
	.st101{clip-path:url(#SVGID_4_);fill:#03318C;}
	.st102{clip-path:url(#SVGID_4_);fill:#03318D;}
	.st103{clip-path:url(#SVGID_4_);fill:#03318E;}
	.st104{clip-path:url(#SVGID_4_);fill:#03318F;}
	.st105{clip-path:url(#SVGID_4_);fill:#033190;}
	.st106{clip-path:url(#SVGID_4_);fill:#043291;}
	.st107{clip-path:url(#SVGID_4_);fill:#043292;}
	.st108{clip-path:url(#SVGID_4_);fill:#043293;}
	.st109{clip-path:url(#SVGID_4_);fill:#043294;}
	.st110{clip-path:url(#SVGID_4_);fill:#043295;}
	.st111{clip-path:url(#SVGID_4_);fill:#043296;}
	.st112{clip-path:url(#SVGID_4_);fill:#043297;}
	.st113{clip-path:url(#SVGID_4_);fill:#053398;}
	.st114{clip-path:url(#SVGID_4_);fill:#053399;}
	.st115{clip-path:url(#SVGID_4_);fill:#05339A;}
	.st116{clip-path:url(#SVGID_4_);fill:#05339B;}
	.st117{clip-path:url(#SVGID_4_);fill:#05339C;}
	.st118{clip-path:url(#SVGID_4_);fill:#05339D;}
	.st119{clip-path:url(#SVGID_4_);fill:#06349F;}
	.st120{clip-path:url(#SVGID_4_);fill:#0634A0;}
	.st121{clip-path:url(#SVGID_4_);fill:#0634A1;}
	.st122{clip-path:url(#SVGID_4_);fill:#0634A2;}
	.st123{clip-path:url(#SVGID_4_);fill:#0634A3;}
	.st124{clip-path:url(#SVGID_4_);fill:#0634A4;}
	.st125{clip-path:url(#SVGID_4_);fill:#0634A5;}
	.st126{clip-path:url(#SVGID_4_);fill:#0735A6;}
	.st127{clip-path:url(#SVGID_4_);fill:#0735A7;}
	.st128{clip-path:url(#SVGID_4_);fill:#0735A8;}
	.st129{clip-path:url(#SVGID_4_);fill:#0735A9;}
	.st130{clip-path:url(#SVGID_4_);fill:#0735AA;}
	.st131{clip-path:url(#SVGID_4_);fill:#0735AB;}
	.st132{clip-path:url(#SVGID_4_);fill:#0735AC;}
	.st133{clip-path:url(#SVGID_4_);fill:#0836AD;}
	.st134{clip-path:url(#SVGID_4_);fill:#0836AE;}
	.st135{clip-path:url(#SVGID_4_);fill:#0836AF;}
	.st136{clip-path:url(#SVGID_4_);fill:#0836B0;}
	.st137{clip-path:url(#SVGID_4_);fill:#0836B1;}
	.st138{clip-path:url(#SVGID_4_);fill:#0836B2;}
	.st139{clip-path:url(#SVGID_4_);fill:#0836B3;}
	.st140{clip-path:url(#SVGID_4_);fill:#0937B4;}
	.st141{clip-path:url(#SVGID_4_);fill:#0937B5;}
	.st142{clip-path:url(#SVGID_4_);fill:#0937B6;}
	.st143{clip-path:url(#SVGID_4_);fill:#0937B7;}
	.st144{clip-path:url(#SVGID_4_);fill:#0937B8;}
	.st145{clip-path:url(#SVGID_4_);fill:#0937B9;}
	.st146{clip-path:url(#SVGID_4_);fill:#0937BA;}
	.st147{clip-path:url(#SVGID_4_);fill:#0A38BB;}
	.st148{clip-path:url(#SVGID_4_);fill:#0A38BC;}
	.st149{clip-path:url(#SVGID_4_);fill:#0A38BD;}
	.st150{clip-path:url(#SVGID_4_);fill:#0A38BE;}
	.st151{clip-path:url(#SVGID_4_);fill:#0A38BF;}
	.st152{clip-path:url(#SVGID_4_);fill:#0A38C0;}
	.st153{clip-path:url(#SVGID_4_);fill:#0A38C1;}
	.st154{clip-path:url(#SVGID_4_);fill:#0B39C2;}
	.st155{clip-path:url(#SVGID_4_);fill:#0B39C3;}
	.st156{clip-path:url(#SVGID_4_);fill:#0B39C4;}
	.st157{clip-path:url(#SVGID_4_);fill:#0B39C5;}
	.st158{fill:#FF40D7;}
	.st159{fill:#3F0175;}
	.st160{fill:#FFFFFF;}
</style>
<g class="st0">
	<path class="st1" d="M32.7,181.6c-1.1,0-2.2-0.2-3.3-0.6c-3.1-1.3-5-4.2-5-7.7v-6.7c0-1.7,1.3-3,3-3s3,1.3,3,3v6.7
		c0,1.1,0.4,1.8,1.3,2.2c1,0.4,2.6,0.3,4.2-1.3l12.9-13.1c1.2-1.2,2.6-2.2,4.3-2.8c0.7-0.3,1.5-0.5,2.2-0.6l122-21.8
		c1.6-0.3,3.2,0.8,3.5,2.4c0.3,1.6-0.8,3.2-2.4,3.5l-122,21.8c-0.4,0.1-0.8,0.2-1.1,0.3c-0.8,0.3-1.5,0.8-2.1,1.4l-12.9,13.1
		C38,180.4,35.3,181.6,32.7,181.6z"/>
</g>
<g class="st2">
	<path class="st1" d="M58,165.4c-1.4,0-2.7-1-2.9-2.5c-0.3-1.6,0.8-3.2,2.4-3.5l122.8-21.9c1.6-0.3,3.2,0.8,3.5,2.4
		c0.3,1.6-0.8,3.2-2.4,3.5L58.5,165.4C58.4,165.4,58.2,165.4,58,165.4z"/>
</g>
<g>
	<g>
		<defs>
			<line id="SVGID_1_" x1="56.7" y1="161.6" x2="179.5" y2="139.7"/>
		</defs>
		<clipPath id="SVGID_2_">
			<use xlink:href="#SVGID_1_"  style="overflow:visible;"/>
		</clipPath>
		<rect x="56.7" y="139.7" class="st3" width="122.8" height="21.9"/>
		<path class="st3" d="M160.9,150.7c0,5.9-1.2,11.5-3.4,16.6v-4.7H78.8v4.7c-2.2-5.1-3.4-10.7-3.4-16.6c0-5.9,1.2-11.5,3.4-16.6v4.7
			h78.8V134C159.7,139.2,160.9,144.8,160.9,150.7z"/>
		<path class="st4" d="M160.5,150.7c0,5.8-1.2,11.4-3.3,16.5v-4.5H79.1v4.5c-2.1-5.1-3.3-10.6-3.3-16.5c0-5.8,1.2-11.4,3.3-16.5v4.5
			h78.1v-4.5C159.3,139.3,160.5,144.8,160.5,150.7z"/>
		<path class="st5" d="M160.1,150.7c0,5.8-1.2,11.3-3.3,16.3v-4.4H79.5v4.4c-2.1-5-3.3-10.5-3.3-16.3c0-5.8,1.2-11.3,3.3-16.3v4.4
			h77.3v-4.4C158.9,139.4,160.1,144.9,160.1,150.7z"/>
		<path class="st6" d="M159.7,150.7c0,5.7-1.2,11.2-3.3,16.2v-4.2H79.8v4.2c-2.1-5-3.3-10.4-3.3-16.2s1.2-11.2,3.3-16.2v4.2h76.6
			v-4.2C158.6,139.5,159.7,144.9,159.7,150.7z"/>
		<path class="st7" d="M159.3,150.7c0,5.7-1.2,11.1-3.2,16v-4.1H80.2v4.1c-2.1-4.9-3.2-10.4-3.2-16s1.2-11.1,3.2-16v4.1h75.9v-4.1
			C158.2,139.6,159.3,145,159.3,150.7z"/>
		<path class="st8" d="M159,150.7c0,5.6-1.1,11-3.2,15.9v-3.9H80.5v3.9c-2.1-4.9-3.2-10.3-3.2-15.9s1.1-11,3.2-15.9v3.9h75.2v-3.9
			C157.8,139.7,159,145,159,150.7z"/>
		<path class="st9" d="M158.6,150.7c0,5.6-1.1,10.9-3.2,15.7v-3.8H80.9v3.8c-2-4.8-3.2-10.2-3.2-15.7s1.1-10.9,3.2-15.7v3.8h74.5
			v-3.8C157.4,139.8,158.6,145.1,158.6,150.7z"/>
		<path class="st10" d="M158.2,150.7c0,5.5-1.1,10.8-3.1,15.6v-3.6H81.2v3.6c-2-4.8-3.1-10.1-3.1-15.6s1.1-10.8,3.1-15.6v3.6H155
			v-3.6C157.1,139.9,158.2,145.1,158.2,150.7z"/>
		<path class="st11" d="M157.8,150.7c0,5.5-1.1,10.7-3.1,15.4v-3.5H81.6v3.5c-2-4.7-3.1-10-3.1-15.4s1.1-10.7,3.1-15.4v3.5h73.1
			v-3.5C156.7,140,157.8,145.2,157.8,150.7z"/>
		<path class="st12" d="M157.4,150.7c0,5.4-1.1,10.6-3.1,15.3v-3.3H81.9v3.3c-2-4.7-3.1-9.9-3.1-15.3c0-5.4,1.1-10.6,3.1-15.3v3.3
			h72.4v-3.3C156.3,140.1,157.4,145.3,157.4,150.7z"/>
		<path class="st13" d="M157,150.7c0,5.4-1.1,10.5-3.1,15.1v-3.2H82.3v3.2c-2-4.7-3.1-9.8-3.1-15.1c0-5.4,1.1-10.5,3.1-15.1v3.2H154
			v-3.2C156,140.2,157,145.3,157,150.7z"/>
		<path class="st14" d="M156.7,150.7c0,5.3-1.1,10.4-3,15v-3h-71v3c-1.9-4.6-3-9.7-3-15c0-5.3,1.1-10.4,3-15v3h71v-3
			C155.6,140.3,156.7,145.4,156.7,150.7z"/>
		<path class="st15" d="M156.3,150.7c0,5.3-1.1,10.3-3,14.9v-2.9H83v2.9c-1.9-4.6-3-9.6-3-14.9c0-5.3,1.1-10.3,3-14.9v2.9h70.3v-2.9
			C155.2,140.4,156.3,145.4,156.3,150.7z"/>
		<path class="st16" d="M155.9,150.7c0,5.2-1.1,10.2-3,14.7v-2.7H83.3v2.7c-1.9-4.5-3-9.5-3-14.7c0-5.2,1.1-10.2,3-14.7v2.7h69.6
			V136C154.8,140.5,155.9,145.5,155.9,150.7z"/>
		<path class="st17" d="M155.5,150.7c0,5.2-1,10.1-2.9,14.6v-2.6H83.7v2.6c-1.9-4.5-2.9-9.4-2.9-14.6s1-10.1,2.9-14.6v2.6h68.9v-2.6
			C154.5,140.6,155.5,145.5,155.5,150.7z"/>
		<path class="st18" d="M155.1,150.7c0,5.1-1,10-2.9,14.4v-2.4H84v2.4c-1.9-4.4-2.9-9.3-2.9-14.4s1-10,2.9-14.4v2.4h68.2v-2.4
			C154.1,140.7,155.1,145.6,155.1,150.7z"/>
		<path class="st19" d="M154.8,150.7c0,5.1-1,9.9-2.9,14.3v-2.3H84.4v2.3c-1.9-4.4-2.9-9.2-2.9-14.3s1-9.9,2.9-14.3v2.3h67.5v-2.3
			C153.7,140.8,154.8,145.6,154.8,150.7z"/>
		<path class="st20" d="M154.4,150.7c0,5-1,9.8-2.8,14.1v-2.1H84.7v2.1c-1.8-4.3-2.8-9.1-2.8-14.1s1-9.8,2.8-14.1v2.1h66.8v-2.1
			C153.4,140.9,154.4,145.7,154.4,150.7z"/>
		<path class="st21" d="M154,150.7c0,5-1,9.7-2.8,14v-2H85.1v2c-1.8-4.3-2.8-9-2.8-14s1-9.7,2.8-14v2h66.1v-2
			C153,141,154,145.7,154,150.7z"/>
		<path class="st22" d="M153.6,150.7c0,4.9-1,9.6-2.8,13.8v-1.8H85.4v1.8c-1.8-4.2-2.8-8.9-2.8-13.8s1-9.6,2.8-13.8v1.8h65.4v-1.8
			C152.6,141.1,153.6,145.8,153.6,150.7z"/>
		<path class="st23" d="M153.2,150.7c0,4.8-1,9.5-2.8,13.7v-1.7H85.8v1.7c-1.8-4.2-2.8-8.8-2.8-13.7c0-4.8,1-9.5,2.8-13.7v1.7h64.7
			V137C152.2,141.2,153.2,145.8,153.2,150.7z"/>
		<path class="st24" d="M152.8,150.7c0,4.8-1,9.4-2.7,13.5v-1.5h-64v1.5c-1.8-4.2-2.7-8.7-2.7-13.5c0-4.8,1-9.4,2.7-13.5v1.5h64
			v-1.5C151.9,141.3,152.8,145.9,152.8,150.7z"/>
		<path class="st25" d="M152.5,150.7c0,4.7-1,9.3-2.7,13.4v-1.4H86.5v1.4c-1.7-4.1-2.7-8.6-2.7-13.4c0-4.7,1-9.3,2.7-13.4v1.4h63.3
			v-1.4C151.5,141.4,152.5,145.9,152.5,150.7z"/>
		<path class="st26" d="M152.1,150.7c0,4.7-1,9.2-2.7,13.2v-1.2H86.8v1.2c-1.7-4.1-2.7-8.5-2.7-13.2c0-4.7,1-9.2,2.7-13.2v1.2h62.6
			v-1.2C151.1,141.5,152.1,146,152.1,150.7z"/>
		<path class="st27" d="M151.7,150.7c0,4.6-0.9,9.1-2.6,13.1v-1.1H87.2v1.1c-1.7-4-2.6-8.4-2.6-13.1s0.9-9.1,2.6-13.1v1.1h61.9v-1.1
			C150.8,141.6,151.7,146,151.7,150.7z"/>
		<path class="st28" d="M151.3,150.7c0,4.6-0.9,8.9-2.6,12.9v-0.9H87.6v0.9c-1.7-4-2.6-8.3-2.6-12.9s0.9-8.9,2.6-12.9v0.9h61.2v-0.9
			C150.4,141.7,151.3,146.1,151.3,150.7z"/>
		<path class="st29" d="M150.9,150.7c0,4.5-0.9,8.8-2.6,12.8v-0.8H87.9v0.8c-1.7-3.9-2.6-8.2-2.6-12.8s0.9-8.8,2.6-12.8v0.8h60.5
			v-0.8C150,141.8,150.9,146.1,150.9,150.7z"/>
		<path class="st30" d="M150.6,150.7c0,4.5-0.9,8.7-2.5,12.6v-0.7H88.3v0.7c-1.6-3.9-2.5-8.1-2.5-12.6s0.9-8.7,2.5-12.6v0.7H148
			v-0.7C149.6,141.9,150.6,146.2,150.6,150.7z"/>
		<path class="st31" d="M150.2,150.7c0,4.4-0.9,8.6-2.5,12.5v-0.5h-59v0.5c-1.6-3.8-2.5-8-2.5-12.5s0.9-8.6,2.5-12.5v0.5h59v-0.5
			C149.3,142,150.2,146.3,150.2,150.7z"/>
		<path class="st32" d="M149.8,150.7c0,4.4-0.9,8.5-2.5,12.3v-0.4H89v0.4c-1.6-3.8-2.5-8-2.5-12.3s0.9-8.5,2.5-12.3v0.4h58.3v-0.4
			C148.9,142.1,149.8,146.3,149.8,150.7z"/>
		<path class="st33" d="M149.4,150.7c0,4.3-0.9,8.4-2.5,12.2v-0.2H89.3v0.2c-1.6-3.7-2.5-7.9-2.5-12.2c0-4.3,0.9-8.4,2.5-12.2v0.2
			H147v-0.2C148.5,142.2,149.4,146.4,149.4,150.7z"/>
		<path class="st34" d="M149,150.7c0,4.3-0.9,8.3-2.4,12v-0.1H89.7v0.1c-1.6-3.7-2.4-7.8-2.4-12c0-4.3,0.9-8.3,2.4-12v0.1h56.9v-0.1
			C148.2,142.3,149,146.4,149,150.7z"/>
		<path class="st35" d="M148.6,150.7c0,4.2-0.9,8.2-2.4,11.9c-0.8,1.8-1.7,3.6-2.8,5.2v-5.1H92.8v5.1c-1.1-1.6-2-3.4-2.8-5.2
			c-1.5-3.7-2.4-7.7-2.4-11.9c0-4.2,0.9-8.2,2.4-11.9c0.8-1.8,1.7-3.6,2.8-5.2v5.1h50.6v-5.1c1.1,1.6,2,3.4,2.8,5.2
			C147.8,142.5,148.6,146.5,148.6,150.7z"/>
		<path class="st36" d="M148.3,150.7c0,4.2-0.8,8.1-2.4,11.7c-0.8,1.8-1.7,3.5-2.8,5.1v-4.9h-50v4.9c-1.1-1.6-2-3.3-2.8-5.1
			c-1.5-3.6-2.4-7.6-2.4-11.7c0-4.2,0.8-8.1,2.4-11.7c0.8-1.8,1.7-3.5,2.8-5.1v4.9h50v-4.9c1.1,1.6,2,3.3,2.8,5.1
			C147.4,142.6,148.3,146.5,148.3,150.7z"/>
		<path class="st37" d="M147.9,150.7c0,4.1-0.8,8-2.3,11.6c-0.8,1.8-1.7,3.5-2.7,5.1v-4.7H93.5v4.7c-1.1-1.6-2-3.3-2.7-5.1
			c-1.5-3.6-2.3-7.5-2.3-11.6c0-4.1,0.8-8,2.3-11.6c0.8-1.8,1.7-3.5,2.7-5.1v4.7h49.3V134c1.1,1.6,2,3.3,2.7,5.1
			C147,142.7,147.9,146.6,147.9,150.7z"/>
		<path class="st38" d="M147.5,150.7c0,4.1-0.8,7.9-2.3,11.4c-0.7,1.8-1.7,3.4-2.7,5v-4.4H93.8v4.4c-1.1-1.6-2-3.2-2.7-5
			c-1.5-3.5-2.3-7.4-2.3-11.4s0.8-7.9,2.3-11.4c0.7-1.8,1.7-3.4,2.7-5v4.4h48.7v-4.4c1.1,1.6,2,3.2,2.7,5
			C146.7,142.8,147.5,146.6,147.5,150.7z"/>
		<path class="st39" d="M147.1,150.7c0,4-0.8,7.8-2.3,11.3c-0.7,1.7-1.6,3.4-2.7,4.9v-4.2H94.1v4.2c-1-1.5-1.9-3.2-2.7-4.9
			c-1.5-3.5-2.3-7.3-2.3-11.3s0.8-7.8,2.3-11.3c0.7-1.7,1.6-3.4,2.7-4.9v4.2h48.1v-4.2c1,1.5,1.9,3.2,2.7,4.9
			C146.3,142.9,147.1,146.7,147.1,150.7z"/>
		<path class="st40" d="M146.7,150.7c0,3.9-0.8,7.7-2.2,11.1c-0.7,1.7-1.6,3.3-2.6,4.9v-4H94.4v4c-1-1.5-1.9-3.1-2.6-4.9
			c-1.4-3.4-2.2-7.2-2.2-11.1s0.8-7.7,2.2-11.1c0.7-1.7,1.6-3.3,2.6-4.9v4h47.4v-4c1,1.5,1.9,3.1,2.6,4.9
			C145.9,143,146.7,146.7,146.7,150.7z"/>
		<path class="st41" d="M146.4,150.7c0,3.9-0.8,7.6-2.2,11c-0.7,1.7-1.6,3.3-2.6,4.8v-3.8H94.7v3.8c-1-1.5-1.9-3.1-2.6-4.8
			c-1.4-3.4-2.2-7.1-2.2-11s0.8-7.6,2.2-11c0.7-1.7,1.6-3.3,2.6-4.8v3.8h46.8v-3.8c1,1.5,1.9,3.1,2.6,4.8
			C145.6,143.1,146.4,146.8,146.4,150.7z"/>
		<path class="st42" d="M146,150.7c0,3.8-0.8,7.5-2.2,10.8c-0.7,1.7-1.6,3.2-2.6,4.7v-3.6H95v3.6c-1-1.5-1.9-3.1-2.6-4.7
			c-1.4-3.3-2.2-7-2.2-10.8s0.8-7.5,2.2-10.8c0.7-1.7,1.6-3.2,2.6-4.7v3.6h46.2v-3.6c1,1.5,1.9,3.1,2.6,4.7
			C145.2,143.2,146,146.8,146,150.7z"/>
		<path class="st43" d="M145.6,150.7c0,3.8-0.8,7.4-2.2,10.7c-0.7,1.6-1.5,3.2-2.5,4.7v-3.4H95.4v3.4c-1-1.5-1.8-3-2.5-4.7
			c-1.4-3.3-2.2-6.9-2.2-10.7c0-3.8,0.8-7.4,2.2-10.7c0.7-1.6,1.5-3.2,2.5-4.7v3.4h45.5v-3.4c1,1.5,1.8,3,2.5,4.7
			C144.8,143.3,145.6,146.9,145.6,150.7z"/>
		<path class="st44" d="M145.2,150.7c0,3.7-0.8,7.3-2.1,10.5c-0.7,1.6-1.5,3.2-2.5,4.6v-3.2H95.7v3.2c-1-1.4-1.8-3-2.5-4.6
			c-1.4-3.2-2.1-6.8-2.1-10.5c0-3.7,0.8-7.3,2.1-10.5c0.7-1.6,1.5-3.2,2.5-4.6v3.2h44.9v-3.2c1,1.4,1.8,3,2.5,4.6
			C144.5,143.4,145.2,146.9,145.2,150.7z"/>
		<path class="st45" d="M144.8,150.7c0,7.4-3,14-7.8,18.9v-6.9H99.3v6.9c-4.8-4.8-7.8-11.5-7.8-18.9s3-14,7.8-18.9v6.9H137v-6.9
			C141.8,136.6,144.8,143.3,144.8,150.7z"/>
		<path class="st46" d="M144.4,150.7c0,7.3-2.9,13.8-7.7,18.6v-6.6H99.5v6.6c-4.8-4.8-7.7-11.3-7.7-18.6s2.9-13.8,7.7-18.6v6.6h37.2
			v-6.6C141.5,136.8,144.4,143.4,144.4,150.7z"/>
		<path class="st47" d="M144.1,150.7c0,7.2-2.9,13.6-7.6,18.3v-6.4H99.8v6.4c-4.7-4.7-7.6-11.2-7.6-18.3c0-7.2,2.9-13.6,7.6-18.3
			v6.4h36.7v-6.4C141.2,137,144.1,143.5,144.1,150.7z"/>
		<path class="st48" d="M143.7,150.7c0,7.1-2.9,13.4-7.5,18.1v-6.1h-36.1v6.1c-4.6-4.6-7.5-11-7.5-18.1c0-7.1,2.9-13.4,7.5-18.1v6.1
			h36.1v-6.1C140.8,137.2,143.7,143.6,143.7,150.7z"/>
		<path class="st49" d="M143.3,150.7c0,6.9-2.8,13.2-7.4,17.8v-5.8h-35.6v5.8c-4.6-4.6-7.4-10.8-7.4-17.8s2.8-13.2,7.4-17.8v5.8
			h35.6v-5.8C140.5,137.4,143.3,143.7,143.3,150.7z"/>
		<path class="st50" d="M142.9,150.7c0,6.8-2.8,13-7.3,17.5v-5.6h-35.1v5.6c-4.5-4.5-7.3-10.7-7.3-17.5s2.8-13,7.3-17.5v5.6h35.1
			v-5.6C140.1,137.6,142.9,143.8,142.9,150.7z"/>
		<path class="st51" d="M142.5,150.7c0,6.7-2.7,12.8-7.1,17.3v-5.3h-34.5v5.3c-4.4-4.4-7.1-10.5-7.1-17.3s2.7-12.8,7.1-17.3v5.3
			h34.5v-5.3C139.8,137.8,142.5,143.9,142.5,150.7z"/>
		<path class="st52" d="M142.2,150.7c0,6.6-2.7,12.6-7,17v-5h-34v5c-4.3-4.3-7-10.4-7-17c0-6.6,2.7-12.6,7-17v5h34v-5
			C139.5,138,142.2,144,142.2,150.7z"/>
		<path class="st53" d="M141.8,150.7c0,6.5-2.6,12.4-6.9,16.7v-4.7h-33.4v4.7c-4.3-4.3-6.9-10.2-6.9-16.7c0-6.5,2.6-12.4,6.9-16.7
			v4.7h33.4V134C139.1,138.2,141.8,144.2,141.8,150.7z"/>
		<path class="st54" d="M141.4,150.7c0,6.4-2.6,12.2-6.8,16.4v-4.5h-32.9v4.5c-4.2-4.2-6.8-10-6.8-16.4c0-6.4,2.6-12.2,6.8-16.4v4.5
			h32.9v-4.5C138.8,138.4,141.4,144.3,141.4,150.7z"/>
		<path class="st55" d="M141,150.7c0,6.3-2.6,12-6.7,16.2v-4.2H102v4.2c-4.1-4.1-6.7-9.9-6.7-16.2s2.6-12,6.7-16.2v4.2h32.4v-4.2
			C138.4,138.6,141,144.4,141,150.7z"/>
		<path class="st56" d="M140.6,150.7c0,6.2-2.5,11.8-6.6,15.9v-3.9h-31.8v3.9c-4.1-4.1-6.6-9.7-6.6-15.9s2.5-11.8,6.6-15.9v3.9H134
			v-3.9C138.1,138.8,140.6,144.5,140.6,150.7z"/>
		<path class="st57" d="M140.2,150.7c0,6.1-2.5,11.6-6.5,15.6v-3.7h-31.3v3.7c-4-4-6.5-9.5-6.5-15.6s2.5-11.6,6.5-15.6v3.7h31.3V135
			C137.8,139,140.2,144.6,140.2,150.7z"/>
		<path class="st58" d="M139.9,150.7c0,6-2.4,11.4-6.4,15.4v-3.4h-30.7v3.4c-3.9-3.9-6.4-9.4-6.4-15.4c0-6,2.4-11.4,6.4-15.4v3.4
			h30.7v-3.4C137.4,139.2,139.9,144.7,139.9,150.7z"/>
		<path class="st59" d="M139.5,150.7c0,5.9-2.4,11.2-6.3,15.1v-3.1H103v3.1c-3.9-3.9-6.3-9.2-6.3-15.1c0-5.9,2.4-11.2,6.3-15.1v3.1
			h30.2v-3.1C137.1,139.4,139.5,144.8,139.5,150.7z"/>
		<path class="st60" d="M139.1,150.7c0,5.8-2.3,11-6.1,14.8v-2.9h-29.6v2.9c-3.8-3.8-6.1-9-6.1-14.8s2.3-11,6.1-14.8v2.9H133v-2.9
			C136.7,139.6,139.1,144.9,139.1,150.7z"/>
		<path class="st61" d="M138.7,150.7c0,5.7-2.3,10.8-6,14.6v-2.6h-29.1v2.6c-3.7-3.7-6-8.9-6-14.6s2.3-10.8,6-14.6v2.6h29.1v-2.6
			C136.4,139.8,138.7,145,138.7,150.7z"/>
		<path class="st62" d="M138.3,150.7c0,5.6-2.3,10.6-5.9,14.3v-2.3h-28.6v2.3c-3.7-3.7-5.9-8.7-5.9-14.3s2.3-10.6,5.9-14.3v2.3h28.6
			v-2.3C136.1,140,138.3,145.1,138.3,150.7z"/>
		<path class="st63" d="M138,150.7c0,5.5-2.2,10.4-5.8,14v-2h-28v2c-3.6-3.6-5.8-8.5-5.8-14c0-5.5,2.2-10.4,5.8-14v2h28v-2
			C135.7,140.3,138,145.2,138,150.7z"/>
		<path class="st64" d="M137.6,150.7c0,5.4-2.2,10.2-5.7,13.7v-1.8h-27.5v1.8c-3.5-3.5-5.7-8.4-5.7-13.7c0-5.4,2.2-10.2,5.7-13.7
			v1.8h27.5v-1.8C135.4,140.5,137.6,145.3,137.6,150.7z"/>
		<path class="st65" d="M137.2,150.7c0,5.3-2.1,10-5.6,13.5v-1.5h-26.9v1.5c-3.4-3.4-5.6-8.2-5.6-13.5s2.1-10,5.6-13.5v1.5h26.9
			v-1.5C135.1,140.7,137.2,145.4,137.2,150.7z"/>
		<circle class="st66" cx="118.1" cy="150.7" r="18.7"/>
		<circle class="st67" cx="118.1" cy="150.7" r="18.3"/>
		<circle class="st68" cx="118.1" cy="150.7" r="17.9"/>
		<circle class="st69" cx="118.1" cy="150.7" r="17.5"/>
		<circle class="st70" cx="118.1" cy="150.7" r="17.1"/>
		<circle class="st71" cx="118.1" cy="150.7" r="16.8"/>
		<circle class="st72" cx="118.1" cy="150.7" r="16.4"/>
		<circle class="st73" cx="118.1" cy="150.7" r="16"/>
		<circle class="st74" cx="118.1" cy="150.7" r="15.6"/>
		<circle class="st75" cx="118.1" cy="150.7" r="15.2"/>
		<circle class="st76" cx="118.1" cy="150.7" r="14.9"/>
		<circle class="st77" cx="118.1" cy="150.7" r="14.5"/>
		<circle class="st78" cx="118.1" cy="150.7" r="14.1"/>
		<circle class="st79" cx="118.1" cy="150.7" r="13.7"/>
	</g>
</g>
<g>
	<path class="st80" d="M32.7,180.1c-0.9,0-1.9-0.2-2.7-0.5c-2.5-1-4.1-3.4-4.1-6.3v-6.7c0-0.8,0.7-1.5,1.5-1.5s1.5,0.7,1.5,1.5v6.7
		c0,1.7,0.8,3,2.2,3.6c1.8,0.7,4.1,0.1,5.8-1.6L49.8,162c1.1-1.1,2.4-2,3.9-2.5c0.6-0.2,1.2-0.4,1.9-0.5l122-21.8
		c0.8-0.1,1.6,0.4,1.7,1.2s-0.4,1.6-1.2,1.7L56,162c-0.5,0.1-0.9,0.2-1.3,0.4c-1,0.4-2,1-2.8,1.8L39,177.2
		C37.2,179.1,34.9,180.1,32.7,180.1z"/>
</g>
<g>
	<g>
		<g>
			<g class="st0">
				<path class="st1" d="M262.9,117.5c-1.4,0-2.7-1-3-2.5c-0.3-1.6,0.8-3.2,2.5-3.5l30.9-5.2c6-0.8,10.9-6.3,10.9-12.3V50
					c0-4.6-3.1-8.3-7.6-8.8c-1.6-0.2-2.8-1.7-2.6-3.3c0.2-1.6,1.7-2.8,3.3-2.6c7.4,0.9,12.8,7.1,12.8,14.8v44
					c0,8.9-7.2,17-16.1,18.2l-30.7,5.1C263.2,117.5,263.1,117.5,262.9,117.5z"/>
			</g>
			<g class="st2">
				<path class="st1" d="M265.9,119.8c-1.4,0-2.7-1-3-2.5c-0.3-1.6,0.8-3.2,2.5-3.5l30.9-5.2c6-0.8,10.9-6.3,10.9-12.3v-44
					c0-4.6-3.1-8.3-7.6-8.8c-1.6-0.2-2.8-1.7-2.6-3.3c0.2-1.6,1.7-2.8,3.3-2.6c7.4,0.9,12.8,7.1,12.8,14.8v44
					c0,8.9-7.2,17-16.1,18.2l-30.7,5.1C266.2,119.8,266,119.8,265.9,119.8z"/>
			</g>
			<g class="st0">
				<path class="st1" d="M25.5,119.1c-1.7,0-3-1.3-3-3V93.8c0-6.2,3.4-12.3,8.9-16.1c1.4-0.9,3.2-0.6,4.2,0.8
					c0.9,1.4,0.6,3.2-0.8,4.2c-3.8,2.6-6.3,6.9-6.3,11.1v22.3C28.5,117.8,27.2,119.1,25.5,119.1z"/>
			</g>
			<g class="st2">
				<path class="st1" d="M34.5,189.2c-1.1,0-2.2-0.2-3.3-0.6c-3.1-1.3-5-4.2-5-7.7v-6.7c0-1.7,1.3-3,3-3s3,1.3,3,3v6.7
					c0,1.1,0.4,1.8,1.3,2.2c1,0.4,2.6,0.3,4.2-1.3L52,167.1c1.2-1.2,3.1-1.2,4.2,0c1.2,1.2,1.2,3.1,0,4.2l-14.3,14.5
					C39.8,188,37.1,189.2,34.5,189.2z"/>
			</g>
			<g class="st2">
				<path class="st1" d="M27.4,120.7c-1.7,0-3-1.3-3-3V95.4c0-6.2,3.4-12.3,8.9-16.1c1.4-0.9,3.2-0.6,4.2,0.8
					c0.9,1.4,0.6,3.2-0.8,4.2c-3.8,2.6-6.3,6.9-6.3,11.1v22.3C30.4,119.3,29,120.7,27.4,120.7z"/>
			</g>
			<g>
				<path class="st80" d="M262.9,116c-0.7,0-1.4-0.5-1.5-1.3c-0.1-0.8,0.4-1.6,1.2-1.7l30.8-5.1c6.8-0.9,12.3-7,12.3-13.8V50
					c0-5.4-3.7-9.7-8.9-10.3c-0.8-0.1-1.4-0.9-1.3-1.7c0.1-0.8,0.8-1.4,1.7-1.3c6.8,0.8,11.5,6.3,11.5,13.3v44
					c0,8.2-6.7,15.7-14.8,16.7l-30.7,5.1C263.1,116,263,116,262.9,116z"/>
			</g>
			<g>
				<path class="st80" d="M25.5,117.6c-0.8,0-1.5-0.7-1.5-1.5V93.8c0-5.7,3.2-11.4,8.3-14.8c0.7-0.5,1.6-0.3,2.1,0.4
					c0.5,0.7,0.3,1.6-0.4,2.1c-4.2,2.9-6.9,7.7-6.9,12.3v22.3C27,116.9,26.3,117.6,25.5,117.6z"/>
			</g>
		</g>
		<g class="st0">
			<path class="st1" d="M42.5,65.3c-1.4,0-2.7-1-3-2.5c-0.3-1.6,0.8-3.2,2.4-3.5l227-40.3c1.6-0.3,3.2,0.8,3.5,2.4
				c0.3,1.6-0.8,3.2-2.4,3.5L43,65.3C42.8,65.3,42.7,65.3,42.5,65.3z"/>
		</g>
		<g class="st2">
			<path class="st1" d="M45.6,67.1c-1.4,0-2.7-1-3-2.5c-0.3-1.6,0.8-3.2,2.4-3.5l227-40.3c1.6-0.3,3.2,0.8,3.5,2.4
				c0.3,1.6-0.8,3.2-2.4,3.5l-227,40.3C45.9,67.1,45.8,67.1,45.6,67.1z"/>
		</g>
		<g>
			<g>
				<defs>
					<line id="SVGID_3_" x1="44.3" y1="63.4" x2="271.3" y2="23.1"/>
				</defs>
				<clipPath id="SVGID_4_">
					<use xlink:href="#SVGID_3_"  style="overflow:visible;"/>
				</clipPath>
				<rect x="44.3" y="23.1" class="st81" width="227" height="40.3"/>
				<path class="st81" d="M236.8,43.2c0,5.5-0.6,10.8-1.6,15.9c-0.5,2.6-1.2,5.1-1.9,7.6v-2.3H82.4v2.3c-0.8-2.5-1.4-5-1.9-7.6
					c-1.1-5.1-1.6-10.5-1.6-15.9s0.6-10.8,1.6-15.9c0.5-2.6,1.2-5.1,1.9-7.6v2.3h150.9v-2.3c0.8,2.5,1.4,5,1.9,7.6
					C236.2,32.5,236.8,37.8,236.8,43.2z"/>
				<path class="st82" d="M236.1,43.2c0,5.4-0.5,10.7-1.6,15.8c-0.5,2.5-1.2,5.1-1.9,7.5v-2.1H83.1v2.1c-0.8-2.5-1.4-5-1.9-7.5
					c-1-5.1-1.6-10.4-1.6-15.8s0.5-10.7,1.6-15.8c0.5-2.5,1.2-5.1,1.9-7.5v2.1h149.5V20c0.8,2.5,1.4,5,1.9,7.5
					C235.5,32.6,236.1,37.8,236.1,43.2z"/>
				<path class="st83" d="M235.4,43.2c0,5.4-0.5,10.6-1.6,15.6c-0.5,2.5-1.2,5-1.9,7.4v-1.9H83.7v1.9c-0.8-2.4-1.4-4.9-1.9-7.4
					c-1-5-1.6-10.3-1.6-15.6s0.5-10.6,1.6-15.6c0.5-2.5,1.2-5,1.9-7.4v1.9h148.2v-1.9c0.8,2.4,1.4,4.9,1.9,7.4
					C234.8,32.7,235.4,37.9,235.4,43.2z"/>
				<path class="st84" d="M234.7,43.2c0,5.3-0.5,10.5-1.6,15.5c-0.5,2.5-1.1,5-1.9,7.4v-1.7H84.4v1.7c-0.7-2.4-1.4-4.9-1.9-7.4
					c-1-5-1.6-10.2-1.6-15.5s0.5-10.5,1.6-15.5c0.5-2.5,1.1-5,1.9-7.4v1.7h146.8v-1.7c0.7,2.4,1.4,4.9,1.9,7.4
					C234.1,32.8,234.7,37.9,234.7,43.2z"/>
				<path class="st85" d="M234,43.2c0,5.3-0.5,10.4-1.5,15.3c-0.5,2.5-1.1,4.9-1.9,7.3v-1.5H85.1v1.5c-0.7-2.4-1.4-4.8-1.9-7.3
					c-1-5-1.5-10.1-1.5-15.3s0.5-10.4,1.5-15.3c0.5-2.5,1.1-4.9,1.9-7.3v1.5h145.5v-1.5c0.7,2.4,1.4,4.8,1.9,7.3
					C233.4,32.8,234,38,234,43.2z"/>
				<path class="st86" d="M233.3,43.2c0,5.2-0.5,10.3-1.5,15.2c-0.5,2.5-1.1,4.9-1.9,7.2v-1.3H85.8v1.3c-0.7-2.4-1.4-4.8-1.9-7.2
					c-1-4.9-1.5-10-1.5-15.2s0.5-10.3,1.5-15.2c0.5-2.5,1.1-4.9,1.9-7.2v1.3h144.1v-1.3c0.7,2.4,1.4,4.8,1.9,7.2
					C232.7,32.9,233.3,38,233.3,43.2z"/>
				<path class="st87" d="M232.6,43.2c0,5.2-0.5,10.2-1.5,15.1c-0.5,2.4-1.1,4.8-1.8,7.2v-1.1H86.4v1.1c-0.7-2.3-1.3-4.7-1.8-7.2
					c-1-4.9-1.5-9.9-1.5-15.1s0.5-10.2,1.5-15.1c0.5-2.4,1.1-4.8,1.8-7.2v1.1h142.8V21c0.7,2.3,1.3,4.7,1.8,7.2
					C232,33,232.6,38.1,232.6,43.2z"/>
				<path class="st88" d="M231.9,43.2c0,5.1-0.5,10.1-1.5,14.9c-0.5,2.4-1.1,4.8-1.8,7.1v-0.9H87.1v0.9c-0.7-2.3-1.3-4.7-1.8-7.1
					c-1-4.8-1.5-9.8-1.5-14.9s0.5-10.1,1.5-14.9c0.5-2.4,1.1-4.8,1.8-7.1v0.9h141.4v-0.9c0.7,2.3,1.3,4.7,1.8,7.1
					C231.3,33.1,231.9,38.1,231.9,43.2z"/>
				<path class="st89" d="M231.2,43.2c0,5.1-0.5,10-1.5,14.8c-0.5,2.4-1.1,4.7-1.8,7v-0.7H87.8V65c-0.7-2.3-1.3-4.6-1.8-7
					c-1-4.8-1.5-9.7-1.5-14.8s0.5-10,1.5-14.8c0.5-2.4,1.1-4.7,1.8-7v0.7h140.1v-0.7c0.7,2.3,1.3,4.6,1.8,7
					C230.6,33.2,231.2,38.2,231.2,43.2z"/>
				<path class="st90" d="M230.4,43.2c0,5-0.5,9.9-1.5,14.6c-0.5,2.4-1.1,4.7-1.8,7v-0.5H88.5v0.5c-0.7-2.3-1.3-4.6-1.8-7
					c-1-4.7-1.5-9.6-1.5-14.6s0.5-9.9,1.5-14.6c0.5-2.4,1.1-4.7,1.8-7v0.5h138.7v-0.5c0.7,2.3,1.3,4.6,1.8,7
					C229.9,33.3,230.4,38.2,230.4,43.2z"/>
				<path class="st91" d="M229.7,43.2c0,9.9-2,19.4-5.7,28v-6.9H91.6v6.9c-3.6-8.6-5.7-18.1-5.7-28s2-19.4,5.7-28v6.9h132.5v-6.9
					C227.7,23.8,229.7,33.3,229.7,43.2z"/>
				<path class="st92" d="M229,43.2c0,9.8-2,19.2-5.6,27.7v-6.6H92.2V71c-3.6-8.5-5.6-17.9-5.6-27.7s2-19.2,5.6-27.7v6.6h131.2v-6.6
					C227,24,229,33.4,229,43.2z"/>
				<path class="st93" d="M228.3,43.2c0,9.7-2,19-5.5,27.4v-6.3H92.9v6.3c-3.6-8.4-5.5-17.7-5.5-27.4s2-19,5.5-27.4v6.3h129.9v-6.3
					C226.4,24.2,228.3,33.5,228.3,43.2z"/>
				<path class="st94" d="M227.6,43.2c0,9.6-2,18.8-5.5,27.2v-6H93.5v6C90,62.1,88,52.9,88,43.2s2-18.8,5.5-27.2v6h128.6v-6
					C225.7,24.4,227.6,33.6,227.6,43.2z"/>
				<path class="st95" d="M226.9,43.2c0,9.5-1.9,18.6-5.4,26.9v-5.8H94.2v5.8c-3.5-8.3-5.4-17.4-5.4-26.9s1.9-18.6,5.4-26.9v5.8
					h127.3v-5.8C225,24.6,226.9,33.7,226.9,43.2z"/>
				<path class="st96" d="M226.2,43.2c0,9.4-1.9,18.4-5.4,26.6v-5.5h-126v5.5c-3.5-8.2-5.4-17.2-5.4-26.6s1.9-18.4,5.4-26.6v5.5h126
					v-5.5C224.3,24.8,226.2,33.8,226.2,43.2z"/>
				<path class="st97" d="M225.5,43.2c0,9.3-1.9,18.2-5.3,26.3v-5.2H95.5v5.2c-3.4-8.1-5.3-17-5.3-26.3S92,25,95.5,16.9v5.2h124.7
					v-5.2C223.6,25,225.5,33.9,225.5,43.2z"/>
				<path class="st98" d="M224.8,43.2c0,9.2-1.9,18.1-5.3,26.1v-4.9H96.1v4.9c-3.4-8-5.3-16.8-5.3-26.1s1.9-18.1,5.3-26.1v4.9h123.4
					v-4.9C222.9,25.2,224.8,34,224.8,43.2z"/>
				<path class="st99" d="M224.1,43.2c0,9.2-1.9,17.9-5.2,25.8v-4.7H96.8V69c-3.4-7.9-5.2-16.6-5.2-25.8s1.9-17.9,5.2-25.8v4.7
					h122.1v-4.7C222.2,25.4,224.1,34.1,224.1,43.2z"/>
				<path class="st100" d="M223.4,43.2c0,9.1-1.8,17.7-5.2,25.5v-4.4H97.4v4.4c-3.3-7.8-5.2-16.5-5.2-25.5s1.8-17.7,5.2-25.5v4.4
					h120.8v-4.4C221.6,25.6,223.4,34.2,223.4,43.2z"/>
				<path class="st101" d="M222.7,43.2c0,9-1.8,17.5-5.1,25.2v-4.1H98.1v4.1C94.8,60.7,93,52.2,93,43.2s1.8-17.5,5.1-25.2v4.1h119.5
					V18C220.9,25.8,222.7,34.3,222.7,43.2z"/>
				<path class="st102" d="M222,43.2c0,8.9-1.8,17.3-5,25v-3.8H98.7v3.8c-3.2-7.7-5-16.1-5-25s1.8-17.3,5-25v3.8h118.2v-3.8
					C220.2,25.9,222,34.4,222,43.2z"/>
				<path class="st103" d="M221.3,43.2c0,8.8-1.8,17.1-5,24.7v-3.6H99.4v3.6c-3.2-7.6-5-15.9-5-24.7s1.8-17.1,5-24.7v3.6h116.9v-3.6
					C219.5,26.1,221.3,34.5,221.3,43.2z"/>
				<path class="st104" d="M220.6,43.2c0,8.7-1.8,16.9-4.9,24.4v-3.3H100v3.3c-3.2-7.5-4.9-15.8-4.9-24.4s1.8-16.9,4.9-24.4v3.3
					h115.6v-3.3C218.8,26.3,220.6,34.6,220.6,43.2z"/>
				<path class="st105" d="M219.9,43.2c0,8.6-1.7,16.7-4.9,24.1v-3H100.7v3c-3.1-7.4-4.9-15.6-4.9-24.1s1.7-16.7,4.9-24.1v3H215v-3
					C218.1,26.5,219.9,34.7,219.9,43.2z"/>
				<path class="st106" d="M219.2,43.2c0,8.5-1.7,16.5-4.8,23.9v-2.7h-113v2.7c-3.1-7.3-4.8-15.4-4.8-23.9s1.7-16.5,4.8-23.9v2.7
					h113v-2.7C217.4,26.7,219.2,34.8,219.2,43.2z"/>
				<path class="st107" d="M218.4,43.2c0,8.4-1.7,16.3-4.8,23.6v-2.5H102v2.5c-3.1-7.3-4.8-15.2-4.8-23.6s1.7-16.3,4.8-23.6v2.5
					h111.7v-2.5C216.8,26.9,218.4,34.9,218.4,43.2z"/>
				<path class="st108" d="M217.7,43.2c0,8.3-1.7,16.2-4.7,23.3v-2.2H102.6v2.2c-3-7.2-4.7-15-4.7-23.3s1.7-16.2,4.7-23.3v2.2H213
					v-2.2C216.1,27.1,217.7,35,217.7,43.2z"/>
				<path class="st109" d="M217,43.2c0,8.2-1.7,16-4.7,23v-1.9H103.3v1.9c-3-7.1-4.7-14.9-4.7-23s1.7-16,4.7-23v1.9h109.1v-1.9
					C215.4,27.3,217,35.1,217,43.2z"/>
				<path class="st110" d="M216.3,43.2c0,8.1-1.6,15.8-4.6,22.8v-1.6H103.9V66c-3-7-4.6-14.7-4.6-22.8s1.6-15.8,4.6-22.8v1.6h107.8
					v-1.6C214.7,27.5,216.3,35.2,216.3,43.2z"/>
				<path class="st111" d="M215.6,43.2c0,8-1.6,15.6-4.5,22.5v-1.4H104.6v1.4c-2.9-6.9-4.5-14.5-4.5-22.5s1.6-15.6,4.5-22.5v1.4
					h106.5v-1.4C214,27.7,215.6,35.3,215.6,43.2z"/>
				<path class="st112" d="M214.9,43.2c0,7.9-1.6,15.4-4.5,22.2v-1.1H105.2v1.1c-2.9-6.8-4.5-14.3-4.5-22.2s1.6-15.4,4.5-22.2v1.1
					h105.2V21C213.3,27.8,214.9,35.4,214.9,43.2z"/>
				<path class="st113" d="M214.2,43.2c0,7.8-1.6,15.2-4.4,21.9v-0.8H105.9v0.8c-2.9-6.7-4.4-14.2-4.4-21.9s1.6-15.2,4.4-21.9v0.8
					h103.9v-0.8C212.6,28,214.2,35.5,214.2,43.2z"/>
				<path class="st114" d="M213.5,43.2c0,7.7-1.6,15-4.4,21.7v-0.5H106.5v0.5c-2.8-6.7-4.4-14-4.4-21.7s1.6-15,4.4-21.7v0.5h102.6
					v-0.5C212,28.2,213.5,35.5,213.5,43.2z"/>
				<path class="st115" d="M212.8,43.2c0,7.6-1.5,14.8-4.3,21.4v-0.3H107.2v0.3c-2.8-6.6-4.3-13.8-4.3-21.4s1.5-14.8,4.3-21.4v0.3
					h101.3v-0.3C211.3,28.4,212.8,35.6,212.8,43.2z"/>
				<path class="st116" d="M212.1,43.2c0,7.5-1.5,14.6-4.3,21.1c-0.7,1.6-1.4,3.2-2.3,4.7v-4.7h-95.4v4.7c-0.8-1.5-1.6-3.1-2.3-4.7
					c-2.7-6.5-4.3-13.6-4.3-21.1s1.5-14.6,4.3-21.1c0.7-1.6,1.4-3.2,2.3-4.7v4.7h95.4v-4.7c0.8,1.5,1.6,3.1,2.3,4.7
					C210.6,28.6,212.1,35.7,212.1,43.2z"/>
				<path class="st117" d="M211.4,43.2c0,7.4-1.5,14.4-4.2,20.9c-0.7,1.6-1.4,3.2-2.3,4.7v-4.4h-94.2v4.4c-0.8-1.5-1.6-3.1-2.3-4.7
					c-2.7-6.4-4.2-13.5-4.2-20.9s1.5-14.4,4.2-20.9c0.7-1.6,1.4-3.2,2.3-4.7v4.4h94.2v-4.4c0.8,1.5,1.6,3.1,2.3,4.7
					C209.9,28.8,211.4,35.8,211.4,43.2z"/>
				<path class="st118" d="M210.7,43.2c0,7.3-1.5,14.3-4.2,20.6c-0.7,1.6-1.4,3.1-2.2,4.6v-4.1h-93v4.1c-0.8-1.5-1.6-3-2.2-4.6
					c-2.7-6.3-4.2-13.3-4.2-20.6s1.5-14.3,4.2-20.6c0.7-1.6,1.4-3.1,2.2-4.6v4.1h93V18c0.8,1.5,1.6,3,2.2,4.6
					C209.2,29,210.7,35.9,210.7,43.2z"/>
				<path class="st119" d="M210,43.2c0,7.2-1.5,14.1-4.1,20.3c-0.7,1.6-1.4,3.1-2.2,4.6v-3.7H112v3.7c-0.8-1.5-1.5-3-2.2-4.6
					c-2.6-6.2-4.1-13.1-4.1-20.3s1.5-14.1,4.1-20.3c0.7-1.6,1.4-3.1,2.2-4.6v3.7h91.7v-3.7c0.8,1.5,1.5,3,2.2,4.6
					C208.5,29.2,210,36,210,43.2z"/>
				<path class="st120" d="M209.3,43.2c0,7.1-1.4,13.9-4,20c-0.7,1.5-1.4,3-2.2,4.5v-3.4h-90.5v3.4c-0.8-1.5-1.5-3-2.2-4.5
					c-2.6-6.2-4-12.9-4-20s1.4-13.9,4-20c0.7-1.5,1.4-3,2.2-4.5v3.4h90.5v-3.4c0.8,1.5,1.5,3,2.2,4.5
					C207.8,29.4,209.3,36.1,209.3,43.2z"/>
				<path class="st121" d="M208.6,43.2c0,7-1.4,13.7-4,19.8c-0.6,1.5-1.4,3-2.1,4.4v-3h-89.2v3c-0.8-1.4-1.5-2.9-2.1-4.4
					c-2.6-6.1-4-12.7-4-19.8s1.4-13.7,4-19.8c0.6-1.5,1.4-3,2.1-4.4v3h89.2v-3c0.8,1.4,1.5,2.9,2.1,4.4
					C207.1,29.6,208.6,36.2,208.6,43.2z"/>
				<path class="st122" d="M207.9,43.2c0,6.9-1.4,13.5-3.9,19.5c-1.3,3-2.8,5.8-4.6,8.5v-6.8h-83v6.8c-1.8-2.7-3.3-5.5-4.6-8.5
					c-2.5-6-3.9-12.6-3.9-19.5s1.4-13.5,3.9-19.5c1.3-3,2.8-5.8,4.6-8.5v6.8h83v-6.8c1.8,2.7,3.3,5.5,4.6,8.5
					C206.5,29.7,207.9,36.3,207.9,43.2z"/>
				<path class="st123" d="M207.2,43.2c0,6.8-1.4,13.3-3.9,19.2c-1.2,3-2.8,5.8-4.5,8.4v-6.4h-81.8v6.4c-1.8-2.6-3.3-5.4-4.5-8.4
					c-2.5-5.9-3.9-12.4-3.9-19.2s1.4-13.3,3.9-19.2c1.2-3,2.8-5.8,4.5-8.4v6.4h81.8v-6.4c1.8,2.6,3.3,5.4,4.5,8.4
					C205.8,29.9,207.2,36.4,207.2,43.2z"/>
				<path class="st124" d="M206.5,43.2c0,6.7-1.4,13.1-3.8,18.9c-1.2,2.9-2.7,5.7-4.5,8.3v-6h-80.6v6c-1.7-2.6-3.3-5.4-4.5-8.3
					c-2.5-5.8-3.8-12.2-3.8-18.9s1.4-13.1,3.8-18.9c1.2-2.9,2.7-5.7,4.5-8.3v6h80.6v-6c1.7,2.6,3.3,5.4,4.5,8.3
					C205.1,30.1,206.5,36.5,206.5,43.2z"/>
				<path class="st125" d="M205.7,43.2c0,6.6-1.3,12.9-3.8,18.7c-1.2,2.9-2.7,5.6-4.4,8.1v-5.7h-79.5V70c-1.7-2.5-3.2-5.3-4.4-8.1
					c-2.4-5.7-3.8-12-3.8-18.7s1.3-12.9,3.8-18.7c1.2-2.9,2.7-5.6,4.4-8.1v5.7h79.5v-5.7c1.7,2.5,3.2,5.3,4.4,8.1
					C204.4,30.3,205.7,36.6,205.7,43.2z"/>
				<path class="st126" d="M205,43.2c0,6.5-1.3,12.7-3.7,18.4c-1.2,2.8-2.7,5.5-4.4,8v-5.3h-78.3v5.3c-1.7-2.5-3.2-5.2-4.4-8
					c-2.4-5.6-3.7-11.9-3.7-18.4s1.3-12.7,3.7-18.4c1.2-2.8,2.7-5.5,4.4-8v5.3H197v-5.3c1.7,2.5,3.2,5.2,4.4,8
					C203.7,30.5,205,36.7,205,43.2z"/>
				<path class="st127" d="M204.3,43.2c0,6.4-1.3,12.5-3.7,18.1c-1.2,2.8-2.6,5.4-4.3,7.9v-4.9h-77.1v4.9c-1.7-2.5-3.1-5.1-4.3-7.9
					c-2.4-5.6-3.7-11.7-3.7-18.1s1.3-12.5,3.7-18.1c1.2-2.8,2.6-5.4,4.3-7.9v4.9h77.1v-4.9c1.7,2.5,3.1,5.1,4.3,7.9
					C203,30.7,204.3,36.8,204.3,43.2z"/>
				<path class="st128" d="M203.6,43.2c0,6.3-1.3,12.3-3.6,17.8c-1.2,2.7-2.6,5.3-4.2,7.8v-4.5h-76v4.5c-1.6-2.4-3.1-5-4.2-7.8
					c-2.3-5.5-3.6-11.5-3.6-17.8s1.3-12.3,3.6-17.8c1.2-2.7,2.6-5.3,4.2-7.8v4.5h76v-4.5c1.6,2.4,3.1,5,4.2,7.8
					C202.3,30.9,203.6,36.9,203.6,43.2z"/>
				<path class="st129" d="M202.9,43.2c0,6.2-1.3,12.2-3.5,17.6c-1.1,2.7-2.5,5.3-4.2,7.7v-4.1h-74.8v4.1c-1.6-2.4-3-5-4.2-7.7
					c-2.3-5.4-3.5-11.3-3.5-17.6s1.3-12.2,3.5-17.6c1.1-2.7,2.5-5.3,4.2-7.7v4.1h74.8V18c1.6,2.4,3,5,4.2,7.7
					C201.7,31.1,202.9,37,202.9,43.2z"/>
				<path class="st130" d="M202.2,43.2c0,6.1-1.2,12-3.5,17.3c-1.1,2.7-2.5,5.2-4.1,7.5v-3.7H121v3.7c-1.6-2.4-3-4.9-4.1-7.5
					c-2.2-5.3-3.5-11.1-3.5-17.3s1.2-12,3.5-17.3c1.1-2.7,2.5-5.2,4.1-7.5v3.7h73.6v-3.7c1.6,2.4,3,4.9,4.1,7.5
					C201,31.3,202.2,37.1,202.2,43.2z"/>
				<path class="st131" d="M201.5,43.2c0,6-1.2,11.8-3.4,17c-1.1,2.6-2.5,5.1-4,7.4v-3.3h-72.4v3.3c-1.6-2.3-2.9-4.8-4-7.4
					c-2.2-5.2-3.4-11-3.4-17s1.2-11.8,3.4-17c1.1-2.6,2.5-5.1,4-7.4v3.3H194v-3.3c1.6,2.3,2.9,4.8,4,7.4
					C200.3,31.5,201.5,37.2,201.5,43.2z"/>
				<path class="st132" d="M200.8,43.2c0,5.9-1.2,11.6-3.4,16.7c-1.1,2.6-2.4,5-4,7.3v-2.9h-71.3v2.9c-1.5-2.3-2.9-4.7-4-7.3
					c-2.2-5.1-3.4-10.8-3.4-16.7s1.2-11.6,3.4-16.7c1.1-2.6,2.4-5,4-7.3v2.9h71.3v-2.9c1.5,2.3,2.9,4.7,4,7.3
					C199.6,31.6,200.8,37.3,200.8,43.2z"/>
				<path class="st133" d="M200.1,43.2c0,5.8-1.2,11.4-3.3,16.5c-1.1,2.5-2.4,4.9-3.9,7.2v-2.5h-70.1v2.5c-1.5-2.2-2.8-4.7-3.9-7.2
					c-2.1-5.1-3.3-10.6-3.3-16.5s1.2-11.4,3.3-16.5c1.1-2.5,2.4-4.9,3.9-7.2v2.5h70.1v-2.5c1.5,2.2,2.8,4.7,3.9,7.2
					C198.9,31.8,200.1,37.4,200.1,43.2z"/>
				<path class="st134" d="M199.4,43.2c0,5.7-1.2,11.2-3.3,16.2c-1.1,2.5-2.3,4.8-3.8,7.1v-2.1h-68.9v2.1c-1.5-2.2-2.8-4.6-3.8-7.1
					c-2.1-5-3.3-10.4-3.3-16.2s1.2-11.2,3.3-16.2c1.1-2.5,2.3-4.8,3.8-7.1v2.1h68.9V20c1.5,2.2,2.8,4.6,3.8,7.1
					C198.2,32,199.4,37.5,199.4,43.2z"/>
				<path class="st135" d="M198.7,43.2c0,5.6-1.1,11-3.2,15.9c-1,2.4-2.3,4.8-3.8,6.9v-1.7h-67.8v1.7c-1.5-2.2-2.7-4.5-3.8-6.9
					c-2.1-4.9-3.2-10.3-3.2-15.9s1.1-11,3.2-15.9c1-2.4,2.3-4.8,3.8-6.9v1.7h67.8v-1.7c1.5,2.2,2.7,4.5,3.8,6.9
					C197.5,32.2,198.7,37.6,198.7,43.2z"/>
				<path class="st136" d="M198,43.2c0,5.5-1.1,10.8-3.2,15.6c-1,2.4-2.3,4.7-3.7,6.8v-1.3h-66.6v1.3c-1.4-2.1-2.7-4.4-3.7-6.8
					c-2-4.8-3.2-10.1-3.2-15.6s1.1-10.8,3.2-15.6c1-2.4,2.3-4.7,3.7-6.8v1.3h66.6v-1.3c1.4,2.1,2.7,4.4,3.7,6.8
					C196.9,32.4,198,37.7,198,43.2z"/>
				<path class="st137" d="M197.3,43.2c0,10.9-4.4,20.8-11.6,27.9v-6.8h-55.8v6.8c-7.1-7.1-11.6-17-11.6-27.9s4.4-20.8,11.6-27.9
					v6.8h55.8v-6.8C192.9,22.5,197.3,32.3,197.3,43.2z"/>
				<path class="st138" d="M196.6,43.2c0,10.7-4.3,20.4-11.3,27.4v-6.3h-54.8v6.3c-7-7-11.3-16.7-11.3-27.4s4.3-20.4,11.3-27.4v6.3
					h54.8v-6.3C192.2,22.9,196.6,32.5,196.6,43.2z"/>
				<path class="st139" d="M195.9,43.2c0,10.5-4.3,20-11.1,26.9v-5.8h-53.8v5.8c-6.9-6.9-11.1-16.4-11.1-26.9s4.3-20,11.1-26.9v5.8
					h53.8v-5.8C191.6,23.2,195.9,32.7,195.9,43.2z"/>
				<path class="st140" d="M195.2,43.2c0,10.3-4.2,19.6-10.9,26.4v-5.3h-52.8v5.3c-6.8-6.8-10.9-16.1-10.9-26.4s4.2-19.6,10.9-26.4
					v5.3h52.8v-5.3C191,23.6,195.2,32.9,195.2,43.2z"/>
				<path class="st141" d="M194.5,43.2c0,10.1-4.1,19.3-10.7,25.9v-4.8h-51.8v4.8c-6.6-6.6-10.7-15.8-10.7-25.9s4.1-19.3,10.7-25.9
					v4.8h51.8v-4.8C190.4,24,194.5,33.1,194.5,43.2z"/>
				<path class="st142" d="M193.7,43.2c0,9.9-4,18.9-10.5,25.4v-4.3h-50.8v4.3c-6.5-6.5-10.5-15.5-10.5-25.4s4-18.9,10.5-25.4v4.3
					h50.8v-4.3C189.7,24.3,193.7,33.3,193.7,43.2z"/>
				<path class="st143" d="M193,43.2c0,9.7-3.9,18.5-10.3,24.9v-3.8h-49.8v3.8c-6.4-6.4-10.3-15.2-10.3-24.9s3.9-18.5,10.3-24.9v3.8
					h49.8v-3.8C189.1,24.7,193,33.5,193,43.2z"/>
				<path class="st144" d="M192.3,43.2c0,9.5-3.9,18.2-10.1,24.4v-3.3h-48.8v3.3c-6.2-6.2-10.1-14.9-10.1-24.4s3.9-18.2,10.1-24.4
					v3.3h48.8v-3.3C188.5,25.1,192.3,33.7,192.3,43.2z"/>
				<path class="st145" d="M191.6,43.2c0,9.3-3.8,17.8-9.9,23.9v-2.8h-47.8v2.8c-6.1-6.1-9.9-14.6-9.9-23.9s3.8-17.8,9.9-23.9v2.8
					h47.8v-2.8C187.8,25.5,191.6,33.9,191.6,43.2z"/>
				<path class="st146" d="M190.9,43.2c0,9.1-3.7,17.4-9.7,23.4v-2.3h-46.8v2.3c-6-6-9.7-14.3-9.7-23.4s3.7-17.4,9.7-23.4v2.3h46.8
					v-2.3C187.2,25.8,190.9,34.1,190.9,43.2z"/>
				<path class="st147" d="M190.2,43.2c0,8.9-3.6,17-9.5,22.9v-1.8h-45.8v1.8c-5.9-5.9-9.5-14-9.5-22.9s3.6-17,9.5-22.9v1.8h45.8
					v-1.8C186.6,26.2,190.2,34.3,190.2,43.2z"/>
				<path class="st148" d="M189.5,43.2c0,8.7-3.5,16.7-9.3,22.4v-1.3h-44.8v1.3c-5.7-5.7-9.3-13.7-9.3-22.4s3.5-16.7,9.3-22.4v1.3
					h44.8v-1.3C186,26.6,189.5,34.5,189.5,43.2z"/>
				<path class="st149" d="M188.8,43.2c0,8.6-3.5,16.3-9.1,21.9v-0.8h-43.8v0.8c-5.6-5.6-9.1-13.4-9.1-21.9s3.5-16.3,9.1-21.9v0.8
					h43.8v-0.8C185.3,26.9,188.8,34.7,188.8,43.2z"/>
				<path class="st150" d="M188.1,43.2c0,8.4-3.4,15.9-8.9,21.4v-0.3h-42.8v0.3c-5.5-5.5-8.9-13-8.9-21.4s3.4-15.9,8.9-21.4v0.3
					h42.8v-0.3C184.7,27.3,188.1,34.9,188.1,43.2z"/>
				<path class="st151" d="M187.4,43.2c0,8.2-3.3,15.6-8.7,20.9c-2.7,2.7-5.9,4.8-9.4,6.3v-6.1h-23v6.1c-3.5-1.5-6.7-3.7-9.4-6.3
					c-5.4-5.4-8.7-12.7-8.7-20.9s3.3-15.6,8.7-20.9c2.7-2.7,5.9-4.8,9.4-6.3v6.1h23V16c3.5,1.5,6.7,3.7,9.4,6.3
					C184.1,27.7,187.4,35.1,187.4,43.2z"/>
				<path class="st152" d="M186.7,43.2c0,8-3.2,15.2-8.5,20.4c-2.6,2.6-5.7,4.7-9.2,6.2v-5.5h-22.5v5.5c-3.5-1.5-6.6-3.6-9.2-6.2
					c-5.2-5.2-8.5-12.4-8.5-20.4s3.2-15.2,8.5-20.4c2.6-2.6,5.7-4.7,9.2-6.2v5.5h22.5v-5.5c3.5,1.5,6.6,3.6,9.2,6.2
					C183.5,28.1,186.7,35.3,186.7,43.2z"/>
				<path class="st153" d="M186,43.2c0,7.8-3.2,14.8-8.2,19.9c-2.5,2.5-5.6,4.6-8.9,6v-4.8h-21.9v4.8c-3.4-1.4-6.4-3.5-8.9-6
					c-5.1-5.1-8.2-12.1-8.2-19.9s3.2-14.8,8.2-19.9c2.5-2.5,5.6-4.6,8.9-6v4.8h21.9v-4.8c3.4,1.4,6.4,3.5,8.9,6
					C182.8,28.4,186,35.5,186,43.2z"/>
				<circle class="st154" cx="157.8" cy="43.2" r="27.5"/>
				<circle class="st155" cx="157.8" cy="43.2" r="26.7"/>
				<circle class="st156" cx="157.8" cy="43.2" r="26"/>
				<circle class="st157" cx="157.8" cy="43.2" r="25.3"/>
			</g>
		</g>
		<g>
			<path class="st80" d="M42.5,63.9c-0.7,0-1.3-0.5-1.5-1.2c-0.1-0.8,0.4-1.6,1.2-1.7l227-40.3c0.8-0.1,1.6,0.4,1.7,1.2
				c0.1,0.8-0.4,1.6-1.2,1.7l-227,40.3C42.7,63.9,42.6,63.9,42.5,63.9z"/>
		</g>
	</g>
</g>
<g>
	<path class="st158" d="M79.2,70c3,1.3,5.3,3.5,6.9,6.6c1.6,3.1,2.5,6.8,2.5,11.2c0,4.3-0.8,8.3-2.4,11.8c-1.6,3.5-3.9,6.4-6.8,8.7
		c-2.9,2.3-6.3,3.7-10.2,4.4c-2.5,0.4-4.8,0.3-6.8-0.2c-2-0.6-3.8-1.6-5.2-3.2v20.1L41.4,132V74.2l15.8-2.7v4.9
		c1.4-2,3.1-3.7,5.1-4.9c2-1.3,4.2-2.1,6.6-2.5C72.8,68.3,76.2,68.6,79.2,70z M70.5,97.2c1.4-2,2.1-4.4,2.1-7.2c0-2.8-0.7-5-2.1-6.5
		c-1.4-1.5-3.3-2.1-5.6-1.7c-2.3,0.4-4.1,1.6-5.6,3.6c-1.4,2-2.1,4.4-2.1,7.2c0,2.8,0.7,5,2.1,6.5c1.4,1.5,3.3,2.1,5.6,1.7
		C67.2,100.4,69.1,99.2,70.5,97.2z"/>
	<path class="st158" d="M128.9,62.8c3.4,2.2,5,5.7,5,10.6V101l-15.5,2.6V99c-1.3,1.9-3,3.6-5.1,4.9c-2.1,1.3-4.6,2.2-7.3,2.7
		c-4.5,0.8-8,0.2-10.6-1.8c-2.6-2-3.8-5-3.8-9.1c0-4.1,1.4-7.5,4.2-10.2c2.8-2.7,6.9-4.5,12.2-5.5l10.4-1.8v-0.2
		c0-1.8-0.6-3-1.9-3.8c-1.3-0.8-3.1-1-5.5-0.6c-1.7,0.3-3.7,0.9-6,1.8s-4.6,2.1-6.8,3.4l-3.9-9.8c7.2-4.2,14-6.8,20.5-7.9
		C120.9,60,125.6,60.6,128.9,62.8z M115.7,93.3c1.3-1,2.2-2.2,2.8-3.7v-3.8l-7.2,1.2c-3.2,0.5-4.8,2.1-4.8,4.8
		c0,1.4,0.4,2.3,1.3,2.9c0.8,0.6,2,0.8,3.5,0.5C112.9,95,114.4,94.3,115.7,93.3z"/>
	<path class="st158" d="M184,49.9v38.9c0,3.9-1,7.5-2.9,10.8s-4.7,6.1-8.2,8.3c-3.5,2.2-7.6,3.7-12.2,4.5c-3.8,0.6-7.4,0.7-10.8,0.3
		c-3.4-0.5-6.4-1.3-8.8-2.5l5.2-11.5c1.9,0.9,4,1.5,6.3,1.8c2.3,0.3,4.6,0.2,6.8-0.1c2.8-0.5,5-1.5,6.7-3c1.6-1.5,2.4-3.3,2.4-5.4
		v-4.3c-2.8,3.9-6.6,6.2-11.4,7c-3.4,0.6-6.5,0.3-9.2-1c-2.7-1.2-4.8-3.3-6.3-6.2c-1.5-2.9-2.3-6.3-2.3-10.4c0-4,0.7-7.6,2.2-10.9
		c1.5-3.3,3.6-6,6.2-8.1c2.7-2.1,5.7-3.5,9.1-4.1c5-0.8,8.9,0.2,11.7,3.2v-4.6L184,49.9z M166.3,79.3c1.3-1.8,2-4.1,2-6.7
		c0-2.7-0.7-4.8-2-6.2c-1.3-1.4-3.1-1.9-5.3-1.5c-2.1,0.4-3.9,1.5-5.2,3.4c-1.3,1.9-2,4.1-2,6.8c0,2.6,0.7,4.6,2,6
		c1.3,1.4,3.1,1.9,5.2,1.5C163.2,82.2,165,81.1,166.3,79.3z"/>
	<path class="st158" d="M226.2,44.8c3.5,1.2,6.3,3.3,8.3,6.2c2,3,2.9,6.6,2.9,11c0,4.3-1,8.3-2.9,12c-2,3.6-4.7,6.7-8.3,9.1
		c-3.5,2.4-7.7,4-12.4,4.8c-4.7,0.8-8.9,0.6-12.5-0.6c-3.6-1.2-6.3-3.3-8.3-6.3c-2-3-2.9-6.6-2.9-11c0-4.4,1-8.4,2.9-12
		c2-3.6,4.7-6.6,8.3-9c3.6-2.4,7.7-4,12.5-4.8C218.5,43.5,222.6,43.7,226.2,44.8z M208.1,60.4c-1.4,2-2.1,4.4-2.1,7.2
		c0,2.9,0.7,5,2.1,6.5c1.4,1.5,3.3,2,5.6,1.6c2.3-0.4,4.1-1.6,5.6-3.5c1.4-2,2.1-4.4,2.1-7.2c0-2.8-0.7-5-2.1-6.5
		c-1.4-1.5-3.3-2.1-5.6-1.7C211.4,57.2,209.5,58.4,208.1,60.4z"/>
	<path class="st158" d="M259.7,46.9c-1,0.2-1.8,0.5-2.3,0.9c-0.6,0.4-0.9,1-0.9,1.7c0,0.8,0.5,1.3,1.6,1.6c1.1,0.3,2.8,0.6,5.1,0.8
		c3.1,0.4,5.7,0.8,7.8,1.3c2.1,0.5,3.9,1.6,5.4,3.1c1.5,1.5,2.3,3.7,2.3,6.5c0,4.3-1.7,8.1-5.1,11.2c-3.4,3.1-7.9,5.2-13.6,6.1
		c-3.8,0.6-7.3,0.7-10.8,0.3c-3.4-0.4-6.5-1.4-9.3-2.9l4.9-10.8c2.7,1.3,5.3,2.1,7.9,2.6c2.6,0.4,5.1,0.5,7.5,0.1
		c1.1-0.2,2-0.5,2.6-0.9c0.6-0.4,0.9-1,0.9-1.6c0-0.8-0.5-1.3-1.5-1.7c-1-0.3-2.7-0.6-5-0.8c-3-0.3-5.6-0.7-7.6-1.3
		c-2-0.5-3.8-1.6-5.3-3.1c-1.5-1.5-2.3-3.7-2.3-6.5c0-4.4,1.7-8.1,5-11.3c3.3-3.1,7.7-5.2,13.1-6.1c6.5-1.1,12.8-0.5,18.7,2
		L273.6,49C267.8,47,263.2,46.3,259.7,46.9z"/>
</g>
<g>
	<g>
		<path class="st159" d="M38.3,120.5L46,119l0.5,30.5l-7.8,1.5L38.3,120.5z"/>
	</g>
	<g>
		<path class="st159" d="M50,137.7c-0.1-6.7,5.1-12.5,12.3-13.8c7.3-1.4,12.6,2.4,12.7,9.1c0.1,6.7-5,12.5-12.3,13.9
			C55.5,148.2,50.1,144.4,50,137.7z M67.2,134.4c-0.1-3.4-2.1-4.9-4.8-4.4c-2.6,0.5-4.6,2.8-4.6,6.1c0.1,3.4,2.1,5,4.8,4.5
			C65.3,140.1,67.3,137.8,67.2,134.4z"/>
	</g>
	<g>
		<path class="st159" d="M77.3,132.5c-0.1-6.7,5.1-12.5,12.5-13.9c5-0.9,8.9,0.6,10.5,4.2l-6,4.2c-1.1-1.9-2.7-2.5-4.5-2.2
			c-2.7,0.5-4.8,2.8-4.7,6.2c0.1,3.5,2.2,4.9,4.9,4.4c1.8-0.3,3.3-1.5,4.4-3.8l6.1,1.9c-1.4,4.1-5.3,7.1-10.3,8.1
			C82.8,143.1,77.4,139.3,77.3,132.5z"/>
	</g>
	<g>
		<path class="st159" d="M124.2,122.5l0.2,12.4l-7.3,1.4l0-2.9c-1.1,2.3-3.3,3.9-6.5,4.5c-5.3,1-8.3-1.4-8.4-5.3
			c-0.1-4.1,2.9-7.2,9.8-8.5l4.4-0.8c-0.2-2.2-1.7-3.2-4.8-2.6c-2.1,0.4-4.5,1.6-6,3.1l-2.7-4.8c2.5-2.2,6.3-3.8,9.8-4.4
			C119.9,113,124.1,115.4,124.2,122.5z M116.5,129.2l0-1.9l-3.4,0.6c-2.5,0.5-3.4,1.5-3.4,2.9c0,1.3,1.1,2.1,2.9,1.7
			C114.4,132.2,115.9,131.1,116.5,129.2z"/>
	</g>
	<g>
		<path class="st159" d="M128.8,103.4l7.8-1.5l0.5,30.5l-7.8,1.5L128.8,103.4z"/>
	</g>
	<g>
		<path class="st159" d="M164.6,118.1l-16.1,3c0.7,2.1,2.6,3.1,5.5,2.5c2.2-0.4,3.6-1.3,5.1-2.9l4.2,3.5c-2.1,2.8-5.2,4.6-9.4,5.4
			c-7.9,1.5-13.1-2.4-13.2-9.1c-0.1-6.7,5-12.4,12-13.8c6.6-1.2,12,2,12.1,9.3C164.7,116.7,164.6,117.5,164.6,118.1z M148.2,117.1
			l9.1-1.7c-0.5-2.3-2.2-3.4-4.6-3S148.7,114.6,148.2,117.1z"/>
	</g>
	<g>
		<path class="st159" d="M166.7,125l2.2-5.8c2.1,0.9,5.1,1.1,7.8,0.6c2.6-0.5,3.5-1.2,3.5-2.2c-0.1-3-13.1,2.9-13.3-6
			c-0.1-4.2,3.7-8.1,10.7-9.4c3.1-0.6,6.6-0.6,8.8,0.2l-2.2,5.7c-2.2-0.8-4.5-0.8-6.4-0.4c-2.6,0.5-3.6,1.4-3.5,2.2
			c0.1,3.1,13.1-2.7,13.2,6.1c0.1,4.1-3.6,8-10.9,9.4C172.8,126.1,168.9,125.9,166.7,125z"/>
	</g>
	<g>
		<path class="st159" d="M189.4,118.3c0-2.8,2-5,4.6-5.5c2.7-0.5,4.7,0.9,4.8,3.7c0,2.7-1.9,5-4.6,5.5
			C191.5,122.6,189.5,121,189.4,118.3z"/>
	</g>
	<g>
		<path class="st159" d="M200.8,109.3c-0.1-6.7,5.1-12.5,12.5-13.9c5-1,8.9,0.6,10.5,4.2l-6,4.2c-1.1-1.9-2.7-2.5-4.5-2.2
			c-2.7,0.5-4.8,2.8-4.7,6.2c0.1,3.5,2.2,4.9,4.9,4.4c1.8-0.3,3.3-1.5,4.4-3.8l6.1,1.9c-1.5,4.1-5.3,7.1-10.3,8.1
			C206.3,119.8,200.9,116,200.8,109.3z"/>
	</g>
	<g>
		<path class="st159" d="M225.2,104.7c-0.1-6.7,5.1-12.5,12.3-13.8c7.3-1.4,12.6,2.4,12.7,9.1c0.1,6.7-5,12.5-12.3,13.9
			C230.7,115.2,225.4,111.4,225.2,104.7z M242.4,101.4c-0.1-3.4-2.1-4.9-4.8-4.4c-2.6,0.5-4.6,2.8-4.6,6.1c0.1,3.4,2.1,5,4.8,4.5
			C240.5,107.1,242.5,104.8,242.4,101.4z"/>
	</g>
	<g>
		<path class="st159" d="M291.8,90.5l0.2,12.7l-7.8,1.5L284,93.3c-0.1-3.2-1.4-4.3-3.4-3.9c-2.3,0.4-3.9,2.3-3.8,5.7l0.2,11.1
			l-7.8,1.5L269,96.1c-0.1-3.2-1.3-4.3-3.4-3.9c-2.3,0.4-3.9,2.3-3.8,5.7l0.2,11.1l-7.8,1.5l-0.4-22.3l7.4-1.4l0,2.3
			c1.6-2.1,4-3.5,6.6-4c3-0.6,5.6,0.1,7.2,2.1c1.7-2.6,4.4-4.3,7.6-4.9C287.8,81.4,291.7,83.6,291.8,90.5z"/>
	</g>
</g>
<g>
	<g>
		<path class="st158" d="M309.5,167.1c-1.7,0-3.3-0.4-4.9-1.1c-2.9-1.3-5-3.6-6.1-6.6l-4.6-12.3c-1.1-2.9-1-6.1,0.3-9s3.6-5,6.6-6.1
			c2.9-1.1,6.1-1,9,0.3c2.9,1.3,5,3.6,6.1,6.6l4.6,12.3c1.1,2.9,1,6.1-0.3,9s-3.6,5-6.6,6.1C312.3,166.9,310.9,167.1,309.5,167.1z
			 M304.9,133.2c-1.2,0-2.3,0.2-3.4,0.6c-2.4,0.9-4.4,2.7-5.5,5.1c-1.1,2.4-1.2,5-0.3,7.5l4.6,12.3c0.9,2.4,2.7,4.4,5.1,5.5
			c2.4,1.1,5,1.2,7.5,0.3l0,0c2.4-0.9,4.4-2.7,5.5-5.1c1.1-2.4,1.2-5,0.3-7.5l-4.6-12.3c-0.9-2.4-2.7-4.4-5.1-5.5
			C307.6,133.5,306.3,133.2,304.9,133.2z"/>
	</g>
	<g>
		
			<rect x="295.2" y="144.9" transform="matrix(0.9365 -0.3506 0.3506 0.9365 -31.7152 116.5246)" class="st158" width="21.5" height="2"/>
	</g>
	<g>
		
			<rect x="302.5" y="132.5" transform="matrix(0.9366 -0.3505 0.3505 0.9366 -29.5956 115.2309)" class="st158" width="2" height="13.8"/>
	</g>
</g>
<g>
	<path class="st158" d="M292.8,207.5c-9.6,0-15.6-7.7-21.8-15.9c-7.3-9.6-14.9-19.4-29.5-20.1c-15.8-0.7-25.1,5.1-33.3,10.3
		c-7.7,4.9-15,9.5-26,6.9c-24-5.5-25.4-38.8-25.5-39.1c0-0.6,0.4-1,1-1c0.6,0,1,0.4,1,1c0,0.3,1.4,32,23.9,37.2
		c10.2,2.3,16.8-1.8,24.5-6.7c8.4-5.3,18-11.3,34.4-10.6c15.6,0.7,23.8,11.4,31,20.9c7.6,10,14.2,18.6,27.6,13.6
		c7.2-2.7,12.1-7,14.5-12.9c4.8-11.6-1.4-25.5-1.4-25.6c-0.2-0.5,0-1.1,0.5-1.3c0.5-0.2,1.1,0,1.3,0.5c0.3,0.6,6.6,14.8,1.5,27.2
		c-2.7,6.4-7.9,11.2-15.7,14.1C297.9,207,295.3,207.5,292.8,207.5z"/>
</g>
<g>
	<g>
		<path class="st158" d="M303.5,128c-0.5,0-0.9-0.3-1-0.8l-1.9-10.4c-0.1-0.5,0.3-1.1,0.8-1.2c0.5-0.1,1.1,0.3,1.2,0.8l1.9,10.4
			c0.1,0.5-0.3,1.1-0.8,1.2C303.7,128,303.6,128,303.5,128z"/>
	</g>
	<g>
		<path class="st158" d="M308.5,128.1c-0.1,0-0.1,0-0.2,0c-0.5-0.1-0.9-0.6-0.8-1.1l1.6-10.5c0.1-0.5,0.6-0.9,1.1-0.8
			c0.5,0.1,0.9,0.6,0.8,1.1l-1.6,10.5C309.4,127.7,309,128.1,308.5,128.1z"/>
	</g>
	<g>
		<path class="st158" d="M312.3,129.2c-0.3,0-0.6-0.1-0.8-0.4c-0.3-0.4-0.2-1.1,0.2-1.4l8.6-6.2c0.4-0.3,1.1-0.2,1.4,0.2
			c0.3,0.4,0.2,1.1-0.2,1.4l-8.6,6.2C312.7,129.1,312.5,129.2,312.3,129.2z"/>
	</g>
</g>
<g>
	<path class="st158" d="M291.1,146.8v7.2c0,2.6-3.1,4.6-5.1,3.3l-9.8-6.3c-1.2-0.8-2.6-1-4.1-0.7l-80.7,14.6
		c-3.6,0.6-6.5-1.7-6.5-5.3v-21.2c0-3.6,2.9-7,6.5-7.7l93.3-16.8c3.6-0.6,6.5,1.7,6.5,5.3V146.8z"/>
</g>
<g>
	<path class="st160" d="M196,145.3c0.4,0.2,0.7,0.4,0.9,0.8c0.2,0.4,0.3,0.9,0.3,1.4c0,0.5-0.1,1-0.3,1.5c-0.2,0.5-0.5,0.8-0.9,1.1
		c-0.4,0.3-0.8,0.5-1.4,0.6c-0.4,0.1-0.8,0.1-1.1,0c-0.3-0.1-0.6-0.3-0.8-0.6v2.9l-1.3,0.2v-7.5l1.3-0.2v0.9
		c0.2-0.3,0.5-0.6,0.8-0.8s0.7-0.4,1.1-0.4C195.2,145.1,195.6,145.1,196,145.3z M195.5,149c0.3-0.4,0.4-0.8,0.4-1.3
		c0-0.5-0.1-0.9-0.4-1.1c-0.3-0.3-0.7-0.3-1.1-0.3c-0.5,0.1-0.8,0.3-1.1,0.7c-0.3,0.4-0.4,0.8-0.4,1.3c0,0.5,0.1,0.9,0.4,1.1
		c0.3,0.3,0.7,0.3,1.1,0.3C194.8,149.6,195.2,149.4,195.5,149z"/>
	<path class="st160" d="M201.7,149.5v-0.7c-0.2,0.3-0.4,0.5-0.7,0.7c-0.3,0.2-0.6,0.3-1,0.4c-0.4,0.1-0.7,0.1-1,0
		c-0.3-0.1-0.5-0.3-0.7-0.5c-0.2-0.2-0.2-0.5-0.2-0.8c0-0.5,0.2-0.9,0.5-1.3c0.4-0.4,0.9-0.6,1.5-0.7l1.6-0.3V146
		c0-0.3-0.1-0.6-0.3-0.7c-0.2-0.1-0.5-0.2-0.9-0.1c-0.5,0.1-1.1,0.4-1.6,0.8l-0.5-0.8c0.4-0.3,0.8-0.6,1.2-0.7
		c0.4-0.2,0.8-0.3,1.2-0.4c0.7-0.1,1.3-0.1,1.7,0.2c0.4,0.3,0.6,0.7,0.6,1.3l0,3.6L201.7,149.5z M201.2,148.3
		c0.3-0.2,0.4-0.5,0.5-0.8v-0.5l-1.4,0.2c-0.4,0.1-0.6,0.2-0.8,0.3c-0.2,0.1-0.3,0.3-0.3,0.6c0,0.2,0.1,0.4,0.3,0.5
		c0.2,0.1,0.4,0.1,0.7,0.1C200.6,148.7,200.9,148.5,201.2,148.3z"/>
	<path class="st160" d="M209.5,142.6v4.9c0,0.5-0.1,1-0.4,1.4s-0.6,0.8-1,1.1c-0.4,0.3-0.9,0.5-1.5,0.6c-0.8,0.1-1.6,0-2.3-0.3
		l0.5-1.1c0.5,0.3,1.1,0.4,1.7,0.3c0.5-0.1,0.9-0.3,1.2-0.6c0.3-0.3,0.4-0.7,0.4-1.1v-0.6c-0.2,0.3-0.4,0.6-0.7,0.8
		c-0.3,0.2-0.6,0.3-1,0.4c-0.5,0.1-0.9,0.1-1.3-0.1c-0.4-0.2-0.7-0.4-0.9-0.8c-0.2-0.4-0.3-0.8-0.3-1.3c0-0.5,0.1-1,0.3-1.4
		s0.5-0.8,0.9-1.1c0.4-0.3,0.8-0.5,1.3-0.6c0.4-0.1,0.7-0.1,1,0c0.3,0.1,0.5,0.3,0.7,0.5v-0.8L209.5,142.6z M207.7,146.6
		c0.3-0.3,0.4-0.7,0.4-1.2c0-0.5-0.1-0.8-0.4-1.1c-0.3-0.2-0.6-0.3-1-0.2c-0.4,0.1-0.8,0.3-1,0.6c-0.3,0.3-0.4,0.7-0.4,1.2
		c0,0.5,0.1,0.8,0.4,1.1c0.3,0.2,0.6,0.3,1,0.2C207.1,147.2,207.5,146.9,207.7,146.6z"/>
	<path class="st160" d="M214.9,141.9c0.4,0.2,0.8,0.4,1,0.8c0.2,0.4,0.4,0.8,0.4,1.4c0,0.6-0.1,1.1-0.4,1.5c-0.2,0.5-0.6,0.9-1,1.2
		c-0.4,0.3-0.9,0.5-1.5,0.6c-0.6,0.1-1.1,0.1-1.5-0.1c-0.4-0.2-0.8-0.4-1-0.8c-0.2-0.4-0.4-0.8-0.4-1.4c0-0.5,0.1-1,0.4-1.5
		c0.2-0.5,0.6-0.8,1-1.2c0.4-0.3,0.9-0.5,1.5-0.6C214,141.7,214.5,141.7,214.9,141.9z M212.3,143.6c-0.3,0.4-0.4,0.8-0.4,1.3
		s0.1,0.9,0.4,1.1c0.3,0.3,0.7,0.3,1.1,0.3c0.5-0.1,0.8-0.3,1.1-0.7s0.4-0.8,0.4-1.3c0-0.5-0.1-0.9-0.4-1.1s-0.7-0.3-1.1-0.3
		C213,143,212.6,143.3,212.3,143.6z"/>
	<path class="st160" d="M219.9,141.8c-0.3,0-0.5,0-0.8,0c-0.2,0-0.4,0.1-0.5,0.2c-0.1,0.1-0.2,0.2-0.2,0.4c0,0.2,0.1,0.3,0.3,0.3
		c0.2,0.1,0.4,0.1,0.8,0.1c0.4,0,0.7,0.1,0.9,0.2s0.5,0.2,0.6,0.4c0.2,0.2,0.3,0.5,0.3,0.8c0,0.5-0.2,1-0.6,1.3
		c-0.4,0.4-0.9,0.6-1.5,0.7c-0.4,0.1-0.8,0.1-1.2,0c-0.4-0.1-0.7-0.2-1-0.4l0.5-1c0.2,0.2,0.5,0.3,0.9,0.3s0.7,0.1,1,0
		c0.2,0,0.4-0.1,0.6-0.2c0.1-0.1,0.2-0.3,0.2-0.4c0-0.2-0.1-0.3-0.3-0.4c-0.2-0.1-0.4-0.1-0.8-0.2c-0.4,0-0.7-0.1-0.9-0.2
		c-0.2-0.1-0.4-0.2-0.6-0.4c-0.2-0.2-0.3-0.5-0.3-0.8c0-0.5,0.2-1,0.6-1.3c0.4-0.4,0.9-0.6,1.5-0.7c0.4-0.1,0.7-0.1,1.1,0
		s0.7,0.1,0.9,0.3l-0.5,1C220.4,141.9,220.1,141.9,219.9,141.8z"/>
	<path class="st160" d="M222.4,138.1l1.3-0.2v7.6l-1.3,0.2V138.1z"/>
	<path class="st160" d="M229.4,139.3c0.4,0.2,0.8,0.4,1,0.8c0.2,0.4,0.4,0.8,0.4,1.4c0,0.6-0.1,1.1-0.4,1.5s-0.6,0.9-1,1.2
		c-0.4,0.3-0.9,0.5-1.5,0.6c-0.6,0.1-1.1,0.1-1.5-0.1c-0.4-0.2-0.8-0.4-1-0.8s-0.4-0.8-0.4-1.4c0-0.5,0.1-1,0.4-1.5
		c0.2-0.5,0.6-0.9,1-1.2c0.4-0.3,0.9-0.5,1.5-0.6C228.4,139.1,228.9,139.1,229.4,139.3z M226.7,141c-0.3,0.4-0.4,0.8-0.4,1.3
		s0.1,0.9,0.4,1.1s0.7,0.3,1.1,0.3c0.4-0.1,0.8-0.3,1.1-0.7c0.3-0.4,0.4-0.8,0.4-1.3s-0.1-0.9-0.4-1.1c-0.3-0.3-0.7-0.3-1.1-0.3
		C227.4,140.4,227,140.7,226.7,141z"/>
	<path class="st160" d="M234.2,139.2c-0.4,0.1-0.8,0.3-1.1,0.6c-0.3,0.3-0.4,0.8-0.4,1.2c0,0.5,0.1,0.9,0.4,1.1
		c0.3,0.2,0.6,0.3,1.1,0.3c0.7-0.1,1.1-0.4,1.5-0.9l0.8,0.5c-0.2,0.4-0.6,0.7-1,1c-0.4,0.3-0.9,0.4-1.4,0.5c-0.5,0.1-1,0.1-1.4-0.1
		c-0.4-0.2-0.7-0.4-1-0.8c-0.2-0.4-0.3-0.8-0.3-1.4c0-0.6,0.1-1.1,0.4-1.5c0.2-0.5,0.6-0.9,1-1.2c0.4-0.3,0.9-0.5,1.4-0.6
		c0.5-0.1,0.9-0.1,1.3,0c0.4,0.1,0.7,0.3,1,0.6l-0.8,0.9C235.3,139.2,234.8,139.1,234.2,139.2z"/>
	<path class="st160" d="M240.7,142.4v-0.7c-0.2,0.3-0.4,0.5-0.7,0.7c-0.3,0.2-0.6,0.3-1,0.4c-0.4,0.1-0.7,0.1-1,0
		c-0.3-0.1-0.5-0.3-0.7-0.5c-0.2-0.2-0.2-0.5-0.2-0.8c0-0.5,0.2-0.9,0.5-1.3c0.4-0.4,0.9-0.6,1.5-0.7l1.6-0.3V139
		c0-0.3-0.1-0.6-0.3-0.7c-0.2-0.1-0.5-0.2-0.9-0.1c-0.5,0.1-1.1,0.4-1.6,0.8l-0.5-0.8c0.4-0.3,0.8-0.6,1.2-0.7
		c0.4-0.2,0.8-0.3,1.2-0.4c0.7-0.1,1.3-0.1,1.7,0.2c0.4,0.3,0.6,0.7,0.6,1.3l0,3.6L240.7,142.4z M240.2,141.3
		c0.3-0.2,0.4-0.5,0.5-0.8V140l-1.4,0.2c-0.4,0.1-0.6,0.2-0.8,0.3c-0.2,0.1-0.2,0.3-0.2,0.6c0,0.2,0.1,0.4,0.3,0.5
		c0.2,0.1,0.4,0.1,0.7,0.1C239.6,141.6,239.9,141.5,240.2,141.3z"/>
	<path class="st160" d="M243.5,134.3l1.3-0.2v7.6l-1.3,0.2V134.3z"/>
	<path class="st160" d="M250.8,135.8c0.4,0.4,0.7,1.1,0.7,2c0,0.2,0,0.3,0,0.4l-4,0.7c0.1,0.4,0.3,0.6,0.5,0.8
		c0.3,0.2,0.6,0.2,1,0.1c0.3-0.1,0.5-0.2,0.8-0.3c0.3-0.2,0.5-0.3,0.7-0.6l0.7,0.6c-0.3,0.3-0.6,0.6-1,0.9s-0.8,0.4-1.3,0.5
		c-0.6,0.1-1.1,0.1-1.5-0.1c-0.4-0.2-0.8-0.4-1-0.8c-0.2-0.4-0.3-0.8-0.3-1.4c0-0.5,0.1-1.1,0.4-1.5c0.2-0.5,0.6-0.9,1-1.2
		c0.4-0.3,0.9-0.5,1.4-0.6C249.7,135.3,250.4,135.4,250.8,135.8z M250.3,137.5c0-0.4-0.1-0.7-0.4-0.9c-0.3-0.2-0.6-0.3-1-0.2
		c-0.4,0.1-0.7,0.2-1,0.5c-0.3,0.3-0.4,0.6-0.5,1.1L250.3,137.5z"/>
	<path class="st160" d="M255,135.5c-0.3,0-0.5,0-0.8,0c-0.2,0-0.4,0.1-0.5,0.2c-0.1,0.1-0.2,0.2-0.2,0.4c0,0.2,0.1,0.3,0.3,0.3
		c0.2,0.1,0.4,0.1,0.8,0.1c0.4,0,0.7,0.1,0.9,0.2c0.2,0.1,0.5,0.2,0.6,0.4c0.2,0.2,0.3,0.5,0.3,0.8c0,0.5-0.2,1-0.6,1.3
		c-0.4,0.4-0.9,0.6-1.5,0.7c-0.4,0.1-0.8,0.1-1.2,0c-0.4-0.1-0.7-0.2-1-0.4l0.5-1c0.2,0.2,0.5,0.3,0.9,0.3c0.3,0.1,0.7,0.1,1,0
		c0.2,0,0.4-0.1,0.6-0.2c0.1-0.1,0.2-0.3,0.2-0.4c0-0.2-0.1-0.3-0.3-0.4c-0.2-0.1-0.4-0.1-0.8-0.2c-0.4,0-0.7-0.1-0.9-0.2
		c-0.2-0.1-0.4-0.2-0.6-0.4c-0.2-0.2-0.3-0.5-0.3-0.8c0-0.5,0.2-1,0.6-1.3c0.4-0.4,0.9-0.6,1.5-0.7c0.4-0.1,0.7-0.1,1.1,0
		c0.4,0,0.7,0.1,0.9,0.3l-0.5,1C255.6,135.6,255.3,135.5,255,135.5z"/>
	<path class="st160" d="M258.4,138c0.1,0.1,0.2,0.3,0.2,0.5c0,0.2-0.1,0.4-0.2,0.6s-0.3,0.3-0.5,0.3c-0.2,0-0.4,0-0.5-0.1
		c-0.1-0.1-0.2-0.3-0.2-0.5s0.1-0.4,0.2-0.6c0.1-0.2,0.3-0.3,0.5-0.3C258.1,137.9,258.2,137.9,258.4,138z"/>
	<path class="st160" d="M262.2,134.2c-0.4,0.1-0.8,0.3-1.1,0.6c-0.3,0.3-0.4,0.8-0.4,1.2c0,0.5,0.1,0.9,0.4,1.1
		c0.3,0.2,0.6,0.3,1.1,0.3c0.7-0.1,1.1-0.4,1.5-0.9l0.8,0.5c-0.2,0.4-0.6,0.7-1,1c-0.4,0.3-0.9,0.4-1.4,0.5c-0.5,0.1-1,0.1-1.4-0.1
		c-0.4-0.2-0.7-0.4-1-0.8c-0.2-0.4-0.3-0.8-0.3-1.4c0-0.6,0.1-1.1,0.4-1.5c0.2-0.5,0.6-0.9,1-1.2s0.9-0.5,1.4-0.6
		c0.5-0.1,0.9-0.1,1.3,0c0.4,0.1,0.7,0.3,1,0.6l-0.8,0.9C263.2,134.2,262.8,134.1,262.2,134.2z"/>
	<path class="st160" d="M269.3,132.1c0.4,0.2,0.8,0.4,1,0.8c0.2,0.4,0.4,0.8,0.4,1.4c0,0.6-0.1,1.1-0.4,1.5c-0.2,0.5-0.6,0.9-1,1.2
		c-0.4,0.3-0.9,0.5-1.5,0.6c-0.6,0.1-1.1,0.1-1.5-0.1c-0.4-0.2-0.8-0.4-1-0.8c-0.2-0.4-0.4-0.8-0.4-1.4c0-0.5,0.1-1,0.4-1.5
		s0.6-0.8,1-1.2c0.4-0.3,0.9-0.5,1.5-0.6C268.4,131.9,268.9,131.9,269.3,132.1z M266.7,133.8c-0.3,0.4-0.4,0.8-0.4,1.3
		s0.1,0.9,0.4,1.1c0.3,0.3,0.7,0.3,1.1,0.3c0.5-0.1,0.8-0.3,1.1-0.7s0.4-0.8,0.4-1.3c0-0.5-0.1-0.9-0.4-1.1s-0.7-0.3-1.1-0.3
		C267.4,133.2,267,133.4,266.7,133.8z"/>
	<path class="st160" d="M280.5,130.3c0.4,0.3,0.5,0.8,0.5,1.4v3.4l-1.3,0.2v-3c0-0.4-0.1-0.7-0.3-0.9c-0.2-0.2-0.5-0.2-0.9-0.2
		c-0.4,0.1-0.8,0.3-1,0.6s-0.4,0.7-0.4,1.2v2.7l-1.3,0.2v-3c0-0.4-0.1-0.7-0.3-0.9c-0.2-0.2-0.5-0.2-0.9-0.2c-0.4,0.1-0.8,0.3-1,0.6
		c-0.2,0.3-0.4,0.7-0.4,1.2v2.7l-1.3,0.2v-5.5l1.3-0.2v1c0.4-0.8,1-1.2,1.9-1.4c0.5-0.1,0.9,0,1.2,0.1s0.6,0.5,0.7,0.8
		c0.3-0.9,1-1.5,2-1.7C279.6,129.9,280.1,130,280.5,130.3z"/>
</g>
</svg>
