<?xml version="1.0" encoding="utf-8"?>
<!-- Generator: Adobe Illustrator 24.0.2, SVG Export Plug-In . SVG Version: 6.00 Build 0)  -->
<svg version="1.1" id="Capa_1" xmlns="http://www.w3.org/2000/svg" xmlns:xlink="http://www.w3.org/1999/xlink" x="0px" y="0px"
	 viewBox="0 0 56.7 56.7" style="enable-background:new 0 0 56.7 56.7;" xml:space="preserve">
<style type="text/css">
	.st0{fill-rule:evenodd;clip-rule:evenodd;fill:#FF40D7;}
</style>
<path class="st0" d="M28.3,8.9c-10.8,0-19.5,8.7-19.5,19.5c0,10.8,8.7,19.5,19.5,19.5c10.8,0,19.5-8.7,19.5-19.5
	C47.8,17.6,39.1,8.9,28.3,8.9z M4.5,28.3c0-13.2,10.7-23.8,23.8-23.8c13.2,0,23.8,10.7,23.8,23.8c0,13.2-10.7,23.8-23.8,23.8
	C15.2,52.2,4.5,41.5,4.5,28.3z M28.9,19.7c-1-0.2-2,0-2.9,0.5c-0.9,0.5-1.6,1.3-1.9,2.3c-0.4,1.1-1.6,1.7-2.8,1.3
	c-1.1-0.4-1.7-1.6-1.3-2.8c0.7-1.9,2-3.6,3.8-4.6c1.8-1,3.8-1.4,5.9-1.1c2,0.3,3.8,1.4,5.2,3c1.3,1.6,2,3.5,2,5.6
	c0,3.3-2.5,5.5-4.2,6.7c-0.9,0.6-1.9,1.1-2.6,1.4c-0.3,0.2-0.6,0.3-0.8,0.3c-0.1,0-0.2,0.1-0.3,0.1l-0.1,0l0,0l0,0l0,0
	c0,0,0,0-0.7-2.1l0.7,2.1c-1.1,0.4-2.4-0.2-2.7-1.4c-0.4-1.1,0.2-2.4,1.4-2.7l0,0c0,0,0.1,0,0.2-0.1c0.1-0.1,0.4-0.1,0.6-0.3
	c0.5-0.2,1.2-0.6,1.9-1c1.5-1,2.3-2.1,2.3-3.1v0c0-1-0.4-2-1-2.8C30.8,20.4,29.9,19.9,28.9,19.7z M26.2,39.2c0-1.2,1-2.2,2.2-2.2h0
	c1.2,0,2.2,1,2.2,2.2c0,1.2-1,2.2-2.2,2.2h0C27.2,41.3,26.2,40.4,26.2,39.2z"/>
</svg>
