<?xml version="1.0" encoding="utf-8"?>
<!-- Generator: Adobe Illustrator 24.0.2, SVG Export Plug-In . SVG Version: 6.00 Build 0)  -->
<svg version="1.1" id="Capa_1" xmlns="http://www.w3.org/2000/svg" xmlns:xlink="http://www.w3.org/1999/xlink" x="0px" y="0px"
	 viewBox="0 0 42 42" style="enable-background:new 0 0 42 42;" xml:space="preserve">
<style type="text/css">
	.st0{clip-path:url(#SVGID_2_);}
	.st1{fill:#FFFFFF;}
	.st2{fill:#FF00EA;}
</style>
<g>
	<defs>
		<rect id="SVGID_1_" width="42" height="42"/>
	</defs>
	<clipPath id="SVGID_2_">
		<use xlink:href="#SVGID_1_"  style="overflow:visible;"/>
	</clipPath>
	<g class="st0">
		<rect class="st1" width="42" height="42"/>
		<g>
			<circle class="st2" cx="21" cy="21" r="20"/>
		</g>
		<path class="st1" d="M23,20h-1v-4h2c0.3,0,0.5,0.1,0.7,0.3S25,16.7,25,17s0.1,0.5,0.3,0.7S25.7,18,26,18s0.5-0.1,0.7-0.3
			S27,17.3,27,17c0-0.8-0.3-1.6-0.9-2.1C25.6,14.3,24.8,14,24,14h-2v-2c0-0.3-0.1-0.5-0.3-0.7S21.3,11,21,11s-0.5,0.1-0.7,0.3
			S20,11.7,20,12v2h-1c-1.1,0-2.1,0.4-2.8,1.2C15.4,15.9,15,16.9,15,18s0.4,2.1,1.2,2.8c0.8,0.8,1.8,1.2,2.8,1.2h1v4h-2
			c-0.3,0-0.5-0.1-0.7-0.3S17,25.3,17,25s-0.1-0.5-0.3-0.7S16.3,24,16,24s-0.5,0.1-0.7,0.3S15,24.7,15,25c0,0.8,0.3,1.6,0.9,2.1
			c0.6,0.6,1.3,0.9,2.1,0.9h2v2c0,0.3,0.1,0.5,0.3,0.7S20.7,31,21,31s0.5-0.1,0.7-0.3S22,30.3,22,30v-2h1c1.1,0,2.1-0.4,2.8-1.2
			c0.8-0.8,1.2-1.8,1.2-2.8s-0.4-2.1-1.2-2.8C25.1,20.4,24.1,20,23,20L23,20z M20,20h-1c-0.5,0-1-0.2-1.4-0.6C17.2,19,17,18.5,17,18
			s0.2-1,0.6-1.4C18,16.2,18.5,16,19,16h1V20z M23,26h-1v-4h1c0.5,0,1,0.2,1.4,0.6C24.8,23,25,23.5,25,24s-0.2,1-0.6,1.4
			C24,25.8,23.5,26,23,26z"/>
	</g>
</g>
</svg>
