<?xml version="1.0" encoding="utf-8"?>
<!-- Generator: Adobe Illustrator 24.0.2, SVG Export Plug-In . SVG Version: 6.00 Build 0)  -->
<svg version="1.1" id="Capa_1" xmlns="http://www.w3.org/2000/svg" xmlns:xlink="http://www.w3.org/1999/xlink" x="0px" y="0px"
	 viewBox="0 0 65 33" style="enable-background:new 0 0 65 33;" xml:space="preserve">
<style type="text/css">
	.st0{fill:#FFFFFF;}
	.st1{fill-rule:evenodd;clip-rule:evenodd;fill:#FF40D7;}
</style>
<rect class="st0" width="65" height="33"/>
<path class="st1" d="M20.8,7.6c-0.7,0-1.2,0.6-1.2,1.3v3.8h25V8.9c0-0.7-0.6-1.3-1.2-1.3H20.8z M47,8.9c0-2.1-1.7-3.8-3.8-3.8H20.8
	c-2.1,0-3.8,1.7-3.8,3.8v15.3c0,2.1,1.7,3.8,3.8,3.8h22.5c2.1,0,3.8-1.7,3.8-3.8V8.9z M44.5,15.3h-25v8.9c0,0.7,0.6,1.3,1.2,1.3
	h22.5c0.7,0,1.2-0.6,1.2-1.3V15.3z"/>
</svg>
