<?xml version="1.0" standalone="no"?>
<!DOCTYPE svg PUBLIC "-//W3C//DTD SVG 1.1//EN" "http://www.w3.org/Graphics/SVG/1.1/DTD/svg11.dtd">
<svg xmlns="http://www.w3.org/2000/svg">
<metadata>Copyright (C) 2021 by original authors @ fontello.com</metadata>
<defs>
<font id="fontello" horiz-adv-x="1000" >
<font-face font-family="fontello" font-weight="400" font-stretch="normal" units-per-em="1000" ascent="850" descent="-150" />
<missing-glyph horiz-adv-x="1000" />
<glyph glyph-name="agregar" unicode="&#xe800;" d="M500 720c-205 0-370-165-370-370 0-205 165-370 370-370 205 0 370 165 370 370 0 205-165 370-370 370z m-450-370c0 250 200 455 450 455 250 0 450-205 450-455 0-250-200-455-450-455-250 0-450 205-450 455z m450 205c25 0 40-20 40-40v-125h125c25 0 40-20 40-40 0-25-20-40-40-40h-125v-125c0-25-20-40-40-40s-40 20-40 40v125h-125c-25 0-40 20-40 40 0 25 20 40 40 40h125v125c0 25 15 40 40 40z" horiz-adv-x="1000" />

<glyph glyph-name="agregar-bolsillo" unicode="&#xe801;" d="M500 720c-205 0-370-165-370-370s165-370 370-370 370 165 370 370-165 370-370 370z m-450-370c0 250 200 455 450 455s450-205 450-455-200-455-450-455-450 205-450 455z m450 205c25 0 40-20 40-40v-125h125c25 0 40-20 40-40 0-25-20-40-40-40h-125v-125c0-25-20-40-40-40s-40 20-40 40v125h-125c-25 0-40 20-40 40 0 25 20 40 40 40h125v125c0 25 15 40 40 40z" horiz-adv-x="1000" />

<glyph glyph-name="agregar-imagen" unicode="&#xe802;" d="M500 720c-205 0-370-165-370-370s165-370 370-370 370 165 370 370-165 370-370 370z m-450-370c0 250 200 455 450 455s450-205 450-455-200-455-450-455-450 205-450 455z m450 205c25 0 40-20 40-40v-125h125c25 0 40-20 40-40 0-25-20-40-40-40h-125v-125c0-25-20-40-40-40s-40 20-40 40v125h-125c-25 0-40 20-40 40 0 25 20 40 40 40h125v125c0 25 15 40 40 40z" horiz-adv-x="1000" />

<glyph glyph-name="ahorro" unicode="&#xe803;" d="M460 390c0-15 15-30 30-30s30 15 30 30c0 35-30 60-75 70-5 10-15 15-25 15-10 0-20-5-25-15-50-10-80-35-80-70 0-50 45-70 75-75v-40c-10 5-15 5-15 5 0 15-15 30-30 30-15 0-30-15-30-30 0-35 30-60 75-70 5-10 15-15 25-15 10 0 20 5 25 15 45 10 75 35 75 70 0 50-45 70-75 75v40c15 0 20-5 20-5z m-10-115v20c15-5 15-10 15-10-5-5-10-10-15-10z m-60 120v-20c-15 10-15 10-15 15 0 0 5 5 15 5z m325-25c5 10 25 10 30 0 5-15 25-25 40-20 15 5 25 25 20 40-10 30-40 50-70 50-30 0-60-20-70-50-5-15 0-35 20-40 5 0 5 0 10 0 5 0 10 0 10 5 0 0 10 5 10 15z m225 25c-10 10-20 15-30 15h-25c-10 45-35 90-65 125-30 35-70 65-115 85-5 40-25 65-55 90-30 25-65 30-65 30-10 0-15 0-25-5-5-10-10-20-10-25v-60h-25c-20 45-60 75-110 75-50 0-95-30-110-80-70-10-130-45-180-100-50-60-80-135-80-210 0-170 90-310 115-350 10-15 30-25 50-25h60c35 0 60 25 60 60v0c10 0 20 0 30 0h120c0-35 25-60 60-60h60c30 0 55 20 60 50l5 25c85 25 160 85 200 170h45c25 0 45 20 45 45v115c0 10-5 25-15 30z m-270-195c-10 0-15 0-25-5-5-5-10-10-15-20l-30-155-65 0v60c0 15-10 30-25 30 15 0 25 15 25 30v30c0 15-15 30-30 30s-30-15-30-30v-30c0-15 10-30 25-30-15 0-25-15-25-30h-115c-10 0-20 0-30 0v90c0 15-15 30-30 30-15 0-30-15-30-30l0-150-60 0c-25 35-105 160-105 315 0 65 25 125 65 170 30 35 75 60 120 75-5-5-5-15-5-20 0-15 15-30 30-30h210c15 0 30 15 30 30 0 10-5 20-15 25 0 0 0 0 0 5h10v-15c0-15 15-30 30-30 15 0 30 15 30 30v90c20-15 45-45 45-105 0-15 15-30 30-30 15 0 25 10 30 20 20-15 45-30 60-50 25-30 45-70 55-115 5-20 20-35 35-35 0 0 0 0 0 0-15 0-30-10-30-30-5-95-65-185-155-220l15 65c0 15-10 30-25 35z m215 60c5 15 5 35 10 50l0-50h-10z m10 65c0 10-10 20-25 25 0 0 5 0 5 0h20v-25z m-475 340c35 0 60-25 60-60 0-5 0-10 0-15h-120c0 5 0 10 0 15 0 30 25 60 60 60z" horiz-adv-x="1000" />

<glyph glyph-name="anular-rechazar" unicode="&#xe804;" d="M190 705c-25 0-45-20-45-45v-620c0-25 20-45 45-45h620c25 0 45 20 45 45v620c0 25-20 45-45 45h-620z m-130-45c0 75 60 135 135 135h620c75 0 135-60 135-135v-620c0-75-60-135-135-135h-625c-75 0-135 60-135 135v620z m275-145c15 15 45 15 65 0l100-100 100 100c15 15 45 15 65 0 15-15 15-45 0-65l-100-100 100-100c15-15 15-45 0-65-15-15-45-15-65 0l-100 100-100-100c-15-15-45-15-65 0-15 15-15 45 0 65l100 100-100 100c-15 20-15 45 0 65z" horiz-adv-x="1000" />

<glyph glyph-name="asignar-rol" unicode="&#xe805;" d="M850 595h-140v50c0 10 0 25-5 35-15 35-40 65-80 80-10 5-25 5-35 5h-180c-30 0-60-10-85-35-25-20-35-50-35-85v-50h-140c-70 0-125-55-125-120v-425c0-65 55-120 125-120h700c70 0 125 55 125 120v420c0 70-55 125-125 125z m55-120v-425c0-30-25-50-50-50h-140v525h135c30 0 55-20 55-50z m-265 50v-525h-280v525h280z m0 120v-50h-280v50c0 15 5 30 15 40 10 10 25 10 35 10h175c15 0 30 0 40-10 15-15 15-25 15-40z m-545-170c0 30 25 50 50 50h140v-525h-135c-30 0-50 25-50 50l-5 425z" horiz-adv-x="1000" />

<glyph glyph-name="automovil" unicode="&#xe806;" d="M335 240c0-30-25-50-50-50s-50 25-50 50c0 30 25 50 50 50s50-25 50-50z m430 0c0-30-25-50-50-50-30 0-50 25-50 50 0 30 25 50 50 50 30 0 50-25 50-50z m-395 375c-40 0-70-25-80-65l-35-150c-5-10 0-25 10-35 5-10 20-15 30-15h410c10 0 25 5 30 15 10 10 10 20 10 35l-35 150c-10 35-40 65-80 65h-260z m-25-185l25 100h260l25-100h-310z m-165 235c15 55 65 95 120 95h400c55 0 105-40 120-95l40-185c55-30 90-85 90-145v-190c0-55-45-100-100-100h0c-10-60-60-100-120-100s-110 45-120 100h-215c-10-60-60-100-120-100-60 0-110 45-120 100h0c-55 0-100 45-100 100v190c-5 60 30 115 80 145l45 185z m120 10c-20 0-35-15-40-30l-45-200c-5-15-15-25-25-30l-15-5c-25-15-45-45-45-75v-190c0-10 10-20 20-20h40c25 0 40-20 40-40v-20c0-25 20-40 40-40 25 0 40 20 40 40v20c0 25 20 40 40 40h285c25 0 40-20 40-40v-20c0-25 20-40 40-40 25 0 40 20 40 40v20c0 25 20 40 40 40h55c10 0 20 10 20 20v190c0 30-20 60-45 75l-15 5c-10 5-20 15-20 30l-45 200c-5 20-20 30-40 30h-405z" horiz-adv-x="1000" />

<glyph glyph-name="billetera-movil" unicode="&#xe807;" d="M190 543v-96h627v100c0 16-14 33-30 33h-567c0 0-30 3-30-37z m687 4c0 53-44 96-94 96h-563c-53 0-97-43-97-96v-390c0-54 44-97 94-97h563c53 0 93 43 93 97l4 390z m-64-164h-626v-226c0-17 13-34 30-34h563c17 0 30 14 30 34v226c0 0 3 0 3 0z" horiz-adv-x="1000" />

<glyph glyph-name="buscar" unicode="&#xe808;" d="M455 710c-175 0-315-140-315-315s140-315 315-315c85 0 160 35 220 90 0 0 0 5 5 5s5 5 5 5c55 55 90 135 90 220-5 170-145 310-320 310z m315-565c55 70 90 155 90 250 0 225-180 405-405 405s-405-180-405-405 180-405 405-405c95 0 185 35 250 90l165-165c20-20 45-20 65 0 20 20 20 45 0 65l-165 165z" horiz-adv-x="1000" />

<glyph glyph-name="cambiar" unicode="&#xe809;" d="M460 775c20 20 55 20 80 0l385-385c20-20 20-55 0-80l-385-385c-20-20-55-20-80 0-20 20-20 55 0 80l295 295h-640c-30 0-55 25-55 55 0 30 25 55 55 55h640l-295 290c-20 20-20 55 0 75z" horiz-adv-x="1000" />

<glyph glyph-name="casa" unicode="&#xe80a;" d="M475 750c15 10 35 10 50 0l310-245c0 0 0 0 0 0l105-80c20-15 20-40 5-60-15-20-40-20-60-5l-35 30v-405c0-25-20-40-40-40h-620c-25 0-40 20-40 40v405l-35-30c-15-15-45-10-55 5-15 20-15 45 5 60l105 80c0 0 0 0 0 0l305 245z m-240-295l265 210 265-215v-430h-125v225c0 25-20 40-40 40h-205c-25 0-40-20-40-40v-225h-120v435z m205-435h125v185h-125v-185z" horiz-adv-x="1000" />

<glyph glyph-name="check" unicode="&#xe80b;" d="M765-60h-560c-75 0-135 60-135 130v550c0 70 60 130 135 130h470c20 0 40-20 40-40s-15-40-35-40h-475c-30 0-55-25-55-50v-550c0-30 25-50 55-50h560c30 0 55 25 55 50v290c0 20 20 40 40 40s40-20 40-40v-285c0-75-60-135-135-135z m-290 290c-10 0-20 5-30 10l-135 135c-15 15-15 40 0 55 15 20 45 20 60 5l110-110 385 390c15 15 40 15 55 0 15-15 15-40 0-55l-415-420c-5-10-15-10-30-10 0 0 0 0 0 0z" horiz-adv-x="1000" />

<glyph glyph-name="comercial" unicode="&#xe80c;" d="M920 45c0-90-105-150-230-150-80 0-150 25-190 65-40-40-110-65-190-65-120 0-220 55-230 145l0 5v610l0 5c10 90 110 145 230 145 125 0 230-60 230-150l0-190c40 25 95 35 150 35 125 0 230-60 230-150v0-305z m-610 0c-60 0-110 15-150 35l0-35c0-30 65-65 150-65 85 0 145 35 150 60l0 5 0 35c-40-20-90-35-150-35z m380 0c-60 0-110 15-150 35v-35c0-30 65-65 150-65 85 0 145 35 150 60l0 5 0 35c-40-20-90-35-150-35z m-380 155c-60 0-110 15-150 35l0-35c0-30 65-65 150-65 85 0 145 35 150 60l0 5 0 35c-40-25-90-35-150-35z m530 35c-40-25-90-35-150-35-60 0-110 15-150 35l0-35c0-30 65-65 150-65 85 0 145 35 150 60l0 5 0 35z m-530 115c-60 0-110 15-150 35l0-35c0-30 65-65 150-65 85 0 145 35 150 60l0 5 0 35c-40-20-90-35-150-35z m380 65c-85 0-150-35-150-65s65-65 150-65 150 35 150 65-65 65-150 65z m-230 125c-40-25-90-40-150-40-55 0-110 15-150 40l0-35c0-30 65-65 150-65 85 0 145 35 150 60l0 5 0 35z m-150 180c-85 0-150-35-150-65s65-65 150-65 150 35 150 65-65 65-150 65z" horiz-adv-x="1000" />

<glyph glyph-name="configuracion" unicode="&#xe80d;" d="M500 725c-10 0-20-5-25-10-10-10-15-20-15-25v-5c0-20-5-40-15-55-10-20-25-30-45-40-5 0-5 0-10-5-15-5-35-5-50-5-20 5-40 15-50 25l0 0 0 0c-5 10-10 15-15 15-5 0-10 5-15 5s-10 0-15-5c-5 0-10-5-10-10l0 0c-5 0-5-5-10-10 0-5-5-10-5-15s0-10 5-15c0-5 5-10 10-10l5-5c15-15 25-30 25-50 5-20 0-40-5-55-10-20-20-35-40-45-15-15-35-20-55-20l0 0h-5c-10 0-20-5-25-10s-10-15-10-25c0-10 5-20 10-25s15-10 25-10h5c20 0 40-5 55-15 20-20 30-35 40-50 10-20 10-40 5-60-5-20-15-40-25-50l0 0 0 0c-5-5-5-10-10-10 0-5-5-10-5-15 0-5 0-10 5-15 0-5 5-10 10-10l0 0c5-5 10-5 10-10 5 0 10-5 15-5s10 0 15 5c5 0 10 5 10 10l5 5c15 15 30 25 50 25 20 5 40 0 55-5 20-5 35-20 45-35 10-15 20-35 20-55l0 0v-5c0-10 5-20 10-25 5-5 15-10 25-10 10 0 20 5 25 10 5 5 10 15 10 25v5l0 0c0 20 5 40 15 55 10 15 25 30 45 35 20 10 40 10 60 5 20-5 40-15 50-25l0 0 0 0c5-5 10-5 10-10 5 0 10-5 15-5 5 0 10 0 15 5 5 0 10 5 10 10l0 0c5 5 5 10 10 10 0 5 5 10 5 15 0 5 0 10-5 15 0 5-5 10-10 10l-5 5c-15 15-25 30-25 50-5 20 0 40 5 60 10 20 20 35 35 45 15 10 35 15 55 15l0 0 5 0c10 0 20 5 25 10 5 5 10 15 10 25s-5 20-10 25c-5 5-15 10-25 10h-5l0 0c-20 0-40 5-55 15-5 10-15 25-25 45 0 5 0 5-5 10-5 15-5 35-5 50 5 20 15 40 25 50l0 0 0 0c5 5 5 10 10 10 0 5 5 10 5 15s0 10-5 15c0 5-5 10-10 10l0 0c-5 5-10 5-10 10-5 0-10 5-15 5-5 0-10 0-15-5-5 0-10-5-10-10l-5-5c-15-15-30-25-50-25-20-5-40 0-60 5-20 10-35 20-45 35-10 15-15 35-15 55l0 0v15c0 10-5 20-10 25 0 5-10 10-20 10z m-80 40c20 25 50 35 80 35s60-10 80-35c20-20 35-50 35-80v-5c0-5 0-10 5-15 5-5 5-5 10-10l0 0c5 0 10-5 15 0 5 0 10 5 15 5l0 0c10 10 25 20 35 25 10 15 25 15 40 15 15 0 30 0 45-5 15-5 25-15 35-25 10-10 20-25 25-35 5-15 10-30 10-45s-5-30-10-45c-5-15-15-25-25-35 0 0 0 0 0 0l0 0c-5-5-5-10-5-15 0-5 0-10 0-15 0 0 0-5 0-5 0-5 5-5 5-5 5-5 10-5 15-5h5c30 0 60-10 80-35 20-20 35-50 35-80s-10-60-35-80c-20-20-50-35-80-35h-5c-5 0-10 0-15-5-5-5-5-5-10-10l0 0c0-5-5-10 0-15 0-5 5-10 5-15l0 0c0 0 0 0 0 0 10-10 20-25 25-35 5-15 10-30 10-45 0-15-5-30-10-45-5-15-15-25-25-35l-25 25 25-25c-10-10-25-20-35-25-15-5-30-10-45-10-15 0-30 5-45 10-15 5-25 15-35 25 0 0 0 0 0 0l0 0c-5 5-10 5-15 5-5 0-10 0-15 0l0 0c-5 0-10-5-10-10-5-5-5-10-5-15v-5c0-30-10-60-35-80-20-20-50-35-80-35-30 0-60 10-80 35-20 20-35 50-35 80v5c0 5 0 10-5 15-5 5-5 5-10 10 0 0 0 0 0 0-5 0-10 5-15 0-5 0-10-5-15-5l0 0c0 0 0 0 0 0-10-10-25-20-35-25 0-5-15-5-30-5s-30 0-45 5c-15 5-25 15-35 25-10 10-20 25-25 35-5 15-10 30-10 45 0 15 5 30 10 45 5 15 15 25 25 35l0 0c5 5 5 10 5 15 0 5 0 10 0 15l0 0c0 5-5 10-10 10-5 5-10 5-15 5h-5c-30 0-60 10-80 35-20 20-35 50-35 80 0 30 10 60 35 80 20 20 50 35 80 35h5c5 0 10 0 15 5 5 5 5 5 10 10 0 0 0 0 0 0 0 5 5 10 0 15 0 5-5 10-5 15l0 0c-15 5-20 20-30 35-5 10-5 25-5 40s0 30 5 45c5 15 15 25 25 35 10 10 25 20 35 25 15 5 30 10 45 10s30-5 45-10c15-5 25-15 35-25l0 0c5-5 10-5 15-10 5 0 10 0 15 0 0 0 5 0 5 0 5 0 5 5 5 5 5 5 5 10 5 15v15c5 25 15 55 35 75z m80-340c-40 0-75-35-75-75s35-75 75-75 75 35 75 75-35 75-75 75z m-150-75c0 85 65 150 150 150 85 0 150-65 150-150 0-85-65-150-150-150-85 0-150 65-150 150z" horiz-adv-x="1000" />

<glyph glyph-name="contrasena" unicode="&#xe80e;" d="M810-90h-620c-70 0-125 55-125 120v280c0 65 55 120 125 120h50v120c0 65 30 125 80 170s115 70 180 70 135-25 180-70c50-45 75-105 75-170v-125h50c70 0 125-55 125-120v-280c10-60-50-115-120-115z m-620 440c-30 0-50-20-50-45v-280c0-25 25-45 50-45h620c30 0 50 20 50 45v280c0 25-25 45-50 45h-620z m125 75h370v125c0 45-20 85-55 115-70 60-195 60-265 0-30-30-50-70-50-115v-125z" horiz-adv-x="1000" />

<glyph glyph-name="contrasena-erronea" unicode="&#xe80f;" d="M810-90h-620c-70 0-125 55-125 120v280c0 65 55 120 125 120h50v120c0 65 30 125 80 170s115 70 180 70 135-25 180-70c50-45 75-105 75-170v-125h50c70 0 125-55 125-120v-280c10-60-50-115-120-115z m-620 440c-30 0-50-20-50-45v-280c0-25 25-45 50-45h620c30 0 50 20 50 45v280c0 25-25 45-50 45h-620z m125 75h370v125c0 45-20 85-55 115-70 60-195 60-265 0-30-30-50-70-50-115v-125z" horiz-adv-x="1000" />

<glyph glyph-name="contrasena-seleccionada" unicode="&#xe810;" d="M810-90h-620c-70 0-125 55-125 120v280c0 65 55 120 125 120h50v120c0 65 30 125 80 170 50 45 115 70 180 70s135-25 180-70c50-45 75-105 75-170v-125h50c70 0 125-55 125-120v-280c10-60-50-115-120-115z m-620 440c-30 0-50-20-50-45v-280c0-25 25-45 50-45h620c30 0 50 20 50 45v280c0 25-25 45-50 45h-620z m125 75h370v125c0 45-20 85-55 115-70 60-195 60-265 0-30-30-50-70-50-115v-125z" horiz-adv-x="1000" />

<glyph glyph-name="crear-cuenta-bancaria" unicode="&#xe811;" d="M900 288l-134 142v280c0 46-38 82-82 82h-372c-46 0-82-38-82-82v-80h46v26h442v-364l-10 10c-6 6-20 12-30 16v220c0 46-38 82-82 82h-456c-46 0-82-38-82-82v-260c0-46 38-82 82-82h460 4l0 0 110-110v-4c-4-4-4-10-6-12h-428v116h-48v-196c0-46 38-82 82-82h374c6 0 12 0 20 4v-4h46v26c0 4 0 6-4 10-16 38-12 84 6 120l10 16c6 10 4 20-4 30l-124 124c-10 12-10 26 0 38 10 10 26 10 38 0l160-160 32 32-100 100v116l98-104c20-22 30-52 30-78v-270h46v274c0 34-14 74-42 106z m-178 422v-6h-442v6c0 20 16 32 32 32h374c20 4 36-12 36-32z m-156-402c0 4 4 6 6 6s6-4 6-6c0-4-4-6-6-6s-6 2-6 6z m-46 0c0-4-4-6-6-6s-6 4-6 6c0 4 4 6 6 6 6 0 6-6 6-6z m22 42c-20 12-48 10-68-6-20-20-20-52 0-74 16-20 46-22 68-6 12-10 26-10 42-6 0-4 0-6 0-10h-444c-20 0-32 16-32 32v260c0 20 16 32 32 32h460c20 0 32-16 32-32v-218c-4 0-6-4-10-4-4 16-12 32-32 38-14 6-32 4-48-6z m156-390c-4 0-6-4-10-4h-376c-20 0-32 16-32 32v32h416c-4-18 0-36 2-60z m-470 468c12 0 26 10 26 26v84c0 12-10 26-26 26h-88c-12 0-26-10-26-26v-88c0-12 10-26 26-26h88v4z m-66 46v42h38v-38h-38v-4z" horiz-adv-x="1000" />

<glyph glyph-name="cuenta-bancaria-activa" unicode="&#xe812;" d="M737-83h-474c-33 0-63 10-83 33-23 23-37 50-37 83v634c0 30 14 63 37 83 23 23 50 33 83 33h317l0 0 0 0c3 0 13 0 17-3 3 0 6-3 13-7l237-236c3-4 6-7 6-14s4-6 4-16l0 0 0 0v-474c0-30-14-63-37-83s-50-33-83-33z m-474 790c-13 0-20-4-26-14-10-6-14-16-14-26v-634c0-13 4-20 14-26 6-7 16-14 26-14h474c13 0 20 4 26 14 7 6 14 16 14 26v434h-197c-23 0-40 16-40 40v200h-277z m357-160h103l-103 103v-103z m37-434h-317c-23 0-40 17-40 40s17 40 40 40h317c23 0 40-16 40-40s-14-40-40-40z m0 157h-317c-23 0-40 17-40 40 0 23 17 40 40 40h317c23 0 40-17 40-40 0-23-14-40-40-40z m-237 160h-80c-23 0-40 17-40 40s17 40 40 40h80c23 0 40-17 40-40 0-27-17-40-40-40z" horiz-adv-x="1000" />

<glyph glyph-name="cuenta-bancaria-activa-seleccionada" unicode="&#xe813;" d="M737-83h-474c-33 0-63 10-83 33-23 23-37 50-37 83v634c0 30 14 63 37 83 23 23 50 33 83 33h317l0 0 0 0c3 0 13 0 17-3 3 0 6-3 13-7l237-236c3-4 6-7 6-14s4-6 4-16l0 0 0 0v-474c0-30-14-63-37-83-23-20-50-33-83-33z m-474 790c-13 0-20-4-26-14-10-6-14-16-14-26v-634c0-13 4-20 14-26 6-7 16-14 26-14h474c13 0 20 4 26 14 7 6 14 16 14 26v434h-197c-23 0-40 16-40 40v200h-277z m357-160h103l-103 103v-103z m37-434h-317c-23 0-40 17-40 40s17 40 40 40h317c23 0 40-16 40-40s-14-40-40-40z m0 157h-317c-23 0-40 17-40 40 0 23 17 40 40 40h317c23 0 40-17 40-40 0-23-14-40-40-40z m-237 160h-80c-23 0-40 17-40 40 0 23 17 40 40 40h80c23 0 40-17 40-40 0-27-17-40-40-40z" horiz-adv-x="1000" />

<glyph glyph-name="cuenta-bancaria-inactiva" unicode="&#xe814;" d="M737-83h-474c-33 0-63 10-83 33-23 23-37 50-37 83v634c0 30 14 63 37 83 23 23 50 33 83 33h317l0 0 0 0c3 0 13 0 17-3 3 0 6-3 13-7l237-236c3-4 6-7 6-14s4-6 4-16l0 0 0 0v-474c0-30-14-63-37-83s-50-33-83-33z m-474 790c-13 0-20-4-26-14-10-6-14-16-14-26v-634c0-13 4-20 14-26 6-7 16-14 26-14h474c13 0 20 4 26 14 7 6 14 16 14 26v434h-197c-23 0-40 16-40 40v200h-277z m357-160h103l-103 103v-103z m37-434h-317c-23 0-40 17-40 40s17 40 40 40h317c23 0 40-16 40-40s-14-40-40-40z m0 157h-317c-23 0-40 17-40 40 0 23 17 40 40 40h317c23 0 40-17 40-40 0-23-14-40-40-40z m-237 160h-80c-23 0-40 17-40 40s17 40 40 40h80c23 0 40-17 40-40 0-27-17-40-40-40z" horiz-adv-x="1000" />

<glyph glyph-name="cuenta-bancaria-inactiva-seleccionada" unicode="&#xe815;" d="M737-83h-474c-33 0-63 10-83 33-23 23-37 50-37 83v634c0 30 14 63 37 83 23 23 50 33 83 33h317l0 0 0 0c3 0 13 0 17-3 3 0 6-3 13-7l237-236c3-4 6-7 6-14s4-6 4-16l0 0 0 0v-474c0-30-14-63-37-83-23-20-50-33-83-33z m-474 790c-13 0-20-4-26-14-10-6-14-16-14-26v-634c0-13 4-20 14-26 6-7 16-14 26-14h474c13 0 20 4 26 14 7 6 14 16 14 26v434h-197c-23 0-40 16-40 40v200h-277z m357-160h103l-103 103v-103z m37-434h-317c-23 0-40 17-40 40s17 40 40 40h317c23 0 40-16 40-40s-14-40-40-40z m0 157h-317c-23 0-40 17-40 40 0 23 17 40 40 40h317c23 0 40-17 40-40 0-23-14-40-40-40z m-237 160h-80c-23 0-40 17-40 40 0 23 17 40 40 40h80c23 0 40-17 40-40 0-27-17-40-40-40z" horiz-adv-x="1000" />

<glyph glyph-name="datos-bolsillos" unicode="&#xe816;" d="M898 154h-116c-18 16-42 24-64 30 6 22 10 40 10 62 0 76-30 154-88 206 4 6 6 16 6 22v104c24 6 42 30 40 58 0 30-24 52-56 52h-34l22 52c0 4 4 12-4 22-6 6-12 10-18 10h-192c-6 0-16-4-18-10-6-6-6-16-4-22l4-6-46-46h-238c-12-2-22-12-22-24v-220c0-12 10-22 22-22h232c-40-48-64-114-64-178 0-30 10-64 24-92-22 0-42-16-52-36-12-28 0-62 24-74l160-94c16-10 34-16 56-16h416c12 0 22 10 22 22v178c0 10-10 22-22 22z m-24-46v-132h-80v132c0 0 80 0 80 0z m-748 358v178h146v-174h-146v-4z m502 152h-6c-12 0-22-10-22-22v-122c0-4-4-6-6-6h-278v174h34c6 0 12 4 16 6l36 36 12-30c4-10 12-16 22-16h192c6 0 12-6 12-12s-6-8-12-8z m-236-198l0 0 212 4 4-4c48-42 76-108 76-174 0-18-4-36-12-56-28 0-58-6-82-22h-4-100c-22 0-40-10-52-24-10-12-12-24-12-36l-36 18c-40 24-68 70-68 120-2 66 28 132 74 174z m-104-322c0 4 4 6 6 10 6 0 10 0 12 0l140-64c4-4 6-4 10-4h138c12 0 22 10 22 22 0 12-12 22-22 22h-110c-10 0-18 10-18 18 0 12 10 18 18 18h108c4 0 4 0 6 0h2 4l10 6c46 24 100 22 144-10v-144h-270c-10 0-22 4-30 10l-156 94c-16 8-20 14-14 22z m258 588h-94l-12 36h122l-16-36z m156-236c18-4 34-18 36-36 4-12 12-18 22-18 10 0 18 6 22 18 4 18 18 34 36 36 12 4 18 12 18 22 0 10-6 18-18 22-18 4-34 18-36 36-4 12-12 18-22 18-10 0-18-6-22-18-4-18-18-34-36-36-12-4-18-12-18-22-4-10 6-18 18-22z m56 22c4 4 4 4 6 6 4-4 4-4 6-6-4-4-4-4-6-6-4 2-6 6-6 6z m-16-276l42-12 4 10c10 30 12 64 4 94l-8 22-40-12 6-22c6-22 6-46-4-70l-4-10z m-426 508c0 12 10 18 18 18h10v46h-10c-34 0-64-28-64-64v-10h46v10z m172-432h28c4 0 6-4 6-6s-4-6-6-6h-64v-46h28v-28h46v28c24 4 40 24 40 48 0 28-22 48-48 48h-28c-4 0-6 4-6 6 0 4 4 6 6 6h64v48h-28v28h-46v-28c-24-4-40-24-40-48-4-28 18-50 48-50z" horiz-adv-x="1000" />

<glyph glyph-name="datos-complementarios" unicode="&#xe817;" d="M860-30h-720c-50 0-90 40-90 90v580c0 50 40 90 90 90h715c50 0 90-40 90-90v-580c0-50-40-90-85-90z m-720 665v-570l715 0v570l-715 0z m425-475h-335c5 40 20 75 50 100 30 35 75 50 120 55 45 0 85-20 120-55 25-25 40-60 45-100z m205 50h-135v95h135v-95z m-370 140c-25 0-50 10-65 25-20 20-30 45-25 70 0 25 10 50 25 70 15 15 40 25 65 25 25 0 45-10 65-25 15-20 25-45 25-70 0-25-10-50-25-70-20-15-45-25-65-25z m370 45h-180v95h180v-95z" horiz-adv-x="1000" />

<glyph glyph-name="datos-cuenta" unicode="&#xe818;" d="M900 288l-134 142v280c0 46-38 82-82 82h-372c-46 0-82-38-82-82v-80h46v26h442v-364l-10 10c-6 6-20 12-30 16v220c0 46-38 82-82 82h-456c-46 0-82-38-82-82v-260c0-46 38-82 82-82h460 4l0 0 110-110v-4c-4-4-4-10-6-12h-428v116h-48v-196c0-46 38-82 82-82h374c6 0 12 0 20 4v-4h46v26c0 4 0 6-4 10-16 38-12 84 6 120l10 16c6 10 4 20-4 30l-124 124c-10 12-10 26 0 38 10 10 26 10 38 0l160-160 32 32-100 100v116l98-104c20-22 30-52 30-78v-270h46v274c0 34-14 74-42 106z m-178 422v-6h-442v6c0 20 16 32 32 32h374c20 4 36-12 36-32z m-156-402c0 4 4 6 6 6s6-4 6-6c0-4-4-6-6-6s-6 2-6 6z m-46 0c0-4-4-6-6-6s-6 4-6 6c0 4 4 6 6 6 6 0 6-6 6-6z m22 42c-20 12-48 10-68-6-20-20-20-52 0-74 16-20 46-22 68-6 12-10 26-10 42-6 0-4 0-6 0-10h-444c-20 0-32 16-32 32v260c0 20 16 32 32 32h460c20 0 32-16 32-32v-218c-4 0-6-4-10-4-4 16-12 32-32 38-14 6-32 4-48-6z m156-390c-4 0-6-4-10-4h-376c-20 0-32 16-32 32v32h416c-4-18 0-36 2-60z m-470 468c12 0 26 10 26 26v84c0 12-10 26-26 26h-88c-12 0-26-10-26-26v-88c0-12 10-26 26-26h88v4z m-66 46v42h38v-38h-38v-4z" horiz-adv-x="1000" />

<glyph glyph-name="descargar-pdf" unicode="&#xe819;" d="M500 775c25 0 40-20 40-40v-405l140 140c15 15 45 15 60 0 15-15 15-45 0-60l-210-210c-15-15-45-15-60 0l-215 205c-15 15-15 45 0 60 15 15 45 15 60 0l140-140v410c0 20 20 40 45 40z m-385-510c25 0 40-20 40-45v-170c0-10 5-20 10-30 10-10 20-10 30-10h595c10 0 20 5 30 10 10 10 10 20 10 30v170c0 25 20 45 45 45 25 0 40-20 40-45v-170c0-35-15-65-35-90-25-25-55-35-90-35h-590c-35 0-65 15-90 35-25 25-35 55-35 90v170c0 25 20 45 40 45z" horiz-adv-x="1000" />

<glyph glyph-name="detalles-operacion" unicode="&#xe81a;" d="M908 510c-28 32-80 32-106 0-8-12-68-68-76-76v202c0 20-8 40-24 56l-68 72c-16 14-34 22-54 22h-436c-44 0-74-34-74-74v-724c0-44 36-76 76-76h502c44 0 76 36 76 76v230l182 186c34 28 34 74 2 106z m-336 226c4 0 16 0 24-8l72-72c8-8 8-16 8-24h-98v104h-6z m102-752c0-16-12-28-24-28h-506c-16 0-24 12-24 28v728c0 12 12 28 24 28h380v-130c0-16 12-28 24-28h126v-202l-110-110c-4-4-4-8-8-12l-36-112c-4-12 0-20 8-28s16-12 28-8l106 36c4 0 8 4 8 8l4 4c0 0 0-174 0-174z m-56 270l36-36-12-12-56-20 20 56 12 12z m72 0l-36 36c20 20 102 106 122 122l36-36-122-122z m182 184l-28-28-36 36 28 28c8 12 28 12 36 0 12-12 12-24 0-36z m-324 92h-352c-16 0-24-12-24-28 0-16 12-28 24-28h352c16 0 24 12 24 28 0 16-8 28-24 28z m-100-102h-252c-16 0-24-12-24-28 0-16 12-28 24-28h254c16 0 24 12 24 28-2 16-14 28-26 28z m0-104h-252c-16 0-24-12-24-28s12-28 24-28h254c16 0 24 12 24 28-2 16-14 28-26 28z m0-102h-252c-16 0-24-12-24-28s12-28 24-28h254c16 0 24 12 24 28-2 16-14 28-26 28z m100-158h-150c-16 0-24-12-24-28 0-16 12-28 24-28h150c16 0 24 12 24 28s-8 28-24 28z" horiz-adv-x="1000" />

<glyph glyph-name="divisas" unicode="&#xe81b;" d="M500 750v-800m190 655h-285c-35 0-70-15-95-35-20-25-35-60-35-95 0-35 15-65 40-90 25-20 55-35 90-35h190c35 0 70-15 95-35 25-25 40-55 40-90 0-35-15-65-40-90-25-25-60-35-95-35h-320" horiz-adv-x="1000" />

<glyph glyph-name="documento" unicode="&#xe81c;" d="M174 762c22 22 54 36 86 36h320c10 0 20-4 28-12l242-244c8-8 12-18 12-28v-488c0-32-12-64-36-86-22-22-54-36-86-36h-482c-32 0-62 12-86 36-22 22-36 54-36 86v648c2 34 16 64 38 88z m84-46c-10 0-20-4-28-12-8-8-12-18-12-28v-650c0-10 4-22 12-28 8-8 18-12 28-12h482c10 0 20 4 28 12 8 8 12 18 12 28v446h-200c-22 0-40 18-40 40v204h-282z m362-58l104-106h-104v106z m-120-268c22 0 40-18 40-40v-82h80c22 0 40-18 40-40 0-22-18-40-40-40h-80v-82c0-22-18-40-40-40s-40 18-40 40v82h-80c-22 0-40 18-40 40 0 22 18 40 40 40h80v82c0 22 18 40 40 40z" horiz-adv-x="1000" />

<glyph glyph-name="editar" unicode="&#xe81d;" d="M85-70c-10 0-20 5-25 10-10 10-15 25-10 35l45 180c0 5 5 15 10 20l575 555v0c40 35 95 50 145 30 15-5 30-15 45-30 15-10 25-25 30-45 5-15 10-35 10-50s-5-35-10-50c-5-15-15-30-30-45l-575-555c-5-5-10-10-15-10l-185-45c-5 0-5 0-10 0z m80 195l-30-110 115 30 570 555c5 5 10 10 15 20 5 5 5 15 5 20 0 5 0 15-5 20-5 5-5 15-15 20-5 5-10 10-20 15-20 10-50 5-65-15l-570-555z m750-195h-415c-20 0-40 15-40 40s15 40 40 40h415c20 0 40-15 40-40s-20-40-40-40z" horiz-adv-x="1000" />

<glyph glyph-name="educacion" unicode="&#xe81e;" d="M485 685c10 5 20 5 30 0l415-165c15-5 25-20 25-40l0 0v-185c0-20-20-40-40-40-20 0-35 15-40 35l0 5 0 125-110-45 0-230c0-10-5-20-10-30-15-15-40-35-70-55-55-35-115-50-185-50s-125 20-185 50c-35 20-60 40-70 55-5 5-10 15-10 25l0 5 0 230-165 70c-30 10-35 55-5 70l5 0 415 170z m200-340l-175-70c-10-5-20-5-30 0l-175 70v-180l0 0c10-5 20-15 30-20l10-5c55-30 105-45 155-45s100 15 145 40c10 5 25 15 35 20l10 5 0 0v185z m-185 260l-310-125 310-125 310 125-310 125z" horiz-adv-x="1000" />

<glyph glyph-name="eliminar" unicode="&#xe81f;" d="M710-75h-420c-45 0-85 40-85 85v550h-80v85h165v45c0 45 35 85 85 85h250c45 0 85-40 85-85v-45h165v-85h-85v-550c0-45-35-85-80-85z m-420 635v-550h415v550h-415z m85 130v-45h250v45h-250z m250-595h-85v385h85v-385z m-165 0h-85v385h85v-385z" horiz-adv-x="1000" />

<glyph glyph-name="eliminar-tabla" unicode="&#xe820;" d="M710-75h-420c-45 0-85 40-85 85v550h-80v85h165v45c0 45 35 85 85 85h250c45 0 85-40 85-85v-45h165v-85h-85v-550c0-45-35-85-80-85z m-420 635v-550h415v550c0 0-415 0-415 0z m85 130v-45h250v45h-250z m250-595h-85v385h85v-385z m-165 0h-85v385h85v-385z" horiz-adv-x="1000" />

<glyph glyph-name="enviar" unicode="&#xe821;" d="M110 625l390-275 390 275c-5 20-25 30-45 30h-690c-20 5-40-10-45-30z m785-85l-375-260c-15-10-30-10-40 0l-375 260v-445c0-25 20-50 50-50h690c25 0 50 20 50 50v445z m-860 70c0 70 55 125 125 125h690c70 0 125-55 125-125v-520c0-70-55-125-125-125h-695c-70 0-125 55-125 125v520z" horiz-adv-x="1000" />

<glyph glyph-name="etiquetar" unicode="&#xe822;" d="M360 655c-65 0-120-50-120-115s55-115 120-115 120 50 120 115-55 115-120 115z m-200-115c0 105 90 190 200 190 110 0 200-85 200-190s-90-190-200-190c-110 0-200 85-200 190z m660 0c20 0 40-15 40-40v-75h80c20 0 40-15 40-40 0-20-20-40-40-40h-80v-75c0-20-20-40-40-40-20 0-40 15-40 40v80h-80c-20 0-40 15-40 40 0 20 20 40 40 40h80v70c0 25 15 40 40 40z m-740-320c35 35 90 55 140 55h280c55 0 105-20 140-55 35-35 60-85 60-135v-75c0-20-20-40-40-40s-40 15-40 40v75c0 30-15 60-35 80-25 20-55 35-85 35h-280c-30 0-60-10-85-35-20-20-35-50-35-80v-75c0-20-20-40-40-40-20 0-40 15-40 40v75c0 50 25 100 60 135z" horiz-adv-x="1000" />

<glyph glyph-name="femenino" unicode="&#xe823;" d="M840 95l-40-35c10-20 15-45 15-70v-95c0-10-5-15-15-15s-15 5-15 15v95c0 70-55 125-120 130l-65-230c0-5-10-10-15-10-10 0-20 10-15 20l65 220c-25 5-50 20-60 45-5 5 0 15 5 20 5 5 15 0 20-5 10-20 30-30 55-30h5c50 0 95-25 125-65l35 35c15 15 15 35 5 45-25 30-20 70 5 90 15 15 15 35 5 50l-25 30c-15 15-20 40-10 60l15 50c5 20-5 35-20 45l-20 10c-25 10-40 35-40 60v50c0 100-80 180-180 180h-100c-100 0-180-80-180-180v-50c0-25-15-50-40-60l-25-10c-15-10-25-25-20-45l15-50c5-20 0-45-10-60l-25-30c-10-15-10-35 5-50 25-20 30-55 5-90-10-15-10-35 5-45l35-35c25 40 70 65 125 65 35 0 65 30 65 65v5c-65 30-110 90-120 160 0 10 5 15 15 20 10 0 15-5 20-15 10-90 90-155 175-155 100 0 180 80 180 180v95c-35 15-70 40-90 75-75-90-185-140-300-145-10 0-15 10-15 15 0 10 5 15 15 15 115 5 220 60 290 150 5 10 25 10 25-5 15-40 50-70 90-85 5 0 10-5 10-15v-110c0-140-135-240-270-200 0-25-15-50-35-70l95-75 55 45c5 5 15 5 20-5 5-5 5-15-5-20l-60-45v-110c0-10-5-15-15-15s-15 5-15 15v110l-110 85c-15-5-30-5-30-5-70 0-130-60-130-130v-95c0-10-5-15-15-15s-15 5-15 15v95c0 25 5 50 15 70l-40 40c-20 20-30 60-5 90 10 15 10 35-5 50-25 25-30 65-5 90l25 30c5 10 10 20 5 30l-15 50c0 40 20 75 50 85l20 10c15 5 20 20 20 35v50c0 115 95 210 210 210h95c115 0 210-95 210-210v-50c0-15 10-30 20-35l25-10c30-15 50-50 40-80l-15-50c-5-10 0-25 5-30l25-30c20-25 20-65-5-90-15-15-15-35-5-50 25-30 15-65-5-90z m-460-30c0 10-10 15-20 10-10 0-15-10-10-20l50-165c0-10 10-15 20-10 10 0 15 10 10 20l-50 165z" horiz-adv-x="1000" />

<glyph glyph-name="generar-extracto" unicode="&#xe824;" d="M164 766c22 22 50 34 82 34h340c8 0 16-4 22-8l256-252c6-6 8-14 8-22v-504c0-30-12-60-34-80-22-22-50-34-82-34h-512c-30 0-60 12-82 34-22 22-34 50-34 80v672c2 30 14 60 36 80z m80-26c-14 0-28-6-40-16-8-10-14-24-14-38v-672c0-14 6-28 16-38s24-16 40-16h510c14 0 28 6 40 16 10 10 16 24 16 38v474h-228c-16 0-30 14-30 30v222h-310z m372-42l152-150h-152c0 0 0 150 0 150z m-316-222c0 16 14 30 30 30h84c16 0 30-14 30-30s-14-30-30-30h-84c-16 0-30 14-30 30z m0-168c0 16 14 30 30 30h340c16 0 30-14 30-30s-14-30-30-30h-340c-16 0-30 14-30 30z m0-168c0 16 14 30 30 30h340c16 0 30-14 30-30s-14-30-30-30h-340c-16 0-30 14-30 30z" horiz-adv-x="1000" />

<glyph glyph-name="gerencia" unicode="&#xe825;" d="M190-100h-90v50c0 190 140 340 310 340h180c170 0 310-150 310-340v-50h-90v50c0 135-100 245-220 245h-180c-125 0-220-110-220-245v-50z m310 810c-70 0-125-60-125-135s55-135 125-135 125 60 125 135-55 135-125 135z m-205-135c0 125 90 225 205 225 115 0 205-100 205-225s-90-225-205-225c-115 0-205 100-205 225z m205-390l-70-185 70-70 70 70-70 185z" horiz-adv-x="1000" />

<glyph glyph-name="gestionar" unicode="&#xe826;" d="M164 766c22 22 50 34 82 34h340c8 0 16-4 22-8l256-252c6-6 8-14 8-22v-504c0-30-12-60-34-80-22-22-50-34-82-34h-512c-30 0-60 12-82 34-22 22-34 50-34 80v672c2 30 14 60 36 80z m80-26c-14 0-28-6-40-16-8-10-14-24-14-38v-672c0-14 6-28 16-38s24-16 40-16h510c14 0 28 6 40 16 10 10 16 24 16 38v474h-228c-16 0-30 14-30 30v222h-310z m372-42l152-150h-152c0 0 0 150 0 150z m-316-222c0 16 14 30 30 30h84c16 0 30-14 30-30s-14-30-30-30h-84c-16 0-30 14-30 30z m0-168c0 16 14 30 30 30h340c16 0 30-14 30-30s-14-30-30-30h-340c-16 0-30 14-30 30z m0-168c0 16 14 30 30 30h340c16 0 30-14 30-30s-14-30-30-30h-340c-16 0-30 14-30 30z" horiz-adv-x="1000" />

<glyph glyph-name="home" unicode="&#xe827;" d="M895-100h-790c-30 0-55 20-55 50v465c0 15 5 25 15 35l395 340c10 5 25 10 40 10 15 0 30-5 40-15l395-340c10-5 15-20 15-30v-465c0-30-25-50-55-50z m-505 340h225v-240h225v395l-340 290-340-290v-395h225v240z" horiz-adv-x="1000" />

<glyph glyph-name="icono-mail" unicode="&#xe828;" d="M511-120h-22c-259 0-468 212-468 469-3 259 206 471 465 471h22c259 0 468-212 468-468 3-260-209-472-465-472z m-70 677c3 0 3 0 0 0 6 0 12 6 9 12l-21 115c0 6-6 9-12 9-6 0-9-6-9-12l21-115c6-6 9-9 12-9z m55 0c0 0 0 0 0 0 6 0 12 3 12 9l18 115c0 6-3 9-9 12-6 0-9-3-12-9l-19-115c0-6 3-12 10-12z m145 73c-3 3-10 6-16 3l-93-70c-3-3-6-9-3-15 3-3 6-3 9-3 3 0 3 0 6 3l94 69c6 0 6 6 3 13z m-10-327l-51 136c-24 70-103 103-169 79-33-12-60-37-76-70-15-33-15-66-3-99l52-136c18-52 69-85 124-85 15 0 30 3 42 6 12-33 54-160 12-266-27-63-79-112-157-139-145-54-215 39-299 148-79 103-169 221-342 230-181 9-287-58-377-115-85-51-154-97-266-73-239 55-257 390-260 405 0 3-3 6-6 9-3 3-6 3-9 3-3 0-6-3-9-6-3-3-3-6-3-9 0-15 21-371 281-432 121-27 202 21 287 76 87 57 190 121 362 112 157-6 242-115 321-218 69-91 133-175 241-175 28 0 58 6 91 18 85 33 145 85 172 154 49 115 6 245-12 287 54 36 76 100 54 160z m-30-87c-12-25-33-46-57-55h0c-27-9-55-9-79 3-24 12-45 33-54 58l-33 90 193 73 33-91c9-27 9-54-3-78z m-124 163l-42 115c6 3 15 3 21 3 43 0 82-28 97-67l6-18-82-33z m-27-9l-84-31-6 19c-9 27-9 54 3 78 9 21 24 36 45 48l42-114z m-9 181c3 0 3 0 0 0 9 3 15 9 15 18l-21 115c-3 9-9 12-18 12-9-3-12-9-12-18l21-115c3-6 9-12 15-12z m-21 136c3 0 3 0 0 0 3 0 6-3 6-3l21-115c0-3-3-6-6-6l0-6v3c-3 0-6 3-6 6l-21 115c3 3 3 6 6 6z m76-136l0 0c9 0 15 6 15 12l18 115c0 3 0 9-3 12-3 3-6 6-9 6-9 0-15-3-15-12l-19-115c-3-9 3-15 13-18z m15 130c0 3 3 6 6 3 0 0 3 0 3-3 0 0 0-3 0-3l-18-115c0-3-3-3-6-3 0 0 0 0 0 0l0 0c-4 0-7 3-4 6l19 115z m133-51c-3 3-6 6-10 6-3 0-6 0-12-3l-93-70c-6-6-9-12-3-21 3-3 6-6 12-6 3 0 6 0 9 3l94 69c3 3 6 6 6 9 0 6 0 9-3 13z m-10-13l-93-69c-3-3-6-3-6 0-3 3 0 6 0 6l93 69c0 0 3 0 3 0 0 0 0 0 0 0 0 0 3 0 3-3 0 0 0-3 0-3 4 3 4 0 0 0z" horiz-adv-x="997" />

<glyph glyph-name="inactivo-off" unicode="&#xe829;" d="M925 350c0-235-190-425-425-425s-425 190-425 425 190 425 425 425 425-190 425-425z m-760 0c0-185 150-335 335-335s335 150 335 335-150 335-335 335-335-150-335-335z m620 0c0-155-125-285-285-285-155 0-285 125-285 285 0 155 125 285 285 285 155 0 285-130 285-285z" horiz-adv-x="1000" />

<glyph glyph-name="inactivos" unicode="&#xe82a;" d="M360 665c-65 0-120-55-120-120s55-120 120-120c65 0 120 55 120 120s-55 120-120 120z m-195-120c0 110 90 195 195 195 110 0 195-90 195-195s-85-195-195-195c-105 0-195 90-195 195z m545-10c15 15 40 15 55 0l70-70 70 70c15 15 40 15 55 0 15-15 15-40 0-55l-70-70 70-70c15-15 15-40 0-55-15-15-40-15-55 0l-70 70-70-70c-15-15-40-15-55 0-15 15-15 40 0 55l70 70-70 70c-15 15-15 40 0 55z m-625-320c35 35 85 60 140 60h275c50 0 100-20 140-60 35-35 60-85 60-140v-80c0-20-20-40-40-40-20 0-40 20-40 40v80c0 30-10 60-35 85-20 20-50 35-85 35h-275c-30 0-60-10-85-35-20-20-35-50-35-85v-80c0-20-20-40-40-40-20 0-40 20-40 40v80c0 50 25 100 60 140z" horiz-adv-x="1000" />

<glyph glyph-name="inactivos-seleccionado" unicode="&#xe82b;" d="M360 665c-65 0-120-55-120-120s55-120 120-120 120 55 120 120-55 120-120 120z m-195-120c0 110 90 195 195 195 110 0 195-90 195-195s-85-195-195-195c-105 0-195 90-195 195z m545-10c15 15 40 15 55 0l70-70 70 70c15 15 40 15 55 0 15-15 15-40 0-55l-70-70 70-70c15-15 15-40 0-55s-40-15-55 0l-70 70-70-70c-15-15-40-15-55 0s-15 40 0 55l70 70-70 70c-15 15-15 40 0 55z m-625-320c35 35 85 60 140 60h275c50 0 100-20 140-60 35-35 60-85 60-140v-80c0-20-20-40-40-40-20 0-40 20-40 40v80c0 30-10 60-35 85-20 20-50 35-85 35h-275c-30 0-60-10-85-35-20-20-35-50-35-85v-80c0-20-20-40-40-40s-40 20-40 40v80c0 50 25 100 60 140z" horiz-adv-x="1000" />

<glyph glyph-name="informacion" unicode="&#xe82c;" d="M500-20c205 0 370 165 370 370 0 205-165 370-370 370-205 0-370-165-370-370 0-205 165-370 370-370z m450 370c0-250-200-450-450-450-250 0-450 200-450 450 0 250 200 450 450 450 250 0 450-200 450-450z m-450-205c-25 0-40 20-40 40v165c0 25 20 40 40 40s40-20 40-40v-165c0-20-15-40-40-40z m40 370c0-25-20-40-40-40h0c-25 0-40 20-40 40 0 25 20 40 40 40h0c25 0 40-20 40-40z" horiz-adv-x="1000" />

<glyph glyph-name="juridico" unicode="&#xe82d;" d="M500 835c25 0 40-20 40-50v-95h255c15 0 30-10 35-25l125-240c5-10 5-15 5-25 0-105-75-195-170-195s-170 85-170 195c0 10 0 15 5 25l90 170h-180v-630h255c25 0 40-20 40-50s-20-50-40-50h-585c-25 0-40 20-40 50s20 50 40 50h255v625h-180l90-170c0-5 5-15 5-20 0-105-75-195-170-195-95 0-170 85-170 195 0 10 0 15 5 25l125 240c10 15 20 25 35 25h255v95c5 25 20 50 45 50z m-295-290l50-100h-105l55 100z m-75-195h145c-15-30-40-50-75-50-25 0-55 20-70 50z m665 195l-50-100h105l-55 100z m75-195h-145c15-30 40-50 75-50 25 0 55 20 70 50z" horiz-adv-x="1000" />

<glyph glyph-name="link" unicode="&#xe82e;" d="M715 775c60 0 120-25 165-70s70-100 70-165c0-60-25-120-65-165l0 0-120-115 0 0c-15-15-30-25-50-35-45-30-75-45-140-35-45 5-110 35-140 70-10 10-15 20-25 25-15 15-10 40 10 55s40 10 55-10 30-30 50-45c25-20 90-45 145-10 20 15 70 60 85 75l80 75c30 30 45 70 45 110s-15 80-45 110-70 45-110 45-80-15-110-45l-70-65c-15-15-40-15-55 0s-15 40 0 55l10 15c45 50 95 95 160 115 15 10 40 10 55 10z m-360-275c25 10 65 20 100 20 75 0 155-85 175-110 15-20 10-35 0-45-15-15-35-20-60 0-20 15-30 30-55 45-20 10-45 15-65 20-25 5-75 5-125-50l-120-115c-30-30-45-70-45-110s15-80 45-110 70-45 110-45 80 15 110 45l65 65c15 15 40 15 55 0s15-40 0-55l-70-65 0 0c-45-40-105-65-165-65s-120 25-165 70-70 100-70 165c0 60 10 105 65 165l0 0c0 0 155 145 215 175z" horiz-adv-x="1000" />

<glyph glyph-name="link-documento" unicode="&#xe82f;" d="M695 735c-65 0-125-20-170-60l0 0-70-55c-20-20-25-55-5-75 20-20 50-25 75-5l65 55c25 20 65 35 105 35 40 0 75-15 100-35 25-20 40-50 40-80 0-30-10-55-35-80l-115-100 0 0c-15-10-30-20-50-30-20-5-40-10-65-10-20 0-40 5-60 15-20 10-35 20-45 35-20 20-50 25-75 5-20-20-25-50-5-75 20-25 50-45 80-60 30-15 65-25 100-25 35 0 70 0 100 15 30 10 60 25 90 50l0 0 115 100 0 0c45 40 75 95 70 160 0 60-30 115-75 155-45 45-110 65-170 65z m-255-230c-35 0-70 0-100-15-35-10-65-25-90-50l0 0-115-100 0 0c-45-40-75-95-70-160 0-60 30-115 75-155 45-40 105-60 170-60s125 20 170 60l0 0 65 60c20 20 25 50 5 75-20 20-50 25-75 5l-65-55c-25-20-65-35-105-35-40 0-75 15-100 35-25 20-40 50-40 80 0 30 10 55 35 80l115 100 0 0c15 10 30 20 50 30 25-5 45 0 70 0 20 0 40-5 60-15 20-10 35-20 45-35 20-20 50-25 75-5 20 20 25 50 5 75-20 25-50 45-80 60-35 10-65 20-100 25z" horiz-adv-x="1000" />

<glyph glyph-name="lista-divisas" unicode="&#xe830;" d="M164 766c22 22 50 34 82 34h340c8 0 16-4 22-8l256-252c6-6 8-14 8-22v-504c0-30-12-60-34-80-22-22-50-34-82-34h-512c-30 0-60 12-82 34-22 22-34 50-34 80v672c2 30 14 60 36 80z m80-26c-14 0-28-6-40-16-8-10-14-24-14-38v-672c0-14 6-28 16-38s24-16 40-16h510c14 0 28 6 40 16 10 10 16 24 16 38v474h-228c-16 0-30 14-30 30v222h-310z m372-42l152-150h-152c0 0 0 150 0 150z m-316-222c0 16 14 30 30 30h84c16 0 30-14 30-30s-14-30-30-30h-84c-16 0-30 14-30 30z m0-168c0 16 14 30 30 30h340c16 0 30-14 30-30s-14-30-30-30h-340c-16 0-30 14-30 30z m0-168c0 16 14 30 30 30h340c16 0 30-14 30-30s-14-30-30-30h-340c-16 0-30 14-30 30z" horiz-adv-x="1000" />

<glyph glyph-name="listado-cuentas-internacionales" unicode="&#xe831;" d="M737-83h-474c-33 0-63 10-83 33-23 23-37 50-37 83v634c0 30 14 63 37 83 23 23 50 33 83 33h317l0 0 0 0c3 0 13 0 17-3 3 0 6-3 13-7l237-236c3-4 6-7 6-14s4-6 4-16l0 0 0 0v-474c0-30-14-63-37-83-23-20-50-33-83-33z m-474 790c-13 0-20-4-26-14-10-6-14-16-14-26v-634c0-13 4-20 14-26 6-7 16-14 26-14h474c13 0 20 4 26 14 7 6 14 16 14 26v434h-197c-23 0-40 16-40 40v200h-277z m357-160h103l-103 103v-103z m37-434h-317c-23 0-40 17-40 40s17 40 40 40h317c23 0 40-16 40-40s-14-40-40-40z m0 157h-317c-23 0-40 17-40 40 0 23 17 40 40 40h317c23 0 40-17 40-40 0-23-14-40-40-40z m-237 160h-80c-23 0-40 17-40 40 0 23 17 40 40 40h80c23 0 40-17 40-40 0-27-17-40-40-40z" horiz-adv-x="1000" />

<glyph glyph-name="listado-cuentas-pendientes" unicode="&#xe832;" d="M737-83h-474c-33 0-63 10-83 33-23 23-37 50-37 83v634c0 30 14 63 37 83 23 23 50 33 83 33h317l0 0 0 0c3 0 13 0 17-3 3 0 6-3 13-7l237-236c3-4 6-7 6-14s4-6 4-16l0 0 0 0v-474c0-30-14-63-37-83-23-20-50-33-83-33z m-474 790c-13 0-20-4-26-14-10-6-14-16-14-26v-634c0-13 4-20 14-26 6-7 16-14 26-14h474c13 0 20 4 26 14 7 6 14 16 14 26v434h-197c-23 0-40 16-40 40v200h-277z m357-160h103l-103 103v-103z m37-434h-317c-23 0-40 17-40 40s17 40 40 40h317c23 0 40-16 40-40s-14-40-40-40z m0 157h-317c-23 0-40 17-40 40 0 23 17 40 40 40h317c23 0 40-17 40-40 0-23-14-40-40-40z m-237 160h-80c-23 0-40 17-40 40 0 23 17 40 40 40h80c23 0 40-17 40-40 0-27-17-40-40-40z" horiz-adv-x="1000" />

<glyph glyph-name="listado-funcionario" unicode="&#xe833;" d="M737-83h-474c-33 0-63 10-83 33-23 23-37 50-37 83v634c0 30 14 63 37 83 23 23 50 33 83 33h317l0 0 0 0c3 0 13 0 17-3 3 0 6-3 13-7l237-236c3-4 6-7 6-14s4-6 4-16l0 0 0 0v-474c0-30-14-63-37-83s-50-33-83-33z m-474 790c-13 0-20-4-26-14-10-6-14-16-14-26v-634c0-13 4-20 14-26 6-7 16-14 26-14h474c13 0 20 4 26 14 7 6 14 16 14 26v434h-197c-23 0-40 16-40 40v200h-277z m357-160h103l-103 103v-103z m37-434h-317c-23 0-40 17-40 40s17 40 40 40h317c23 0 40-16 40-40s-14-40-40-40z m0 157h-317c-23 0-40 17-40 40 0 23 17 40 40 40h317c23 0 40-17 40-40 0-23-14-40-40-40z m-237 160h-80c-23 0-40 17-40 40s17 40 40 40h80c23 0 40-17 40-40 0-27-17-40-40-40z" horiz-adv-x="1000" />

<glyph glyph-name="listado-funcionario-seleccionado" unicode="&#xe834;" d="M737-83h-474c-33 0-63 10-83 33-23 23-37 50-37 83v634c0 30 14 63 37 83 23 23 50 33 83 33h317l0 0 0 0c3 0 13 0 17-3 3 0 6-3 13-7l237-236c3-4 6-7 6-14s4-6 4-16l0 0 0 0v-474c0-30-14-63-37-83-23-20-50-33-83-33z m-474 790c-13 0-20-4-26-14-10-6-14-16-14-26v-634c0-13 4-20 14-26 6-7 16-14 26-14h474c13 0 20 4 26 14 7 6 14 16 14 26v434h-197c-23 0-40 16-40 40v200h-277z m357-160h103l-103 103v-103z m37-434h-317c-23 0-40 17-40 40s17 40 40 40h317c23 0 40-16 40-40s-14-40-40-40z m0 157h-317c-23 0-40 17-40 40 0 23 17 40 40 40h317c23 0 40-17 40-40 0-23-14-40-40-40z m-237 160h-80c-23 0-40 17-40 40 0 23 17 40 40 40h80c23 0 40-17 40-40 0-27-17-40-40-40z" horiz-adv-x="1000" />

<glyph glyph-name="listado-operaciones" unicode="&#xe835;" d="M737-83h-474c-33 0-63 10-83 33-23 23-37 50-37 83v634c0 30 14 63 37 83 23 23 50 33 83 33h317l0 0 0 0c3 0 13 0 17-3 3 0 6-3 13-7l237-236c3-4 6-7 6-14s4-6 4-16l0 0 0 0v-474c0-30-14-63-37-83-23-20-50-33-83-33z m-474 790c-13 0-20-4-26-14-10-6-14-16-14-26v-634c0-13 4-20 14-26 6-7 16-14 26-14h474c13 0 20 4 26 14 7 6 14 16 14 26v434h-197c-23 0-40 16-40 40v200h-277z m357-160h103l-103 103v-103z m37-434h-317c-23 0-40 17-40 40s17 40 40 40h317c23 0 40-16 40-40s-14-40-40-40z m0 157h-317c-23 0-40 17-40 40 0 23 17 40 40 40h317c23 0 40-17 40-40 0-23-14-40-40-40z m-237 160h-80c-23 0-40 17-40 40 0 23 17 40 40 40h80c23 0 40-17 40-40 0-27-17-40-40-40z" horiz-adv-x="1000" />

<glyph glyph-name="listado-ordenes-nacionales" unicode="&#xe836;" d="M737-83h-474c-33 0-63 10-83 33-23 23-37 50-37 83v634c0 30 14 63 37 83 23 23 50 33 83 33h317l0 0 0 0c3 0 13 0 17-3 3 0 6-3 13-7l237-236c3-4 6-7 6-14s4-6 4-16l0 0 0 0v-474c0-30-14-63-37-83-23-20-50-33-83-33z m-474 790c-13 0-20-4-26-14-10-6-14-16-14-26v-634c0-13 4-20 14-26 6-7 16-14 26-14h474c13 0 20 4 26 14 7 6 14 16 14 26v434h-197c-23 0-40 16-40 40v200h-277z m357-160h103l-103 103v-103z m37-434h-317c-23 0-40 17-40 40s17 40 40 40h317c23 0 40-16 40-40s-14-40-40-40z m0 157h-317c-23 0-40 17-40 40 0 23 17 40 40 40h317c23 0 40-17 40-40 0-23-14-40-40-40z m-237 160h-80c-23 0-40 17-40 40 0 23 17 40 40 40h80c23 0 40-17 40-40 0-27-17-40-40-40z" horiz-adv-x="1000" />

<glyph glyph-name="listado-pagadores" unicode="&#xe837;" d="M737-83h-474c-33 0-63 10-83 33-23 23-37 50-37 83v634c0 30 14 63 37 83 23 23 50 33 83 33h317l0 0 0 0c3 0 13 0 17-3 3 0 6-3 13-7l237-236c3-4 6-7 6-14s4-6 4-16l0 0 0 0v-474c0-30-14-63-37-83-23-20-50-33-83-33z m-474 790c-13 0-20-4-26-14-10-6-14-16-14-26v-634c0-13 4-20 14-26 6-7 16-14 26-14h474c13 0 20 4 26 14 7 6 14 16 14 26v434h-197c-23 0-40 16-40 40v200h-277z m357-160h103l-103 103v-103z m37-434h-317c-23 0-40 17-40 40s17 40 40 40h317c23 0 40-16 40-40s-14-40-40-40z m0 157h-317c-23 0-40 17-40 40 0 23 17 40 40 40h317c23 0 40-17 40-40 0-23-14-40-40-40z m-237 160h-80c-23 0-40 17-40 40 0 23 17 40 40 40h80c23 0 40-17 40-40 0-27-17-40-40-40z" horiz-adv-x="1000" />

<glyph glyph-name="mail-contraseña" unicode="&#xe838;" d="M882 726c-104 0-292 22-352 100-10 16-32 18-42 4-68-80-258-102-370-102-16 0-28-14-28-30v-452c0-204 230-328 404-368 22-6 416 96 416 368v452c0 16-12 28-28 28z m-28-480c0-212-308-298-354-310-46 14-354 100-354 310v424c212 6 320 68 362 102 86-76 234-100 348-102l-2-424z m-354-28c16 0 28 12 28 28s-12 28-28 28-28-12-28-28 12-28 28-28z m-100 348c-48-54-48-144-46-180h-20c-16 0-28-12-28-28v-226c0-16 12-28 28-28h330c16 0 28 12 28 28v228c0 16-12 28-28 28h-18c2 38-2 122-48 174-26 28-58 44-100 44-38 0-72-14-98-40z m238-404h-276v170h276c0 0 0-170 0-170z m-50 224h-172c-2 32-2 104 30 138 14 14 30 22 54 20 24 0 42-8 56-24 30-34 34-100 32-134z" horiz-adv-x="1000" />

<glyph glyph-name="mail-exitoso" unicode="&#xe839;" d="M642 670c-70 32-144 38-220 22s-138-56-188-114c-48-60-78-132-82-208-6-76 16-152 56-214s100-114 174-138c72-26 148-28 220-6s136 66 182 126c44 60 70 136 70 210v34c0 22 18 38 38 38 18 0 38-18 38-38v-32c0-92-32-182-84-254-56-76-132-130-220-154-88-26-182-22-270 10s-160 92-210 170c-50 76-76 166-70 258s40 180 100 248 142 120 232 142c92 18 186 12 268-26 18-10 28-32 18-50-8-24-30-34-52-24z m274 20c16-16 16-40 0-54l-388-394c-6-6-16-12-28-12-10 0-18 4-28 12l-116 116c-16 16-16 40 0 54 16 16 40 16 54 0l88-88 364 366c16 12 40 12 54 0z" horiz-adv-x="1000" />

<glyph glyph-name="mas" unicode="&#xe83a;" d="M400 700c0 55 45 100 100 100s100-45 100-100-45-100-100-100-100 45-100 100z m0-350c0 55 45 100 100 100s100-45 100-100c0-55-45-100-100-100s-100 45-100 100z m0-350c0 55 45 100 100 100s100-45 100-100-45-100-100-100-100 45-100 100z" horiz-adv-x="1000" />

<glyph glyph-name="masculino" unicode="&#xe83b;" d="M650 155c-20 0-40 10-55 30-5 5-15 10-20 5-5-5-10-15-5-20 10-15 20-25 30-30l-15-70-35 45c5 10 5 15 0 20-5 5-15 5-20 0l-30-30-65 75c5 10 10 25 10 35 130-40 260 60 260 195v120c0 10-5 15-15 15s-15-5-15-15v-125c0-95-75-170-170-170s-170 75-170 170v130c35 0 70 25 80 65 65-40 135-65 205-75 10 0 15 5 15 15 0 10-5 15-15 15-75 10-150 40-215 85-10 5-25 0-25-10 0 0 0-40-30-55-15-15-35-10-35-10-10 0-15-5-15-15 0 0 0 5 0-120-10 5-20 15-20 30v185c0 20 15 35 35 35 5 0 10 5 15 10 20 50 70 85 125 85h130c75 0 135-60 135-135v-180c0-10 5-15 15-15 10 0 15 5 15 15v180c0 90-75 165-165 165h-130c-65 0-125-35-150-95-30-5-55-35-55-65v-185c0-30 20-55 50-60 5-75 50-145 115-175v-5c0-15-5-35-20-45-20-20-50-20-45-20-85 0-155-70-155-155v-90c0-10 5-15 15-15s15 5 15 15v90c0 70 55 125 125 125 5 0 15 0 20 0l20-95c5-10 20-15 25-5l30 35-20-145c0-10 5-15 15-15s15 5 15 15l20 170 10-10c5-5 15-5 20 0 5 5-5-5 10 10l20-170c0-10 10-15 15-15 10 0 15 10 15 15l-20 145 30-35c10-10 25-5 25 5l20 95c5 0 15 0 20 0 70 0 125-55 125-125v-90c0-10 5-15 15-15s15 5 15 15v90c10 85-60 155-145 155z m-235-85l-15 70c5 5 10 10 15 10l35-40-35-40z" horiz-adv-x="1000" />

<glyph glyph-name="mensaje-notificacion" unicode="&#xe83c;" d="M150-50c-15 0-25 5-35 15-15 15-20 35-10 50l70 205c-20 50-30 100-30 150 0 70 20 140 55 200 35 60 85 110 150 140 50 25 110 40 170 40h20c95-5 185-45 250-110 65-65 105-155 110-250l0-20c0-60-15-120-40-170-30-65-80-115-140-155-60-35-130-55-200-55-55 0-105 10-150 30l-205-70c-5 0-10 0-15 0z m370 700c-45 0-85-10-125-30-50-25-85-60-115-105-25-40-40-95-40-145 0-45 10-85 30-125 5-10 5-25 5-40l-40-125 125 40c15 5 25 5 40-5 40-20 80-30 125-30 50 0 105 15 150 40 45 25 80 65 105 115 20 40 30 80 30 125 0 0 0 0 0 0v25c-5 65-35 130-80 180-50 50-115 80-180 80l-30 0c0 0 0 0 0 0z" horiz-adv-x="1000" />

<glyph glyph-name="mis-bolsillos" unicode="&#xe83d;" d="M330 715c25 20 55 35 90 35h165c35 0 65-15 85-35 25-25 35-55 35-85v-40h125c70 0 125-55 125-120v-400c0-65-55-120-125-120h-655c-70 0-125 55-125 120v400c0 65 55 120 125 120h125v40c-5 30 10 60 30 85z m-35-205h-120c-25 0-45-20-45-40v-400c0-20 20-40 40-40h125v480z m80-480v480h245v-480h-245z m330 0h125c25 0 40 20 40 40v400c0 20-20 40-40 40h-125v-480z m-80 560h-250v40c0 10 5 20 10 30 10 10 20 10 30 10h165c10 0 20-5 30-10 10-10 10-20 10-30v-40z" horiz-adv-x="1000" />

<glyph glyph-name="mis-movimientos" unicode="&#xe83e;" d="M960 525c0 5-5 10-10 15l-115 115c-5 5-10 5-15 10-5 0-15 0-20 0-5 0-10-5-15-10-5-5-5-10-5-20v-25h-25v110c0 25-10 45-25 65-15 15-40 25-65 25h-335c-25 0-50-10-65-25-15-20-25-40-25-65v-455h-25v25c0 5 0 15-5 20-5 5-10 10-15 10-5 0-15 5-20 0-5 0-10-5-15-10l-110-110c-5-5-10-15-10-20 0-10 5-15 10-25l115-115c10-10 25-10 35-5 10 5 20 15 20 30v25h25v-110c0-25 10-45 25-65 15-15 40-25 65-25h345c25 0 45 10 65 25 15 15 25 40 25 65v455h25v-25c0-15 10-25 20-30 10-5 25 0 30 5l105 115c5 5 10 15 10 25l0 0z m-265-520v-25c0-5 0-15-5-20-5-5-15-5-20-5h-345c-5 0-15 0-20 5 0 5-5 10-5 20v25h395z m-395 690v25c0 5 0 10 5 20 5 5 15 5 20 5h345c5 0 15 0 20-5 5-5 5-10 5-20v-25h-395z m320-250c5-5 15-10 25-10h55v-365h-400v25h55c10 0 15 5 20 10 5 5 10 15 10 25 0 10-5 15-10 25-5 5-15 10-25 10h-165c-10 0-15-5-25-10 0 0-5-5-5-10l-40 40 40 40c0-5 5-5 5-10 5-5 15-10 25-10h170c10 0 15 5 25 10 5 5 10 15 10 25 0 10-5 15-10 25-5 5-15 10-25 10h-55v360h395v-20h-55c-10 0-15-5-20-10-5-5-10-15-10-25 0-10 5-15 10-25 5-5 15-10 25-10h170c10 0 15 5 25 10 0 0 5 5 5 10l40-40-45-45c0 5-5 5-5 5-5 10-10 15-20 15h-170c-10 0-15-5-25-10-5-5-10-15-10-25 0-10 5-15 10-20z m-75 50h-10v25c0 10-5 15-10 25-10 5-15 10-25 10-10 0-15-5-25-10-5-5-5-15-5-25v-25c-25 0-45-10-60-25-20-15-30-40-30-60 0-25 10-45 25-65 15-15 40-25 65-25h55c5 0 15 0 20-5 5-5 5-10 5-20 0-5 0-15-5-20-5-5-10-5-20-5h-70c-5 0-5 0-10 5 0 0-5 5-5 10 0 10-5 15-10 25-5 5-15 10-25 10-10 0-15-5-20-10-5-5-10-15-10-25 0-20 10-40 20-50 15-15 35-20 50-20h10v-25c0-10 5-15 10-25 15-15 25-15 35-15 10 0 15 5 20 10 5 5 10 15 10 25v25c25 0 45 10 60 25 15 15 25 40 25 65s-10 45-25 65c-15 15-40 25-65 25h-55c-5 0-15 0-20 5 0 0-5 5-5 15 0 5 0 15 5 20 5 5 10 10 20 10h70c5 0 5 0 10-5 0 0 5-5 5-10 0-10 5-15 10-25 5-5 15-10 25-10 10 0 15 5 25 10 5 5 10 15 10 25 0 20-10 40-20 50-25 15-45 20-60 20z" horiz-adv-x="1000" />

<glyph glyph-name="movimientos" unicode="&#xe83f;" d="M944 520c-2 4-4 10-8 14l-112 112c-4 4-6 6-12 8-4 2-10 0-14-2-4-2-8-6-12-8-2-4-4-8-4-14v-30h-34v114c0 22-8 42-24 58-14 14-34 22-58 22h-334c-22 0-42-8-58-24-16-16-24-36-24-58v-450h-34v30c0 4-2 10-4 14-2 4-6 8-12 8-4 2-10 2-14 2-4-2-10-4-12-6l-112-112c-6-4-8-10-8-16 0-8 4-14 8-18l112-112c8-8 18-10 28-4 10 4 14 14 14 24v30h34v-114c0-22 8-42 24-58 16-16 36-24 58-24h336c22 0 42 8 58 24 16 16 24 36 24 58v450h34v-30c0-10 6-20 16-24 10-4 20-2 26 6l112 112c4 4 6 10 6 18l0 0z m-246-502v-30c0-8-2-16-8-22-6-6-16-8-24-8h-334c-8 0-16 2-22 8-6 4-10 12-10 22v30h398z m-398 696c0 8 2 16 8 22 8 6 16 8 24 8h336c8 0 16-2 22-8 6-6 8-14 8-22v-30h-398v30z m320-232c-4-4-8-12-8-18 0-8 4-14 8-18 4-4 12-8 18-8h60v-368h-398v34h60c8 0 14 4 18 6 6 4 8 10 8 18 0 8-4 14-8 18-4 4-12 8-18 8h-168c-8 0-14-4-18-8-4-4-6-10-6-14l-52 52 52 52c0-6 4-10 6-14 4-4 12-8 18-8h168c8 0 14 4 18 8 4 4 8 12 8 18 0 8-4 14-8 18-4 4-12 8-18 8h-60v366h398v-34h-60c-8 0-14-4-18-6-6-4-8-10-8-18 0-8 4-14 8-18 4-4 12-8 18-8h168c8 0 14 4 18 8 4 4 6 10 6 14l52-52-52-52c0 6-4 10-6 14-4 6-10 8-18 8h-166c-8 0-14-2-20-6z m-148-46h70c4 0 8-2 12-4 2-2 4-8 4-12 0-8 4-14 8-18 4-4 12-8 18-8 8 0 14 4 18 8 4 4 8 12 8 18 0 18-8 34-20 46-12 12-30 20-46 20h-18v30c0 8-4 14-8 18-4 4-12 8-18 8-8 0-14-4-18-8-4-4-8-12-8-18v-30h-4c-22 0-42-8-58-24-16-16-24-36-24-58s8-42 24-58c16-16 36-24 58-24h56c8 0 16-2 22-8 6-6 8-14 8-22 0-8-2-16-8-22-6-6-14-8-22-8h-70c-4 0-8 2-12 4-2 4-4 10-4 14 0 8-4 14-8 18-4 4-12 8-18 8-8 0-14-4-18-6-6-4-8-10-8-18 0-18 8-34 20-46 12-12 30-20 46-20h18v-30c0-8 4-14 8-18 4-4 12-8 18-8 8 0 14 4 18 6 6 4 8 10 8 18v30h4c22 0 42 8 58 24 16 16 24 36 24 58 0 22-8 42-24 58-16 16-36 24-58 24h-56c-8 0-16 2-22 8-6 6-8 14-8 22 0 8 2 16 8 22 4 2 14 6 22 6z" horiz-adv-x="1000" />

<glyph glyph-name="notificacion" unicode="&#xe840;" d="M375 10c0-20 5-45 15-65 25-40 65-60 110-60 45 0 85 25 110 60 10 20 15 40 15 65v10h-250v-10z m520 160l-5 5c-40 40-90 95-90 260 0 135-95 250-230 285v25c0 40-30 70-70 70-40 0-70-30-70-70v-25c-135-35-230-150-230-285 0-165-55-220-90-255l-5-5c-10-15-20-30-20-45 0-35 25-70 70-70h685c45 0 70 35 70 70 5 10-5 30-15 40z m-80-30h-630c15 20 35 45 55 75 30 60 45 130 45 220 0 100 70 185 175 205l40 10 45-10c100-20 175-105 175-205 0-90 15-160 45-220 10-35 30-60 50-75z" horiz-adv-x="1000" />

<glyph glyph-name="nueva-clave" unicode="&#xe841;" d="M882 726c-104 0-292 22-352 100-10 16-32 18-42 4-68-80-258-102-370-102-16 0-28-14-28-30v-452c0-204 230-328 404-368 22-6 416 96 416 368v452c0 16-12 28-28 28z m-28-480c0-212-308-298-354-310-46 14-354 100-354 310v424c212 6 320 68 362 102 86-76 234-100 348-102l-2-424z m-354-28c16 0 28 12 28 28s-12 28-28 28-28-12-28-28 12-28 28-28z m-100 348c-48-54-48-144-46-180h-20c-16 0-28-12-28-28v-226c0-16 12-28 28-28h330c16 0 28 12 28 28v228c0 16-12 28-28 28h-18c2 38-2 122-48 174-26 28-58 44-100 44-38 0-72-14-98-40z m238-404h-276v170h276c0 0 0-170 0-170z m-50 224h-172c-2 32-2 104 30 138 14 14 30 22 54 20 24 0 42-8 56-24 30-34 34-100 32-134z" horiz-adv-x="1000" />

<glyph glyph-name="nuevo-lote" unicode="&#xe842;" d="M164 766c22 22 50 34 82 34h340c8 0 16-4 22-8l256-252c6-6 8-14 8-22v-504c0-30-12-60-34-80-22-22-50-34-82-34h-512c-30 0-60 12-82 34-22 22-34 50-34 80v672c2 30 14 60 36 80z m80-26c-14 0-28-6-40-16-8-10-14-24-14-38v-672c0-14 6-28 16-38s24-16 40-16h510c14 0 28 6 40 16 10 10 16 24 16 38v474h-228c-16 0-30 14-30 30v222h-310z m372-42l152-150h-152c0 0 0 150 0 150z m-316-222c0 16 14 30 30 30h84c16 0 30-14 30-30s-14-30-30-30h-84c-16 0-30 14-30 30z m0-168c0 16 14 30 30 30h340c16 0 30-14 30-30s-14-30-30-30h-340c-16 0-30 14-30 30z m0-168c0 16 14 30 30 30h340c16 0 30-14 30-30s-14-30-30-30h-340c-16 0-30 14-30 30z" horiz-adv-x="1000" />

<glyph glyph-name="nuevo-pagador" unicode="&#xe843;" d="M920 352c-32 24-78 28-110-8l-78-82c-12 32-40 54-74 54h-138c-12 0-12 4-32 20-70 58-172 58-242 0l-50-44c-24 12-50 12-74 0l-58-28c-12-8-20-24-12-36l156-318c12-8 28-16 40-8l58 28c28 16 44 44 44 74h310c58 0 114 28 148 74l126 168c26 32 22 84-14 106z m-638-372l-36-20-132 268 36 16c12 8 28 0 36-12l110-224c6-8 2-24-14-28z m610 298l-124-168c-24-32-62-50-106-50h-330l-98 200 50 44c50 44 126 44 172 0 28-28 46-32 66-32h136c16 0 28-12 28-28s-12-28-28-28h-136c-16 0-28-12-28-28 0-16 12-28 28-28h152c24 0 44 8 58 24l114 126c12 12 28 12 36 4 18-8 18-24 10-36z m-286 340c20 20 28 44 28 74 0 58-46 106-106 106s-106-50-106-106c0-28 12-50 32-74-46-28-82-78-82-136v-28c0-16 12-28 28-28h266c16 0 28 12 28 28v24c-4 58-40 114-88 140z m-78 126c28 0 52-24 52-54s-20-50-50-50-56 22-56 50c0 30 28 54 54 54z m-106-266c0 58 50 106 106 106s106-46 106-106h-212z" horiz-adv-x="1000" />

<glyph glyph-name="nuevo-reporte" unicode="&#xe844;" d="M898 376h-114l0 404c-2 12-8 20-16 24-8 4-20 2-28-6l-44-44c-4 4-40 40-40 40-18 16-34 16-50 0l-38-38-40 34c-18 22-36 20-50 6l-40-40-40 40c-18 16-34 16-50 0l-38-38-38 38c-12 12-34 12-46 0l-42-40-36 34c-16 14-24 20-40 12-10-4-14-14-14-24v-778l0-14c4-22 10-50 36-70 0 0 0 0 0 0 22-16 48-24 76-24l632 0 6 0c52 0 86 52 86 104v348c0 18-14 32-32 32z m-36-58v-326c0-18 2-46-22-52-12-4-36-2-44 2-12 6-22 16-22 34v344c32 0 62 0 88-2z m-130-374h-530c-32 0-52 20-52 52v718c4-4 6-6 12-12 16-14 28-20 48-4 0 0 38 38 40 40 0 0 54-52 60-52 14 0 58 48 64 54 10-10 46-52 62-52 6 0 14-2 24 10l40 40c14-14 58-52 66-52 22 0 64 52 64 52 2-2 36-50 56-50 14 0 30 16 34 20v-700c0-18 2-42 12-64z m-232 794c14-14 42-52 66-52 22 0 64 52 64 52m-380 0c0 0 54-52 60-52 24 0 58 48 64 54m-124-2c0 0 40-52 60-52 24 0 58 48 64 54m238-458h-268c-14 0-26 12-26 26v0c0 14 12 26 26 26h268c14 0 26-12 26-26v0c0-14-12-26-26-26z m-318 192h-40c-14 0-26 12-26 26v0c0 14 12 26 26 26h40c14 0 26-12 26-26v0c0-14-12-26-26-26z m324 0h-40c-14 0-26 12-26 26v0c0 14 12 26 26 26h40c14 0 26-12 26-26v0c0-14-12-26-26-26z m-6-304h-268c-14 0-26 12-26 26l0 0c0 14 12 26 26 26h268c14 0 26-12 26-26l0 0c0-14-12-26-26-26z m0-116h-268c-14 0-26 12-26 26l0 0c0 14 12 26 26 26h268c14 0 26-12 26-26l0 0c0-14-12-26-26-26z m-206 358l2 8c-6 2-12 4-20 6-8 4-14 8-18 12-4 4-6 10-6 14 0 10 8 20 20 20 4 0 6 0 10-2 2 0 4-2 6-4 12-8 24-12 36-12 12 0 20 6 20 12 0 6-6 10-26 16-32 10-50 24-50 48 0 14 6 26 16 36 12 10 24 14 36 14l2 6c2 12 8 18 18 18 12 0 18-8 16-18l0-6c14-4 24-8 30-14 4-4 6-8 6-14 0-10-6-20-18-20-6 0-10 2-14 4-10 4-18 6-28 6-14 0-22-4-22-12 0-6 6-10 24-16l6-2c12-4 18-6 28-14 10-8 16-18 16-32s-6-26-16-34c-10-10-24-14-40-16l0-6c-2-10-8-16-18-16-10 0-18 8-16 18z" horiz-adv-x="1000" />

<glyph glyph-name="ocio" unicode="&#xe845;" d="M890 780c10-5 20-20 20-30v-170c0 0 0 0 0 0v-465c0-65-50-115-115-115h-80c-65 0-115 50-115 115s50 115 115 115h115v300l-445-110v-395c0-65-50-115-115-115h-65c-65 0-115 50-115 115 0 65 50 115 115 115h95v315c0 0 0 0 0 0v165c0 20 15 35 30 40l525 125c15 5 25 5 35-5z m-505-275l440 105v85l-440-105v-85z m-85-450h-95c-15 0-30-15-30-30 0-15 15-30 30-30h60c20 0 35 15 35 35v25z m525 85h-115c-15 0-30-15-30-30s15-30 30-30h80c20 0 35 15 35 35v25z" horiz-adv-x="1000" />

<glyph glyph-name="otro" unicode="&#xe846;" d="M780-90h-560c-30 0-60 15-85 35-25 20-35 50-35 85v560c0 5 0 10 0 15 0 0 0 0 0 0 0 0 0 0 0 0 0 5 5 10 5 10l120 160c10 10 20 15 30 15h480c15 0 25-5 30-15l120-160c10-5 15-5 15-10 0 0 0 0 0 0 0 0 0 0 0 0 0-5 0-10 0-15v-560c0-30-15-60-35-85s-50-35-85-35z m-600 640v-520c0-10 5-20 10-30 5-5 20-10 30-10h560c10 0 20 5 30 10 5 5 10 20 10 30v520h-640z m40 80h560l-60 80h-440l-60-80z m280-400c-55 0-105 20-140 60-40 35-60 85-60 140 0 20 15 40 40 40 20 0 40-20 40-40 0-30 15-60 35-85 45-45 125-45 170 0 25 25 35 55 35 85 0 20 20 40 40 40 25 0 40-20 40-40 0-55-20-105-60-140-35-40-85-60-140-60z" horiz-adv-x="1000" />

<glyph glyph-name="politicas-servicio" unicode="&#xe847;" d="M737-83h-474c-33 0-63 10-83 33-23 23-37 50-37 83v634c0 30 14 63 37 83 23 23 50 33 83 33h317l0 0 0 0c3 0 13 0 17-3 3 0 6-3 13-7l237-236c3-4 6-7 6-14s4-6 4-16l0 0 0 0v-474c0-30-14-63-37-83-23-20-50-33-83-33z m-474 790c-13 0-20-4-26-14-10-6-14-16-14-26v-634c0-13 4-20 14-26 6-7 16-14 26-14h474c13 0 20 4 26 14 7 6 14 16 14 26v434h-197c-23 0-40 16-40 40v200h-277z m357-160h103l-103 103v-103z m37-434h-317c-23 0-40 17-40 40s17 40 40 40h317c23 0 40-16 40-40s-14-40-40-40z m0 157h-317c-23 0-40 17-40 40 0 23 17 40 40 40h317c23 0 40-17 40-40 0-23-14-40-40-40z m-237 160h-80c-23 0-40 17-40 40 0 23 17 40 40 40h80c23 0 40-17 40-40 0-27-17-40-40-40z" horiz-adv-x="1000" />

<glyph glyph-name="procesos" unicode="&#xe848;" d="M164 766c22 22 50 34 82 34h340c8 0 16-4 22-8l256-252c6-6 8-14 8-22v-504c0-30-12-60-34-80-22-22-50-34-82-34h-512c-30 0-60 12-82 34-22 22-34 50-34 80v672c2 30 14 60 36 80z m80-26c-14 0-28-6-40-16-8-10-14-24-14-38v-672c0-14 6-28 16-38s24-16 40-16h510c14 0 28 6 40 16 10 10 16 24 16 38v474h-228c-16 0-30 14-30 30v222h-310z m372-42l152-150h-152c0 0 0 150 0 150z m-316-222c0 16 14 30 30 30h84c16 0 30-14 30-30s-14-30-30-30h-84c-16 0-30 14-30 30z m0-168c0 16 14 30 30 30h340c16 0 30-14 30-30s-14-30-30-30h-340c-16 0-30 14-30 30z m0-168c0 16 14 30 30 30h340c16 0 30-14 30-30s-14-30-30-30h-340c-16 0-30 14-30 30z" horiz-adv-x="1000" />

<glyph glyph-name="provisiones" unicode="&#xe849;" d="M400 740l10 0c185 0 335-55 335-145l0-145c115-20 205-120 205-240 0-135-110-245-245-245-35 0-75 10-105 25-55-15-130-25-200-25-190 0-340 50-350 135l0 5v490l0 5c5 90 160 140 350 140z m-270-570l0-65c0-5 10-15 30-25l10-5c5 0 10-5 15-5l15 0c5 0 5 0 10 0l15-5c15-5 30-5 45-10l25-5 20 0c25-5 55-5 80-5 35 0 70 0 105 5l10 0-5 5-5 5c0 0 0 5-5 5l5-10c-5 5-10 10-10 15 0 0 0 0 0 5 0 0 0 5-5 5 0 0 0 5-5 5 0 0 0 0 0 5 0 0 0 5-5 5 0 0 0 5-5 5 0 0 0 5 0 5 0 0 0 5 0 5 0 0 0 5 0 5 0 0 0 5 0 5 0 0 0 0 0 0l0 5c-25 0-50-5-75-5-105 5-200 20-265 50z m575 200c-45 0-90-20-120-55-25-30-40-70-40-110 0-10 0-20 0-30 10-50 40-90 80-115 25-15 50-20 80-20 90 0 165 75 165 165 0 90-75 165-165 165z m-575-35l0-65c0-5 10-15 30-25l10-5c5 0 10-5 15-5l15-5c5 0 5 0 10 0l15-5c15-5 30-5 45-10l20-5 20 0c25-5 55-5 80-5 20 0 40 0 60 0l0 10c0 25 5 50 15 70 0 0 0 0 0 5-25 0-50-5-75-5-100 5-195 20-260 50z m535 165c-65-30-160-50-265-50-110 0-205 20-270 50l0-65c0-5 10-15 30-25l10-5c10-5 15-5 15-5l15-5c5 0 5 0 10 0l15-5c15-5 30-5 45-10l20-5 20 0c30-5 60-5 90-5 50 0 95 5 135 10 35 35 80 55 125 65l5 0 0 55z m-265 155c-30 0-55 0-80-5l-25 0-20-5c-20 0-35-5-50-5l-15-5c-5 0-5 0-10 0l-15-5c-5 0-10-5-15-5l-5-5c-20-10-35-20-35-25s10-15 30-25l10-5c5 0 10-5 15-5l15 0c5 0 5 0 10 0l15-5c15-5 30-10 50-10l20-5 20 0c25-5 55-5 85-5 30 0 55 0 80 5l20 0 20 5c15 5 35 5 45 10l15 5c5 0 5 0 10 0l15 5c5 0 10 5 15 5l10 5c20 10 30 15 30 25s-10 15-30 25l-10 5c-5 0-10 5-15 5l-15 5c-5 0-5 0-10 0l-15 5c-15 5-30 5-45 10l-20-5-20 0c-25 5-55 5-80 5z" horiz-adv-x="1000" />

<glyph glyph-name="relaciones-pago" unicode="&#xe84a;" d="M737-83h-474c-33 0-63 10-83 33-23 23-37 50-37 83v634c0 30 14 63 37 83 23 23 50 33 83 33h317l0 0 0 0c3 0 13 0 17-3 3 0 6-3 13-7l237-236c3-4 6-7 6-14s4-6 4-16l0 0 0 0v-474c0-30-14-63-37-83-23-20-50-33-83-33z m-474 790c-13 0-20-4-26-14-10-6-14-16-14-26v-634c0-13 4-20 14-26 6-7 16-14 26-14h474c13 0 20 4 26 14 7 6 14 16 14 26v434h-197c-23 0-40 16-40 40v200h-277z m357-160h103l-103 103v-103z m37-434h-317c-23 0-40 17-40 40s17 40 40 40h317c23 0 40-16 40-40s-14-40-40-40z m0 157h-317c-23 0-40 17-40 40 0 23 17 40 40 40h317c23 0 40-17 40-40 0-23-14-40-40-40z m-237 160h-80c-23 0-40 17-40 40 0 23 17 40 40 40h80c23 0 40-17 40-40 0-27-17-40-40-40z" horiz-adv-x="1000" />

<glyph glyph-name="reporte-pago" unicode="&#xe84b;" d="M737-83h-474c-33 0-63 10-83 33-23 23-37 50-37 83v634c0 30 14 63 37 83 23 23 50 33 83 33h317l0 0 0 0c3 0 13 0 17-3 3 0 6-3 13-7l237-236c3-4 6-7 6-14s4-6 4-16l0 0 0 0v-474c0-30-14-63-37-83-23-20-50-33-83-33z m-474 790c-13 0-20-4-26-14-10-6-14-16-14-26v-634c0-13 4-20 14-26 6-7 16-14 26-14h474c13 0 20 4 26 14 7 6 14 16 14 26v434h-197c-23 0-40 16-40 40v200h-277z m357-160h103l-103 103v-103z m37-434h-317c-23 0-40 17-40 40s17 40 40 40h317c23 0 40-16 40-40s-14-40-40-40z m0 157h-317c-23 0-40 17-40 40 0 23 17 40 40 40h317c23 0 40-17 40-40 0-23-14-40-40-40z m-237 160h-80c-23 0-40 17-40 40 0 23 17 40 40 40h80c23 0 40-17 40-40 0-27-17-40-40-40z" horiz-adv-x="1000" />

<glyph glyph-name="reportes" unicode="&#xe84c;" d="M185 765c20 20 50 35 80 35h310c10 0 20-5 30-10l235-245c5-10 10-20 10-30v-495c0-30-10-60-35-85-20-25-50-35-85-35h-465c-30 0-60 15-85 35-20 25-30 55-30 85v660c0 30 10 60 35 85z m80-40c-10 0-15-5-25-15-10-5-10-20-10-30v-660c0-10 5-25 10-30 10-10 15-10 25-10h465c10 0 20 5 25 10 10 10 10 20 10 30v455h-195c-20 0-40 15-40 40v210h-265z m350-60l105-110h-105v110z m-310-190c0 20 15 40 40 40h80c20 0 40-15 40-40 0-20-15-40-40-40h-80c-20 0-40 15-40 40z m0-165c0 20 15 40 40 40h310c20 0 40-15 40-40 0-20-15-40-40-40h-310c-20 0-40 20-40 40z m0-165c0 20 15 40 40 40h310c20 0 40-15 40-40 0-20-15-40-40-40h-310c-20 0-40 20-40 40z" horiz-adv-x="1000" />

<glyph glyph-name="resumen" unicode="&#xe84d;" d="M908 510c-28 32-80 32-106 0-8-12-68-68-76-76v202c0 20-8 40-24 56l-68 72c-16 14-34 22-54 22h-436c-44 0-74-34-74-74v-724c0-44 36-76 76-76h502c44 0 76 36 76 76v230l182 186c34 28 34 74 2 106z m-336 226c4 0 16 0 24-8l72-72c8-8 8-16 8-24h-98v104h-6z m102-752c0-16-12-28-24-28h-506c-16 0-24 12-24 28v728c0 12 12 28 24 28h380v-130c0-16 12-28 24-28h126v-202l-110-110c-4-4-4-8-8-12l-36-112c-4-12 0-20 8-28s16-12 28-8l106 36c4 0 8 4 8 8l4 4c0 0 0-174 0-174z m-56 270l36-36-12-12-56-20 20 56 12 12z m72 0l-36 36c20 20 102 106 122 122l36-36-122-122z m182 184l-28-28-36 36 28 28c8 12 28 12 36 0 12-12 12-24 0-36z m-324 92h-352c-16 0-24-12-24-28 0-16 12-28 24-28h352c16 0 24 12 24 28 0 16-8 28-24 28z m-100-102h-252c-16 0-24-12-24-28 0-16 12-28 24-28h254c16 0 24 12 24 28-2 16-14 28-26 28z m0-104h-252c-16 0-24-12-24-28s12-28 24-28h254c16 0 24 12 24 28-2 16-14 28-26 28z m0-102h-252c-16 0-24-12-24-28s12-28 24-28h254c16 0 24 12 24 28-2 16-14 28-26 28z m100-158h-150c-16 0-24-12-24-28 0-16 12-28 24-28h150c16 0 24 12 24 28s-8 28-24 28z" horiz-adv-x="1000" />

<glyph glyph-name="retirar" unicode="&#xe84e;" d="M930 515c0 5-5 10-10 15l-105 105c-5 5-5 5-15 5-5 0-10 0-15 0-5 0-10-5-10-10-5-5-5-10-5-15v-25h-25v110c0 20-10 40-25 55-15 15-35 20-55 20h-325c-20 0-40-10-55-25-20-10-25-30-25-50v-430h-30v25c0 5 0 10-5 15-5 5-5 10-10 10-5 0-10 5-15 0-5 0-10-5-15-5l-105-105c-5-5-10-10-10-20 0-10 5-15 10-20l105-105c10-10 20-10 30-5 10 5 15 15 15 25v25h25v-110c0-20 10-40 25-55 15-15 35-25 55-25h320c20 0 40 10 55 25 15 15 25 35 25 55v430h25v-25c0-10 5-20 20-25 10-5 20 0 25 5l105 105c15 5 20 15 20 25l0 0z m-620 185c0 5 0 15 5 20 5 5 15 5 20 5h320c5 0 15-5 20-5 5-5 5-10 5-20v-25h-370v25z m305-220c-5-5-10-10-10-20 0-10 5-15 10-20 5-5 10-10 20-10h55v-350h-380v25h55c10 0 15 5 20 5 5 5 10 10 10 20 0 10-5 15-10 20-5 5-10 10-20 10h-160c-10 0-15-5-20-10-5-5-5-5-5-10l-45 45 45 45c0-5 5-10 5-10 5-5 10-10 20-10h160c10 0 15 5 20 10 5 5 10 10 10 20 0 10-5 15-10 20-5 5-10 10-20 10h-55v350h375v-25h-55c-10 0-15-5-20-5-5-5-10-10-10-20 0-10 5-15 10-20 5-5 10-10 20-10h160c10 0 15 5 20 10 5 0 10 0 10 5l45-45-45-45c0 5-5 5-5 10-5 5-10 10-20 10h-160c-10 0-15-5-20-5z m70-450v-30c0-5-5-15-5-20-5-5-15-10-20-10h-320c-5 0-15 5-20 5-5 5-5 10-5 20v25h370z m-145 455h-15v25c0 10-5 15-10 20-5 5-10 10-20 10-10 0-15-5-20-10 0-5 0-10 0-20v-25h0c-25 0-45-10-60-25-15-15-25-35-25-55 0-20 10-40 25-55 15-15 35-25 55-25h55c5 0 15-5 20-10 5-5 5-10 5-20 0-5-5-15-5-20-5-5-10-5-20-5h-65c-5 0-5 0-10 5 0 0-5 5-5 10 0 10-5 15-10 20-5 5-10 10-20 10-10 0-15-5-20-5-5-5-10-10-10-20 0-20 5-35 20-45 15-15 30-20 45-20h15v-25c0-10 5-15 10-20 5-5 10-10 20-10 10 0 15 5 20 5 5 5 10 10 10 20v25h0c20 0 40 10 55 25 15 15 25 35 25 55 0 20-10 40-25 55-15 15-35 25-55 25h-50c-5 0-15 5-20 5-5 5-10 10-10 20 0 5 5 15 5 20 5 5 10 10 20 10h65c5 0 5 0 10-5 0 0 5-5 5-10 0-10 5-15 10-20 5-5 10-10 20-10 10 0 15 5 20 10 5 5 10 10 10 20 0 20-5 35-20 45-15 10-30 20-50 20z" horiz-adv-x="1000" />

<glyph glyph-name="rol" unicode="&#xe84f;" d="M920 352c-32 24-78 28-110-8l-78-82c-12 32-40 54-74 54h-138c-12 0-12 4-32 20-70 58-172 58-242 0l-50-44c-24 12-50 12-74 0l-58-28c-12-8-20-24-12-36l156-318c12-8 28-16 40-8l58 28c28 16 44 44 44 74h310c58 0 114 28 148 74l126 168c26 32 22 84-14 106z m-638-372l-36-20-132 268 36 16c12 8 28 0 36-12l110-224c6-8 2-24-14-28z m610 298l-124-168c-24-32-62-50-106-50h-330l-98 200 50 44c50 44 126 44 172 0 28-28 46-32 66-32h136c16 0 28-12 28-28s-12-28-28-28h-136c-16 0-28-12-28-28 0-16 12-28 28-28h152c24 0 44 8 58 24l114 126c12 12 28 12 36 4 18-8 18-24 10-36z m-286 340c20 20 28 44 28 74 0 58-46 106-106 106s-106-50-106-106c0-28 12-50 32-74-46-28-82-78-82-136v-28c0-16 12-28 28-28h266c16 0 28 12 28 28v24c-4 58-40 114-88 140z m-78 126c28 0 52-24 52-54s-20-50-50-50-56 22-56 50c0 30 28 54 54 54z m-106-266c0 58 50 106 106 106s106-46 106-106h-212z" horiz-adv-x="1000" />

<glyph glyph-name="salir" unicode="&#xe850;" d="M810-50h-620c-50 0-90 40-90 90v180h90v-180h620v620h-620v-180h-90v180c0 50 40 90 90 90h620c50 0 90-40 90-90v-620c0-50-40-90-90-90z m-355 220v135h-355v90h355v135l220-180-220-180z" horiz-adv-x="1000" />

<glyph glyph-name="sistemas" unicode="&#xe851;" d="M50 680c0 50 35 95 80 95h740c45 0 80-40 80-95v-655c0-50-35-95-80-95h-740c-45 0-80 40-80 95 0 0 0 655 0 655z m820 0h-740v-655h740v655z m-645-160c15 20 40 20 60 5l145-140c5-10 10-20 10-35s-5-25-15-35l-145-140c-15-15-45-15-60 5-15 20-15 50 5 65l110 105-110 105c-15 15-15 45 0 65z m215-355c0 25 20 45 40 45h265c25 0 40-20 40-45s-20-45-40-45h-265c-25-5-40 15-40 45z" horiz-adv-x="1000" />

<glyph glyph-name="subir-imagen" unicode="&#xe852;" d="M180 710c-25 0-45-20-45-45v-630c0-20 10-35 30-40l485 475c20 20 45 20 65 0l150-150v345c0 25-20 45-45 45 0 0-640 0-640 0z m775-45c0 75-55 135-130 135h-645c-75 0-140-60-140-135v-630c0-75 60-135 135-135h640c75 0 135 60 135 135l5 630z m-90-470l-185 180-395-385h530c25 0 50 10 50 35v170z m-525 335c-15 0-25-10-25-20s10-25 25-25 25 10 25 25-15 20-25 20z m-115-20c0 60 50 110 115 110s115-50 115-110-50-115-115-115-115 50-115 115z" horiz-adv-x="1000" />

<glyph glyph-name="subir-video" unicode="&#xe853;" d="M175 570c-20 0-35-20-35-40v-365c0-20 15-35 35-35h410c20 0 35 15 35 35v365c0 20-15 40-35 40h-410z m520-150v110c0 60-50 110-110 110h-410c-60 0-110-50-110-110v-365c0-60 50-110 110-110h410c60 0 110 50 110 110v110l200-140c10-5 25-10 40-5 15 10 20 20 20 30v370c0 15-10 25-20 30-10 5-25 5-40-5l-200-135z m30-70l160-110v220l-160-110z" horiz-adv-x="1000" />

<glyph glyph-name="talento-humano" unicode="&#xe854;" d="M170 730c-10 0-20-10-20-20v-720c0-10 10-20 20-20h655c10 0 20 10 20 20v720c0 10-10 20-20 20h-655z m-95-20c0 60 45 105 95 105h655c55 0 95-50 95-105v-720c0-60-45-105-95-105h-655c-55 0-95 50-95 105v720z m155-105c0 25 15 40 40 40h155c20 0 40-20 40-40v-170c0-25-15-40-40-40h-155c-20 0-40 20-40 40v170z m75-45v-85h75v85h-75z m235 45c0 25 15 40 40 40h155c20 0 40-20 40-40 0-25-15-40-40-40h-155c-25-5-40 15-40 40z m0-170c0 25 15 40 40 40h155c20 0 40-20 40-40 0-25-15-40-40-40h-155c-25-5-40 15-40 40z m-310-170c0 25 15 40 40 40h465c20 0 40-20 40-40 0-25-15-40-40-40h-465c-25 0-40 15-40 40z m0-170c0 25 15 40 40 40h465c20 0 40-20 40-40 0-25-15-40-40-40h-465c-25 0-40 15-40 40z" horiz-adv-x="1000" />

<glyph glyph-name="telefono" unicode="&#xe855;" d="M845-105c-5 0-5 0-10 0-135 15-270 65-385 135-105 70-200 160-270 270-70 115-120 245-135 385 0 15 0 30 5 50s10 25 20 40c15 10 25 15 45 25 10 0 25 5 40 5h130c25 0 55-10 75-25 20-15 35-45 40-70 5-40 20-80 30-120 5-20 10-40 5-65-5-15-15-35-30-50l-45-40c55-90 130-165 220-220l40 40c15 15 30 25 55 30 20 5 45 5 65-5 40-15 75-20 120-25 25-5 55-15 70-40 15-20 25-50 25-75v-130c0-15 0-35-5-45-5-15-15-30-25-45s-40-30-80-25z m-560 860l0 0h-130c-30 0-40-5-50-20-5-15-5-40-5-50 15-130 60-250 130-360 65-100 150-190 250-250 105-70 230-115 360-130 5 0 25 0 45 15 5 5 15 15 20 25 0 5 0 15 0 20v135l0 0c0 15-5 25-15 40-10 10-20 15-40 20-45 10-85 15-130 30-10 5-40 5-60-15l-55-55c-10-10-20-10-30-5-115 65-205 155-270 270-5 10-5 20 5 30l55 55c5 5 15 10 20 25 5 5 5 15 0 35-25 50-35 85-40 135 0 15-10 30-20 40-10 0-25 10-40 10z" horiz-adv-x="1000" />

<glyph glyph-name="tesoreria" unicode="&#xe856;" d="M135 710c0 45 35 80 75 80h585c40 0 75-35 75-80v-720c0-45-35-80-75-80h-590c-40 0-75 35-75 80l5 720z m660 0h-590l0 0 0-720h585v720z m-535-80c0 20 20 40 40 40h400c20 0 35-20 35-40v-180c0-20-15-40-35-40h-400c-20 0-40 20-40 40v180z m75-40v-100h330v100h-330z m-80-290c15 15 40 15 50 0l40-40 35 40c15 15 40 15 50 0 15-15 15-40 0-55l-35-45 40-40c15-15 15-45 0-60-15-15-40-15-50 0l-40 40-40-40c-15-15-40-15-50 0-15 15-15 40 0 55l35 45-40 40c-10 15-10 45 5 60z m280-50c0 20 15 40 35 40h145c20 0 35-20 35-40 0-20-15-40-35-40h-145c-15 0-35 20-35 40z m0-120c0 20 15 40 35 40h145c20 0 35-20 35-40s-15-40-35-40h-145c-15 0-35 20-35 40z" horiz-adv-x="1000" />

<glyph glyph-name="transferir" unicode="&#xe857;" d="M385 245c0 25-20 45-40 45h-250c-25 0-40-20-40-45v-255c0-25 20-45 40-45 25 0 40 20 40 45v210h210c20 0 40 20 40 45z m230 210c0-25 20-45 40-45h250c25 0 40 20 40 45v260c0 25-20 45-40 45-25 0-40-20-40-45v-215l-210 0c-20 0-40-20-40-45z m-555-185c-15-15-15-45 0-60l195-185c50-50 110-90 180-110 70-20 140-20 210-5 70 15 135 50 185 100 55 50 95 110 115 175 10 20-5 45-25 55-20 10-45-5-55-25-20-55-50-105-95-140-40-40-95-65-150-80-55-15-115-10-165 5-55 15-105 45-145 85 0 0 0 0 0 0 0 0 0 0 0 0l-195 185c-10 20-40 20-55 0z m880 160c15 15 15 45 0 60l-195 185c-50 50-110 90-180 110-70 20-140 20-210 5-70-15-135-50-185-100-55-45-95-105-120-175-5-25 5-45 30-55 20-10 45 5 50 25 20 55 50 105 95 140 40 40 95 65 150 80 55 15 110 10 165-5 55-15 105-45 145-85 0 0 0 0 0 0 0 0 0 0 0 0l195-185c15-20 45-20 60 0z m-555-185c0 25-20 45-40 45h-250c-25 0-40-20-40-45v-255c0-25 20-45 40-45 25 0 40 20 40 45v210h210c20 0 40 20 40 45z m230 210c0-25 20-45 40-45h250c25 0 40 20 40 45v260c0 25-20 45-40 45-25 0-40-20-40-45v-215l-210 0c-20 0-40-20-40-45z m-555-185c-15-15-15-45 0-60l195-185c50-50 110-90 180-110 70-20 140-20 210-5 70 15 135 50 185 100 55 50 95 110 115 175 10 20-5 45-25 55-20 10-45-5-55-25-20-55-50-105-95-140-40-40-95-65-150-80-55-15-115-10-165 5-55 15-105 45-145 85 0 0 0 0 0 0 0 0 0 0 0 0l-195 185c-10 20-40 20-55 0z m880 160c15 15 15 45 0 60l-195 185c-50 50-110 90-180 110-70 20-140 20-210 5-70-15-135-50-185-100-55-45-95-105-120-175-5-25 5-45 30-55 20-10 45 5 50 25 20 55 50 105 95 140 40 40 95 65 150 80 55 15 110 10 165-5 55-15 105-45 145-85 0 0 0 0 0 0 0 0 0 0 0 0l195-185c15-20 45-20 60 0z" horiz-adv-x="1000" />

<glyph glyph-name="vacaciones" unicode="&#xe858;" d="M465 800c50 5 100 0 150-15 45-10 85-30 120-50 165-100 250-305 195-500-5-10-10-20-20-25-10-5-20-5-30-5l-230 65c0 0 0 0 0 0l-120 30-85-320h470c25 0 40-20 40-40 0-25-20-40-40-40h-525c0 0 0 0 0 0h-300c-20 0-40 20-40 40 0 25 20 40 40 40h265l95 340-120 35c0 0 0 0 0 0l-235 60c-20 5-35 30-30 50 50 190 215 320 400 335z m-75-380c0 5 5 10 5 20 10 35 30 75 60 115 30 40 70 80 110 105 10 5 15 15 25 20 5-10 5-20 10-30 15-45 35-95 40-145 5-50 0-95-5-130 0-5-5-15-5-20l-240 65z m320-85c0 10 5 15 5 25 10 40 15 95 5 155-5 55-25 110-40 150 5 0 10-5 10-5 125-75 190-220 170-370l-150 45z m-210 385c-10 0-20 0-30 0-140-10-265-100-315-235l155-40c0 5 5 15 10 25 15 40 35 90 70 140 35 40 75 80 110 110z" horiz-adv-x="1000" />

<glyph glyph-name="ver" unicode="&#xe859;" d="M500 50c-75 0-145 15-215 45-50 25-100 55-135 100-40 40-75 90-95 145l-5 10 5 15c20 55 55 100 95 145 40 40 85 75 135 100 70 25 140 40 215 40 75 0 145-15 215-45 50-25 100-55 135-100 40-40 75-90 95-145l5-10-5-15c-70-175-250-290-445-285z m0 515c-155 5-295-80-355-215 60-135 200-220 355-215 155-5 295 80 355 215-60 135-200 220-355 215z m0-345c-65 0-120 45-135 105s20 120 80 145c60 25 130 5 165-45 35-50 30-120-15-165-25-25-60-40-95-40z" horiz-adv-x="1000" />

<glyph glyph-name="ver-erroneo" unicode="&#xe85a;" d="M500 50c-75 0-145 15-215 45-50 25-100 55-135 100-40 40-75 90-95 145l-5 10 5 15c20 55 55 100 95 145 40 40 85 75 135 100 70 25 140 40 215 40s145-15 215-45c50-25 100-55 135-100 40-40 75-90 95-145l5-10-5-15c-70-175-250-290-445-285z m0 515c-155 5-295-80-355-215 60-135 200-220 355-215 155-5 295 80 355 215-60 135-200 220-355 215z m0-345c-65 0-120 45-135 105s20 120 80 145 130 5 165-45c35-50 30-120-15-165-25-25-60-40-95-40z" horiz-adv-x="1000" />

<glyph glyph-name="verificados" unicode="&#xe85b;" d="M360 665c-65 0-120-55-120-120s55-120 120-120c65 0 120 55 120 120s-55 120-120 120z m-195-120c0 110 90 195 195 195 110 0 195-90 195-195s-85-195-195-195c-105 0-195 90-195 195z m795-50c15-15 15-40 0-55l-160-160c-15-15-40-15-55 0l-80 80c-15 15-15 40 0 55 15 15 40 15 55 0l50-50 130 130c20 15 45 15 60 0z m-875-280c35 35 85 60 140 60h275c50 0 105-20 140-60 35-35 60-85 60-140v-80c0-20-20-40-40-40-20 0-40 20-40 40v80c0 30-10 60-35 85s-50 35-85 35h-275c-30 0-60-10-85-35s-35-50-35-85v-80c0-20-20-40-40-40-20 0-40 20-40 40v80c0 50 20 100 60 140z" horiz-adv-x="1000" />

<glyph glyph-name="verificados-seleccionado" unicode="&#xe85c;" d="M360 665c-65 0-120-55-120-120s55-120 120-120 120 55 120 120-55 120-120 120z m-195-120c0 110 90 195 195 195 110 0 195-90 195-195s-85-195-195-195c-105 0-195 90-195 195z m795-50c15-15 15-40 0-55l-160-160c-15-15-40-15-55 0l-80 80c-15 15-15 40 0 55s40 15 55 0l50-50 130 130c20 15 45 15 60 0z m-875-280c35 35 85 60 140 60h275c50 0 105-20 140-60 35-35 60-85 60-140v-80c0-20-20-40-40-40-20 0-40 20-40 40v80c0 30-10 60-35 85s-50 35-85 35h-275c-30 0-60-10-85-35s-35-50-35-85v-80c0-20-20-40-40-40s-40 20-40 40v80c0 50 20 100 60 140z" horiz-adv-x="1000" />

<glyph glyph-name="verificar" unicode="&#xe85d;" d="M380 665c-65 0-115-50-115-115s55-120 120-120c60 0 115 50 115 120s-55 115-120 115z m-195-115c0 110 90 200 200 200s200-90 200-200-90-200-200-200c-115 0-200 90-200 200z m435 160c5 20 25 35 50 30 45-10 80-35 105-70s40-80 40-120-15-90-40-125-65-60-105-70c-20-5-45 5-50 30-5 20 5 45 30 50s50 20 65 40 25 45 25 75-10 50-25 75c-15 20-40 35-65 40-25 5-35 25-30 45z m-535-495c35 35 85 60 140 60h315c50 0 105-20 140-60 35-35 60-85 60-140v-80c0-20-20-40-40-40-20 0-40 20-40 40v80c0 30-15 60-35 85-20 20-50 35-85 35h-315c-30 0-60-15-85-35s-35-50-35-85v-80c0-20-20-40-40-40s-40 20-40 40v80c0 50 20 100 60 140z m695 20c5 20 25 35 50 30 40-10 80-35 105-70s40-75 40-120v-80c0-20-20-40-40-40s-40 20-40 40v80c0 25-10 50-25 75-15 20-40 35-65 40-20 5-30 25-25 45z" horiz-adv-x="1000" />

<glyph glyph-name="verificar-aprobar" unicode="&#xe85e;" d="M765-60h-560c-75 0-135 60-135 130v550c0 70 60 130 135 130h470c20 0 40-20 40-40s-15-40-35-40h-475c-30 0-55-25-55-50v-550c0-30 25-50 55-50h560c30 0 55 25 55 50v290c0 20 20 40 40 40s40-20 40-40v-285c0-75-60-135-135-135z m-290 290c-10 0-20 5-30 10l-135 135c-15 15-15 40 0 55 15 20 45 20 60 5l110-110 385 390c15 15 40 15 55 0 15-15 15-40 0-55l-415-420c-5-10-15-10-30-10l0 0z" horiz-adv-x="1000" />

<glyph glyph-name="verificar-seleccionado" unicode="&#xe85f;" d="M380 665c-65 0-115-50-115-115s55-120 120-120c60 0 115 50 115 120s-55 115-120 115z m-195-115c0 110 90 200 200 200 110 0 200-90 200-200s-90-200-200-200c-115 0-200 90-200 200z m435 160c5 20 25 35 50 30 45-10 80-35 105-70 25-35 40-80 40-120s-15-90-40-125c-25-35-65-60-105-70-20-5-45 5-50 30-5 20 5 45 30 50 25 5 50 20 65 40 15 20 25 45 25 75s-10 50-25 75c-15 20-40 35-65 40-25 5-35 25-30 45z m-535-495c35 35 85 60 140 60h315c50 0 105-20 140-60 35-35 60-85 60-140v-80c0-20-20-40-40-40-20 0-40 20-40 40v80c0 30-15 60-35 85-20 20-50 35-85 35h-315c-30 0-60-15-85-35s-35-50-35-85v-80c0-20-20-40-40-40-20 0-40 20-40 40v80c0 50 20 100 60 140z m695 20c5 20 25 35 50 30 40-10 80-35 105-70 25-35 40-75 40-120v-80c0-20-20-40-40-40s-40 20-40 40v80c0 25-10 50-25 75-15 20-40 35-65 40-20 5-30 25-25 45z" horiz-adv-x="1000" />

<glyph glyph-name="ver-mas" unicode="&#xe860;" d="M60 600c0 25 20 40 45 40h0c25 0 45-20 45-40 0-25-20-40-45-40h0c-25-5-45 15-45 40z m220 0c0 25 20 40 45 40h580c25 0 45-15 45-40 0-25-20-40-45-40h-580c-25-5-45 15-45 40z m-220-255c0 25 20 40 45 40h0c25 0 45-20 45-40 0-25-20-40-45-40h0c-25-5-45 15-45 40z m220 0c0 25 20 40 45 40h580c25 0 45-20 45-40 0-25-20-40-45-40h-580c-25-5-45 15-45 40z m-220-255c0 25 20 40 45 40h0c25 0 45-20 45-40 0-25-20-40-45-40h0c-25 0-45 15-45 40z m220 0c0 25 20 40 45 40h580c25 0 45-20 45-40 0-25-20-40-45-40h-580c-25 0-45 15-45 40z" horiz-adv-x="1000" />

<glyph glyph-name="ver-normal" unicode="&#xe861;" d="M500 50c-75 0-145 15-215 45-50 25-100 55-135 100-40 40-75 90-95 145l-5 10 5 15c20 55 55 100 95 145 40 40 85 75 135 100 70 25 140 40 215 40s145-15 215-45c50-25 100-55 135-100 40-40 75-90 95-145l5-10-5-15c-70-175-250-290-445-285z m0 515c-155 5-295-80-355-215 60-135 200-220 355-215 155-5 295 80 355 215-60 135-200 220-355 215z m0-345c-65 0-120 45-135 105s20 120 80 145 130 5 165-45c35-50 30-120-15-165-25-25-60-40-95-40z" horiz-adv-x="1000" />

<glyph glyph-name="ver-tabla" unicode="&#xe862;" d="M500 50c-75 0-145 15-215 45-50 25-100 55-135 100-40 40-75 90-95 145l-5 10 5 15c20 55 55 100 95 145 40 40 85 75 135 100 70 25 140 40 215 40s145-15 215-45c50-25 100-55 135-100 40-40 75-90 95-145l5-10-5-15c-70-175-250-290-445-285z m0 515c-155 5-295-80-355-215 60-135 200-220 355-215 155-5 295 80 355 215-60 135-200 220-355 215z m0-345c-65 0-120 45-135 105s20 120 80 145 130 5 165-45c35-50 30-120-15-165-25-25-60-40-95-40z" horiz-adv-x="1000" />

<glyph glyph-name="visualizar-gastos" unicode="&#xe863;" d="M454-28h90c4 0 10 2 12 6 4 4 6 8 6 12 0 4-2 10-6 12-4 4-8 6-12 6h-90c-4 0-10-2-12-6-4-4-6-8-6-12 0-4 2-10 6-12 4-4 8-6 12-6z m420 534c-4 4-8 4-12 4-36 0-68-10-90-28-2-2-4-4-6-6v278c0 12-4 24-12 34-8 8-22 12-34 12h-424c-12 0-24-4-34-12-8-8-12-20-12-34v-48l-2 2c-14 14-34 22-52 22-20 0-38-8-54-22-14-16-22-34-22-54 0-20 8-38 22-52l76-78c-12-4-22-10-32-20-10-10-14-20-20-34-4-12-4-26 0-38 4-12 10-24 20-34l44-44c-14-2-28-8-38-16-12-8-20-20-24-34-4-14-6-28-2-42 4-14 10-26 20-36l28-30c-14-2-28-8-38-16-12-8-20-20-24-34-4-12-6-28-2-42 4-14 10-26 20-36l76-78v-40c0-12 4-24 12-34 8-8 20-12 34-12h340c4 0 10 2 12 6 4 4 6 8 6 12v168c0 16 4 30 10 44 6 12 16 26 28 34l68 52c2 2 4 4 6 6 2 4 2 6 2 8v144c0 72 44 92 78 96v-558c0-4 2-10 6-12 4-4 8-6 12-6 4 0 10 2 12 6 4 4 6 8 6 12v578c2 6 0 10-4 12z m-708 120c-4 4-6 8-8 14-2 4-4 10-4 14 0 36 42 52 68 28l28-28v-112l-84 84z m46-204c-6 8-12 18-12 28s4 20 12 28c14 16 40 16 56 0l80-82c36-38-18-92-56-56l-80 82z m182-44c-2 16-10 32-20 44l-20 20c4 36 20 68 44 94 24 24 58 40 92 44 36 4 70-6 100-26 28-20 52-50 60-86 10-34 8-72-6-104-14-34-40-60-70-76-32-16-68-20-102-12-36 8-68 28-88 58 8 12 12 28 10 44z m-182-128c-8 8-12 18-12 28 0 10 4 20 12 28 14 16 40 16 56 0l80-82c36-38-18-92-56-56l-80 82z m-14-160c-8 8-12 18-12 28 0 10 4 20 12 28 14 16 40 16 56 0l80-82c36-38-18-92-56-56l-80 82z m420-154h-322c-4 0-6 2-8 4-2 2-4 4-4 8v18c6-2 12-4 20-4 10 0 20 2 30 6 10 4 18 10 24 18 6 8 12 18 16 26 4 10 4 20 4 30h238v-106z m114 308l-60-46c-16-12-28-28-38-46-10-18-14-38-14-60v-10h-252c-4 4-6 8-8 12l-28 30c14 2 28 8 38 16 12 8 20 20 24 34 4 12 6 28 2 42-4 14-10 26-20 36l-44 44c12 2 22 4 30 12 26-34 64-56 106-66 42-10 84-4 122 16 38 20 68 50 86 88 18 38 24 82 14 126-10 42-32 80-66 106s-74 42-116 44-84-12-116-38c-34-26-58-62-68-104 0 0-36 36-38 36v148h446l0-420z m0 456h-448v54c0 4 2 6 4 8 2 2 4 4 8 4h424c4 0 6-2 8-4 2-2 4-4 4-8v-54z m-246-292h30c6 0 12-4 18-8 6-4 8-12 8-18 0-6-4-12-8-18-4-6-12-8-18-8h-44c-6 0-10 6-10 12 0 4-2 10-4 12-4 4-8 6-12 6-4 0-10-2-12-4-4-2-8-6-8-12v-2c0-6 2-12 4-18 2-6 6-10 10-16 4-4 10-8 14-10 6-2 12-4 18-4h12v-10c0-4 2-10 6-12 4-4 8-6 12-6s10 2 12 6c6 4 6 8 6 12v10c16 2 30 8 40 20 10 12 16 28 16 44 0 16-6 32-18 44-12 12-26 18-42 18h-30c-6 0-12 4-18 8-4 4-8 12-8 18 0 6 4 12 8 18 4 6 12 8 18 8h44c6-2 10-4 10-10 0-2 0-4 2-6 2-2 2-4 4-6 4-4 8-6 12-6 4 0 10 2 12 4 4 4 6 8 6 12 0 6-2 12-4 18-2 6-6 12-10 16-4 4-10 8-14 10-6 4-12 4-18 4h-10v10c0 4-2 10-6 12-6 2-10 4-14 4-4 0-10-2-12-6-4-4-6-8-6-12v-10c-16-2-30-8-42-20-12-12-18-28-18-44 0-16 6-32 18-44 16-10 30-16 46-16z" horiz-adv-x="1000" />

<glyph glyph-name="activo-on" unicode="&#xe864;" d="M925 350c0-235-190-425-425-425s-425 190-425 425 190 425 425 425 425-190 425-425z m-760 0c0-185 150-335 335-335s335 150 335 335-150 335-335 335-335-150-335-335z m620 0c0-155-125-285-285-285-155 0-285 125-285 285 0 155 125 285 285 285 155 0 285-130 285-285z" horiz-adv-x="1000" />

<glyph glyph-name="actualizado-completo" unicode="&#xe865;" d="M642 670c-70 32-144 38-220 22s-138-56-188-114c-48-60-78-132-82-208-6-76 16-152 56-214s100-114 174-138c72-26 148-28 220-6s136 66 182 126c44 60 70 136 70 210v34c0 22 18 38 38 38 18 0 38-18 38-38v-32c0-92-32-182-84-254-56-76-132-130-220-154-88-26-182-22-270 10s-160 92-210 170c-50 76-76 166-70 258s40 180 100 248 142 120 232 142c92 18 186 12 268-26 18-10 28-32 18-50-8-24-30-34-52-24z m274 20c16-16 16-40 0-54l-388-394c-6-6-16-12-28-12-10 0-18 4-28 12l-116 116c-16 16-16 40 0 54 16 16 40 16 54 0l88-88 364 366c16 12 40 12 54 0z" horiz-adv-x="1000" />

<glyph glyph-name="administracion" unicode="&#xe866;" d="M170-100h-95v45c0 185 150 330 330 330h190c180 0 330-150 330-330v-45h-95v45c0 130-105 235-235 235h-190c-130 0-235-105-235-235v-45z m330 425c-130 0-235 105-235 235 0 135 105 240 235 240 130 0 235-105 235-235 0-135-105-240-235-240z m0 380c-80 0-140-65-140-140s60-145 140-145c80 0 140 65 140 140s-60 145-140 145z" horiz-adv-x="1000" />

<glyph glyph-name="administrativo" unicode="&#xe867;" d="M180-100h-90v45c0 185 145 330 320 330h180c175 0 320-150 320-330v-45h-90v45c0 130-100 235-225 235h-185c-125 0-225-105-225-235v-45z m320 425c-125 0-225 105-225 235 0 135 100 240 225 240 125 0 225-105 225-235 0-135-100-240-225-240z m0 380c-75 0-135-65-135-140s60-145 135-145c75 0 135 65 135 140s-60 145-135 145z" horiz-adv-x="1000" />
</font>
</defs>
</svg>
